<svg width="14" height="13" viewBox="0 0 14 13" fill="none" xmlns="http://www.w3.org/2000/svg">
<path fill-rule="evenodd" clip-rule="evenodd" d="M2.32031 5.64091C2.32031 4.24926 3.60951 3.17773 5.12276 3.17773C5.9028 3.17773 6.58919 3.52411 7.08175 3.97229C7.5743 3.52411 8.26069 3.17773 9.04074 3.17773C10.554 3.17773 11.8432 4.24926 11.8432 5.64091C11.8432 6.5942 11.4139 7.43253 10.8192 8.14116C10.2255 8.84856 9.44884 9.44894 8.70525 9.93679C8.42123 10.1231 8.1339 10.295 7.87093 10.4218C7.62401 10.5409 7.34009 10.65 7.08175 10.65C6.82341 10.65 6.53949 10.5409 6.29256 10.4218C6.0296 10.295 5.74227 10.1231 5.45825 9.93679C4.71466 9.44894 3.93804 8.84856 3.34433 8.14116C2.74959 7.43253 2.32031 6.5942 2.32031 5.64091ZM5.12276 3.95073C3.99131 3.95073 3.13656 4.73872 3.13656 5.64091C3.13656 6.36417 3.46076 7.03756 3.98333 7.66019C4.50692 8.28404 5.21141 8.83447 5.92308 9.30138C6.19238 9.47806 6.44602 9.62839 6.66299 9.73303C6.896 9.84541 7.03096 9.87703 7.08175 9.87703C7.13254 9.87703 7.2675 9.84541 7.50051 9.73303C7.71747 9.62839 7.97112 9.47806 8.24041 9.30138C8.95208 8.83447 9.65658 8.28404 10.1802 7.66019C10.7027 7.03756 11.0269 6.36417 11.0269 5.64091C11.0269 4.73872 10.1722 3.95073 9.04074 3.95073C8.39092 3.95073 7.78415 4.31838 7.40529 4.78501C7.32804 4.88016 7.20849 4.93592 7.08175 4.93592C6.95501 4.93592 6.83546 4.88016 6.75821 4.78501C6.37934 4.31838 5.77257 3.95073 5.12276 3.95073Z" fill="#2B2B2B"/>
</svg>
