<svg width="25" height="25" viewBox="0 0 25 25" fill="none" xmlns="http://www.w3.org/2000/svg">
<path d="M8.7474 5.46875C5.85067 5.46875 3.38281 7.63469 3.38281 10.4477C3.38281 12.3883 4.29151 14.0221 5.49582 15.3754C6.696 16.7242 8.24442 17.8563 9.64424 18.8038L12.0595 20.4386C12.324 20.6177 12.6708 20.6177 12.9353 20.4386L15.3505 18.8038C16.7504 17.8563 18.2988 16.7242 19.499 15.3754C20.7033 14.0221 21.612 12.3883 21.612 10.4477C21.612 7.63469 19.1441 5.46875 16.2474 5.46875C14.7542 5.46875 13.4403 6.16889 12.4974 7.07483C11.5545 6.16889 10.2406 5.46875 8.7474 5.46875Z" fill="#F70D4D"/>
</svg>
