<svg width="32" height="33" viewBox="0 0 32 33" fill="none" xmlns="http://www.w3.org/2000/svg">
<path d="M23.7264 12.0848C23.8135 11.933 23.8114 11.7459 23.721 11.596C23.6306 11.4462 23.466 11.3571 23.2911 11.3634L20.7763 11.4535C15.8215 11.631 10.898 12.3143 6.0822 13.4929L5.42985 13.6526C5.28094 13.689 5.15825 13.7941 5.09941 13.9357C5.04056 14.0773 5.05259 14.2384 5.13179 14.3697L7.99499 19.1149C8.12741 19.3343 8.40844 19.4118 8.63456 19.2911L9.49424 18.8322C11.5902 17.7133 13.7755 16.7706 16.0276 16.0137L16.2507 15.9387C16.3003 15.922 16.33 15.9285 16.3491 15.9363C16.3733 15.9462 16.4003 15.9675 16.4205 16.001C16.4407 16.0346 16.447 16.0684 16.4445 16.0944C16.4425 16.1149 16.4344 16.1443 16.3965 16.1804L16.2262 16.3427C14.5066 17.9823 12.6538 19.4761 10.6869 20.8087L9.88012 21.3553C9.66792 21.4991 9.60539 21.7838 9.73781 22.0033L12.601 26.7485C12.6802 26.8798 12.8172 26.9655 12.9698 26.9795C13.1225 26.9934 13.2727 26.9339 13.3744 26.8191L13.8197 26.3164C17.1075 22.6055 20.0074 18.5682 22.4743 14.2677L23.7264 12.0848Z" fill="#2B2B2B"/>
</svg>
