<svg width="13" height="21" viewBox="0 0 13 21" fill="none" xmlns="http://www.w3.org/2000/svg">
<path d="M1.12828 0.450126C0.831041 0.738429 0.664062 1.1294 0.664062 1.53706C0.664062 1.94472 0.831041 2.33569 1.12828 2.62399L8.97653 10.2341L1.12828 17.8441C0.839465 18.1341 0.679654 18.5224 0.683266 18.9255C0.686879 19.3286 0.853625 19.7142 1.14759 19.9993C1.44156 20.2843 1.83922 20.446 2.25493 20.4495C2.67065 20.453 3.07115 20.298 3.37018 20.018L12.3394 11.321C12.6366 11.0327 12.8036 10.6417 12.8036 10.2341C12.8036 9.8264 12.6366 9.43543 12.3394 9.14712L3.37018 0.450126C3.07285 0.161911 2.66965 0 2.24923 0C1.82881 0 1.4256 0.161911 1.12828 0.450126Z" fill="white"/>
</svg>
