<svg width="16" height="12" viewBox="0 0 16 12" fill="none" xmlns="http://www.w3.org/2000/svg">
<path fill-rule="evenodd" clip-rule="evenodd" d="M15.9139 5.75C15.9139 5.33579 15.5692 5 15.1439 5H0.77003C0.344753 5 0 5.33579 0 5.75C0 6.16421 0.344753 6.5 0.77003 6.5H15.1439C15.5692 6.5 15.9139 6.16421 15.9139 5.75Z" fill="#EC303A"/>
<path fill-rule="evenodd" clip-rule="evenodd" d="M15.9139 0.75C15.9139 0.335786 15.5692 0 15.1439 0H0.77003C0.344753 0 0 0.335786 0 0.75C0 1.16421 0.344753 1.5 0.77003 1.5H15.1439C15.5692 1.5 15.9139 1.16421 15.9139 0.75Z" fill="#EC303A"/>
<path fill-rule="evenodd" clip-rule="evenodd" d="M15.9139 10.75C15.9139 10.3358 15.5692 10 15.1439 10H0.77003C0.344753 10 0 10.3358 0 10.75C0 11.1642 0.344753 11.5 0.77003 11.5H15.1439C15.5692 11.5 15.9139 11.1642 15.9139 10.75Z" fill="#EC303A"/>
</svg>
