<svg width="35" height="35" viewBox="0 0 35 35" fill="none" xmlns="http://www.w3.org/2000/svg">
<path fill-rule="evenodd" clip-rule="evenodd" d="M19.4765 12.7604H5.83594C5.23188 12.7604 4.74219 12.2707 4.74219 11.6667C4.74219 11.0626 5.23188 10.5729 5.83594 10.5729H19.4765C19.9526 8.88963 21.5002 7.65625 23.3359 7.65625C25.1717 7.65625 26.7193 8.88963 27.1954 10.5729H29.1693C29.7733 10.5729 30.263 11.0626 30.263 11.6667C30.263 12.2707 29.7733 12.7604 29.1693 12.7604H27.1954C26.7193 14.4437 25.1717 15.6771 23.3359 15.6771C21.5002 15.6771 19.9526 14.4437 19.4765 12.7604ZM21.513 11.6667C21.513 10.6599 22.3292 9.84375 23.3359 9.84375C24.3427 9.84375 25.1589 10.6599 25.1589 11.6667C25.1589 12.6734 24.3427 13.4896 23.3359 13.4896C22.3292 13.4896 21.513 12.6734 21.513 11.6667Z" fill="#EC303A"/>
<path fill-rule="evenodd" clip-rule="evenodd" d="M15.5287 24.4271H29.1693C29.7733 24.4271 30.263 23.9374 30.263 23.3333C30.263 22.7293 29.7733 22.2396 29.1693 22.2396H15.5287C15.0526 20.5563 13.505 19.3229 11.6693 19.3229C9.83355 19.3229 8.28591 20.5563 7.80981 22.2396H5.83594C5.23188 22.2396 4.74219 22.7293 4.74219 23.3333C4.74219 23.9374 5.23188 24.4271 5.83594 24.4271H7.80981C8.28591 26.1104 9.83355 27.3438 11.6693 27.3438C13.505 27.3438 15.0526 26.1104 15.5287 24.4271ZM9.84635 23.3333C9.84635 22.3266 10.6625 21.5104 11.6693 21.5104C12.676 21.5104 13.4922 22.3266 13.4922 23.3333C13.4922 24.3401 12.676 25.1562 11.6693 25.1562C10.6625 25.1562 9.84635 24.3401 9.84635 23.3333Z" fill="#EC303A"/>
</svg>
