<svg width="78" height="78" viewBox="0 0 78 78" fill="none" xmlns="http://www.w3.org/2000/svg">
<g filter="url(#filter0_d_860_52935)">
<circle cx="39" cy="27" r="15" fill="#2F75EC"/>
<path fill-rule="evenodd" clip-rule="evenodd" d="M34.7807 22.772H43.199C43.675 22.7594 44.1405 22.9198 44.5169 23.2259L44.0372 23.5525L38.9741 26.9731L37.6562 26.0736C37.6291 26.0465 37.5967 26.0257 37.5613 26.0127L33.9399 23.5497L33.4629 23.2259C33.8337 22.9088 34.3031 22.7471 34.7807 22.772ZM33.1313 23.6514L33.5767 23.9558L37.0584 26.333L33.6083 30.0968L33.2341 30.5036C32.974 30.1223 32.8373 29.6635 32.844 29.1946L32.8466 24.7971C32.8429 24.3954 32.9411 23.9999 33.1313 23.6514ZM44.0044 30.4708L40.4858 26.6406L39.1416 27.5539L39.0968 27.576H39.0757C39.0539 27.5789 39.0317 27.5789 39.0098 27.576C38.988 27.5789 38.9658 27.5789 38.944 27.576H38.9229L38.8596 27.5539L37.526 26.6462L33.9889 30.4819L33.6094 30.8942C33.9575 31.1293 34.366 31.2462 34.7796 31.2291H43.2137C43.6257 31.2319 44.0295 31.1088 44.3761 30.8749L44.0044 30.4708ZM45.1492 24.8085V29.1977C45.1669 29.6656 45.0331 30.126 44.7697 30.5039L44.3928 30.0916L40.9453 26.3251L44.4244 23.9589L44.8724 23.6572C45.0651 24.0064 45.161 24.4051 45.1492 24.8085Z" fill="white"/>
</g>
<defs>
<filter id="filter0_d_860_52935" x="0" y="0" width="78" height="78" filterUnits="userSpaceOnUse" color-interpolation-filters="sRGB">
<feFlood flood-opacity="0" result="BackgroundImageFix"/>
<feColorMatrix in="SourceAlpha" type="matrix" values="0 0 0 0 0 0 0 0 0 0 0 0 0 0 0 0 0 0 127 0" result="hardAlpha"/>
<feOffset dy="12"/>
<feGaussianBlur stdDeviation="12"/>
<feColorMatrix type="matrix" values="0 0 0 0 0 0 0 0 0 0 0 0 0 0 0 0 0 0 0.1 0"/>
<feBlend mode="normal" in2="BackgroundImageFix" result="effect1_dropShadow_860_52935"/>
<feBlend mode="normal" in="SourceGraphic" in2="effect1_dropShadow_860_52935" result="shape"/>
</filter>
</defs>
</svg>
