<svg width="23" height="22" viewBox="0 0 23 22" fill="none" xmlns="http://www.w3.org/2000/svg">
<path d="M11.7005 8.93685C10.5614 8.93685 9.63802 9.86026 9.63802 10.9993C9.63802 12.1384 10.5614 13.0618 11.7005 13.0618C12.8396 13.0618 13.763 12.1384 13.763 10.9993C13.763 9.86026 12.8396 8.93685 11.7005 8.93685Z" fill="white"/>
<path fill-rule="evenodd" clip-rule="evenodd" d="M11.7005 5.04102C9.3009 5.04102 7.14286 6.00479 5.58784 7.19826C4.80931 7.79577 4.1705 8.45938 3.7223 9.10522C3.28264 9.73876 2.99219 10.4049 2.99219 10.9993C2.99219 11.5938 3.28264 12.2599 3.7223 12.8935C4.1705 13.5393 4.80931 14.2029 5.58784 14.8004C7.14286 15.9939 9.3009 16.9577 11.7005 16.9577C14.1001 16.9577 16.2582 15.9939 17.8132 14.8004C18.5917 14.2029 19.2305 13.5393 19.6787 12.8935C20.1184 12.2599 20.4089 11.5938 20.4089 10.9993C20.4089 10.4049 20.1184 9.73876 19.6787 9.10522C19.2305 8.45938 18.5917 7.79577 17.8132 7.19826C16.2582 6.00479 14.1001 5.04102 11.7005 5.04102ZM8.26302 10.9993C8.26302 9.10087 9.80204 7.56185 11.7005 7.56185C13.599 7.56185 15.138 9.10087 15.138 10.9993C15.138 12.8978 13.599 14.4368 11.7005 14.4368C9.80204 14.4368 8.26302 12.8978 8.26302 10.9993Z" fill="white"/>
</svg>
