<svg width="23" height="23" viewBox="0 0 23 23" fill="none" xmlns="http://www.w3.org/2000/svg">
<path d="M11.7005 9.39193C10.5614 9.39193 9.63802 10.3153 9.63802 11.4544C9.63802 12.5935 10.5614 13.5169 11.7005 13.5169C12.8396 13.5169 13.763 12.5935 13.763 11.4544C13.763 10.3153 12.8396 9.39193 11.7005 9.39193Z" fill="black"/>
<path fill-rule="evenodd" clip-rule="evenodd" d="M11.7005 5.49609C9.3009 5.49609 7.14286 6.45986 5.58784 7.65334C4.80931 8.25085 4.1705 8.91446 3.7223 9.5603C3.28264 10.1938 2.99219 10.86 2.99219 11.4544C2.99219 12.0489 3.28264 12.715 3.7223 13.3486C4.1705 13.9944 4.80931 14.658 5.58784 15.2555C7.14286 16.449 9.3009 17.4128 11.7005 17.4128C14.1001 17.4128 16.2582 16.449 17.8132 15.2555C18.5917 14.658 19.2305 13.9944 19.6787 13.3486C20.1184 12.715 20.4089 12.0489 20.4089 11.4544C20.4089 10.86 20.1184 10.1938 19.6787 9.5603C19.2305 8.91446 18.5917 8.25085 17.8132 7.65334C16.2582 6.45986 14.1001 5.49609 11.7005 5.49609ZM8.26302 11.4544C8.26302 9.55595 9.80204 8.01693 11.7005 8.01693C13.599 8.01693 15.138 9.55595 15.138 11.4544C15.138 13.3529 13.599 14.8919 11.7005 14.8919C9.80204 14.8919 8.26302 13.3529 8.26302 11.4544Z" fill="black"/>
</svg>
