<svg width="78" height="78" viewBox="0 0 78 78" fill="none" xmlns="http://www.w3.org/2000/svg">
<g filter="url(#filter0_d_860_52966)">
<circle cx="39" cy="27" r="15" fill="#6E6F72"/>
<path d="M32.6016 25.1996C32.6016 22.6591 34.6611 20.5996 37.2016 20.5996H42.8118C43.1432 20.5996 43.4118 20.8682 43.4118 21.1996C43.4118 21.531 43.1432 21.7996 42.8118 21.7996H37.2016C35.3238 21.7996 33.8016 23.3218 33.8016 25.1996V30.8851C33.8016 31.2165 33.5329 31.4851 33.2016 31.4851C32.8702 31.4851 32.6016 31.2165 32.6016 30.8851V25.1996Z" fill="white"/>
<path d="M44.7236 23.4342C42.1308 23.1444 39.4723 23.1444 36.8795 23.4342C36.1409 23.5168 35.5474 24.098 35.4603 24.8424C35.1528 27.4716 35.1528 30.1276 35.4603 32.7568C35.5474 33.5012 36.1409 34.0824 36.8795 34.165C39.4723 34.4548 42.1308 34.4548 44.7236 34.165C45.4622 34.0824 46.0558 33.5012 46.1428 32.7568C46.4503 30.1276 46.4503 27.4716 46.1428 24.8424C46.0558 24.098 45.4622 23.5168 44.7236 23.4342Z" fill="white"/>
</g>
<defs>
<filter id="filter0_d_860_52966" x="0" y="0" width="78" height="78" filterUnits="userSpaceOnUse" color-interpolation-filters="sRGB">
<feFlood flood-opacity="0" result="BackgroundImageFix"/>
<feColorMatrix in="SourceAlpha" type="matrix" values="0 0 0 0 0 0 0 0 0 0 0 0 0 0 0 0 0 0 127 0" result="hardAlpha"/>
<feOffset dy="12"/>
<feGaussianBlur stdDeviation="12"/>
<feColorMatrix type="matrix" values="0 0 0 0 0 0 0 0 0 0 0 0 0 0 0 0 0 0 0.1 0"/>
<feBlend mode="normal" in2="BackgroundImageFix" result="effect1_dropShadow_860_52966"/>
<feBlend mode="normal" in="SourceGraphic" in2="effect1_dropShadow_860_52966" result="shape"/>
</filter>
</defs>
</svg>
