<svg width="78" height="78" viewBox="0 0 78 78" fill="none" xmlns="http://www.w3.org/2000/svg">
<g filter="url(#filter0_d_860_52954)">
<circle cx="39" cy="27" r="15" fill="#007AB7"/>
<path fill-rule="evenodd" clip-rule="evenodd" d="M36.0265 24.8057H33.793V31.999H36.0265V24.8057ZM36.2078 22.5278C36.2078 21.8126 35.6266 21.2305 34.9125 21.2305C34.1943 21.2305 33.6172 21.8126 33.6172 22.5278C33.6172 23.2429 34.1943 23.8251 34.9125 23.8251C35.6266 23.8251 36.2078 23.2429 36.2078 22.5278ZM39.5678 24.8065H37.4338V31.9998H39.6632V28.4406C39.6632 27.505 39.8376 26.5944 41.0001 26.5944C42.1459 26.5944 42.1584 27.6672 42.1584 28.5029V31.9998H44.3878V28.058C44.3878 26.1204 43.9684 24.6318 41.71 24.6318C40.6223 24.6318 39.8957 25.2264 39.5968 25.7919H39.5678V24.8065Z" fill="white"/>
</g>
<defs>
<filter id="filter0_d_860_52954" x="0" y="0" width="78" height="78" filterUnits="userSpaceOnUse" color-interpolation-filters="sRGB">
<feFlood flood-opacity="0" result="BackgroundImageFix"/>
<feColorMatrix in="SourceAlpha" type="matrix" values="0 0 0 0 0 0 0 0 0 0 0 0 0 0 0 0 0 0 127 0" result="hardAlpha"/>
<feOffset dy="12"/>
<feGaussianBlur stdDeviation="12"/>
<feColorMatrix type="matrix" values="0 0 0 0 0 0 0 0 0 0 0 0 0 0 0 0 0 0 0.1 0"/>
<feBlend mode="normal" in2="BackgroundImageFix" result="effect1_dropShadow_860_52954"/>
<feBlend mode="normal" in="SourceGraphic" in2="effect1_dropShadow_860_52954" result="shape"/>
</filter>
</defs>
</svg>
