<svg width="78" height="78" viewBox="0 0 78 78" fill="none" xmlns="http://www.w3.org/2000/svg">
<g filter="url(#filter0_d_860_52949)">
<circle cx="39" cy="27" r="15" fill="#00AEF3"/>
<path fill-rule="evenodd" clip-rule="evenodd" d="M45.306 27.0681C45.306 27.5211 45.2559 27.9625 45.1616 28.3877C45.402 28.8649 45.5379 29.4024 45.5379 29.9716C45.5379 31.9412 43.9186 33.5379 41.9209 33.5379C41.3024 33.5379 40.7202 33.3845 40.211 33.1147C39.8408 33.1823 39.4591 33.2179 39.0689 33.2179C35.6243 33.2179 32.8319 30.4644 32.8319 27.068C32.8319 26.6443 32.8754 26.2308 32.9581 25.8313C32.6426 25.3019 32.4609 24.6857 32.4609 24.0273C32.4609 22.0579 34.0803 20.4609 36.078 20.4609C36.7854 20.4609 37.4449 20.6619 38.0023 21.0082C38.349 20.9492 38.7053 20.9182 39.0689 20.9182C42.5136 20.9182 45.306 23.6717 45.306 27.0681ZM41.0009 30.9555C41.5532 30.7291 41.9795 30.41 42.2681 30.0074C42.5576 29.6033 42.7045 29.1416 42.7045 28.6349C42.7045 28.2115 42.6193 27.8471 42.451 27.5519C42.2831 27.2578 42.0466 27.0115 41.7478 26.8196C41.4551 26.6319 41.0962 26.4702 40.6808 26.3392C40.6122 26.3175 40.5415 26.2962 40.4699 26.2752C40.1137 26.1703 39.7223 26.0723 39.302 25.9833C38.9032 25.8925 38.6124 25.8222 38.439 25.7748C38.2698 25.7287 38.1009 25.6642 37.937 25.5829C37.7789 25.505 37.6539 25.4112 37.5653 25.3045C37.4816 25.2037 37.4409 25.0866 37.4409 24.9465C37.4409 24.718 37.5673 24.5252 37.8275 24.357C38.0974 24.1825 38.461 24.094 38.9081 24.094C39.3895 24.094 39.7399 24.1738 39.9494 24.331C40.1654 24.4928 40.3536 24.7225 40.5091 25.0139C40.6435 25.2421 40.7646 25.4007 40.8813 25.5025C41.0068 25.612 41.1876 25.6676 41.4185 25.6676C41.6728 25.6676 41.8883 25.5787 42.0591 25.4037C42.2289 25.2296 42.3149 25.0299 42.3149 24.8102C42.3149 24.5819 42.2493 24.3458 42.1199 24.1087C41.9917 23.8739 41.7877 23.6478 41.5134 23.4364C41.2411 23.2267 40.8945 23.0562 40.4834 22.93C40.0747 22.8046 39.5849 22.7412 39.0279 22.7412C38.3312 22.7412 37.7155 22.8368 37.1979 23.0256C36.6735 23.2169 36.2662 23.4956 35.9873 23.8543C35.7062 24.2156 35.5638 24.6343 35.5638 25.0989C35.5638 25.5863 35.6995 26.0009 35.9673 26.3314C36.231 26.6569 36.5915 26.917 37.0387 27.1045L37.0438 27.1066C37.4804 27.2892 38.0285 27.4508 38.6733 27.5869C39.1493 27.6852 39.5341 27.7792 39.8176 27.8663C40.0895 27.9499 40.3134 28.0717 40.4831 28.2282C40.6452 28.378 40.724 28.5688 40.724 28.8115C40.724 29.1188 40.573 29.3698 40.2625 29.5789C39.9445 29.793 39.5217 29.9016 39.0061 29.9016C38.6312 29.9016 38.3264 29.8481 38.1003 29.7425C37.8755 29.6378 37.6995 29.5035 37.5772 29.3439C37.4499 29.1779 37.3294 28.9671 37.2189 28.7175C37.1199 28.4883 36.9967 28.3108 36.8532 28.1908C36.7029 28.0656 36.518 28.0022 36.3037 28.0022C36.0426 28.0022 35.8236 28.0825 35.6528 28.241C35.4801 28.4008 35.3926 28.5962 35.3926 28.8216C35.3926 29.1821 35.527 29.556 35.7919 29.9329C36.0542 30.3059 36.3998 30.6082 36.8188 30.8314C37.405 31.138 38.156 31.2933 39.0519 31.2933C39.7982 31.2933 40.4539 31.1797 41.0009 30.9555Z" fill="white"/>
</g>
<defs>
<filter id="filter0_d_860_52949" x="0" y="0" width="78" height="78" filterUnits="userSpaceOnUse" color-interpolation-filters="sRGB">
<feFlood flood-opacity="0" result="BackgroundImageFix"/>
<feColorMatrix in="SourceAlpha" type="matrix" values="0 0 0 0 0 0 0 0 0 0 0 0 0 0 0 0 0 0 127 0" result="hardAlpha"/>
<feOffset dy="12"/>
<feGaussianBlur stdDeviation="12"/>
<feColorMatrix type="matrix" values="0 0 0 0 0 0 0 0 0 0 0 0 0 0 0 0 0 0 0.1 0"/>
<feBlend mode="normal" in2="BackgroundImageFix" result="effect1_dropShadow_860_52949"/>
<feBlend mode="normal" in="SourceGraphic" in2="effect1_dropShadow_860_52949" result="shape"/>
</filter>
</defs>
</svg>
