<svg width="78" height="78" viewBox="0 0 78 78" fill="none" xmlns="http://www.w3.org/2000/svg">
<g filter="url(#filter0_d_860_52942)">
<circle cx="39" cy="27" r="15" fill="#45AEE4"/>
<path fill-rule="evenodd" clip-rule="evenodd" d="M35.2703 28.0149L32.2111 26.8107C31.9004 26.6879 31.8977 26.2252 32.2075 26.0992L44.7626 20.991C45.0288 20.8824 45.3034 21.1284 45.2455 21.4232L42.9924 32.8536C42.9392 33.1235 42.6392 33.2459 42.4275 33.0835L39.3518 30.7284C39.165 30.5854 38.9104 30.593 38.7316 30.7467L37.0264 32.2128C36.8284 32.3835 36.5302 32.2884 36.4544 32.0312L35.2703 28.0149ZM42.2416 23.4903L36.2627 27.374C36.0336 27.5232 35.9257 27.815 35.9997 28.0883L36.6461 30.4839C36.692 30.6537 36.9257 30.6363 36.9479 30.4609L37.116 29.1471C37.1477 28.8998 37.2596 28.6719 37.433 28.5016L42.3673 23.6642C42.4596 23.5739 42.349 23.4207 42.2416 23.4903Z" fill="white"/>
<path d="M36.2627 27.372L42.2416 23.4883C42.349 23.4187 42.4596 23.5719 42.3673 23.6622L37.433 28.4997C37.2596 28.67 37.1477 28.8978 37.116 29.1452L36.9479 30.4589C36.9257 30.6343 36.692 30.6517 36.6461 30.482L35.9997 28.0863C35.9257 27.8131 36.0336 27.5212 36.2627 27.372Z" fill="#EAEAEA"/>
</g>
<defs>
<filter id="filter0_d_860_52942" x="0" y="0" width="78" height="78" filterUnits="userSpaceOnUse" color-interpolation-filters="sRGB">
<feFlood flood-opacity="0" result="BackgroundImageFix"/>
<feColorMatrix in="SourceAlpha" type="matrix" values="0 0 0 0 0 0 0 0 0 0 0 0 0 0 0 0 0 0 127 0" result="hardAlpha"/>
<feOffset dy="12"/>
<feGaussianBlur stdDeviation="12"/>
<feColorMatrix type="matrix" values="0 0 0 0 0 0 0 0 0 0 0 0 0 0 0 0 0 0 0.1 0"/>
<feBlend mode="normal" in2="BackgroundImageFix" result="effect1_dropShadow_860_52942"/>
<feBlend mode="normal" in="SourceGraphic" in2="effect1_dropShadow_860_52942" result="shape"/>
</filter>
</defs>
</svg>
