<svg width="78" height="78" viewBox="0 0 78 78" fill="none" xmlns="http://www.w3.org/2000/svg">
<g filter="url(#filter0_d_860_52982)">
<circle cx="39" cy="27" r="15" fill="#2AA3EF"/>
<path fill-rule="evenodd" clip-rule="evenodd" d="M45.1514 23.1837C44.6989 23.3844 44.2116 23.5201 43.7011 23.5815C44.2225 23.2687 44.6229 22.7743 44.8111 22.185C44.3231 22.4743 43.783 22.6843 43.2073 22.7972C42.7468 22.3065 42.0908 22 41.3646 22C39.97 22 38.839 23.1301 38.839 24.5245C38.839 24.7231 38.8622 24.9152 38.9049 25.1002C36.8066 24.9952 34.9464 23.9894 33.701 22.4622C33.4831 22.8351 33.3593 23.2687 33.3593 23.7316C33.3593 24.6073 33.8053 25.3802 34.4823 25.8324C34.0681 25.8196 33.6786 25.706 33.339 25.5167C33.339 25.5274 33.339 25.5381 33.339 25.5488C33.339 26.7718 34.2086 27.7918 35.3642 28.024C35.1521 28.0819 34.9298 28.1126 34.6988 28.1126C34.5366 28.1126 34.378 28.0969 34.2238 28.0669C34.5453 29.0698 35.4779 29.7998 36.5828 29.8206C35.7183 30.497 34.6293 30.9006 33.4462 30.9006C33.2427 30.9006 33.0414 30.8892 32.8438 30.8656C33.961 31.5821 35.2882 32 36.7146 32C41.3588 32 43.8988 28.1533 43.8988 24.8173C43.8988 24.7073 43.8959 24.5995 43.8916 24.4909C44.3847 24.1352 44.8133 23.6901 45.1514 23.1844V23.1837Z" fill="white"/>
</g>
<defs>
<filter id="filter0_d_860_52982" x="0" y="0" width="78" height="78" filterUnits="userSpaceOnUse" color-interpolation-filters="sRGB">
<feFlood flood-opacity="0" result="BackgroundImageFix"/>
<feColorMatrix in="SourceAlpha" type="matrix" values="0 0 0 0 0 0 0 0 0 0 0 0 0 0 0 0 0 0 127 0" result="hardAlpha"/>
<feOffset dy="12"/>
<feGaussianBlur stdDeviation="12"/>
<feColorMatrix type="matrix" values="0 0 0 0 0 0 0 0 0 0 0 0 0 0 0 0 0 0 0.1 0"/>
<feBlend mode="normal" in2="BackgroundImageFix" result="effect1_dropShadow_860_52982"/>
<feBlend mode="normal" in="SourceGraphic" in2="effect1_dropShadow_860_52982" result="shape"/>
</filter>
</defs>
</svg>
