<svg width="78" height="78" viewBox="0 0 78 78" fill="none" xmlns="http://www.w3.org/2000/svg">
<g filter="url(#filter0_d_860_52977)">
<circle cx="39" cy="27" r="15" fill="#F52929"/>
<path fill-rule="evenodd" clip-rule="evenodd" d="M45.232 22.4249C45.6378 22.8899 45.781 23.9424 45.781 23.9424C45.781 23.9424 45.9243 25.1906 45.9243 26.4389V27.5892C45.9243 28.813 45.781 30.0612 45.781 30.0612C45.781 30.0612 45.6378 31.1137 45.232 31.5787C44.7325 32.1373 44.1683 32.1869 43.8883 32.2114C43.8739 32.2127 43.8602 32.2139 43.8474 32.2151C41.9137 32.3864 39.0012 32.3864 39.0012 32.3864C39.0012 32.3864 35.3964 32.3619 34.2983 32.2396C34.2399 32.2258 34.1681 32.2155 34.0864 32.2037C33.7335 32.1529 33.1969 32.0756 32.7704 31.5788C32.3646 31.1137 32.2214 30.0613 32.2214 30.0613C32.2214 30.0613 32.0781 28.8375 32.0781 27.5892V26.4389C32.0781 25.1906 32.2214 23.9424 32.2214 23.9424C32.2214 23.9424 32.3407 22.8899 32.7704 22.4249C33.2699 21.8663 33.8341 21.8167 34.1141 21.7922C34.1285 21.7909 34.1422 21.7897 34.155 21.7885C36.0887 21.6417 39.0012 21.6172 39.0012 21.6172C39.0012 21.6172 41.9137 21.6417 43.8474 21.7885C43.8673 21.7904 43.8892 21.7921 43.9128 21.7939C44.2002 21.8165 44.7466 21.8594 45.232 22.4249ZM37.332 29.8405V24.5293L41.8678 27.2461L37.332 29.8405Z" fill="white"/>
</g>
<defs>
<filter id="filter0_d_860_52977" x="0" y="0" width="78" height="78" filterUnits="userSpaceOnUse" color-interpolation-filters="sRGB">
<feFlood flood-opacity="0" result="BackgroundImageFix"/>
<feColorMatrix in="SourceAlpha" type="matrix" values="0 0 0 0 0 0 0 0 0 0 0 0 0 0 0 0 0 0 127 0" result="hardAlpha"/>
<feOffset dy="12"/>
<feGaussianBlur stdDeviation="12"/>
<feColorMatrix type="matrix" values="0 0 0 0 0 0 0 0 0 0 0 0 0 0 0 0 0 0 0.1 0"/>
<feBlend mode="normal" in2="BackgroundImageFix" result="effect1_dropShadow_860_52977"/>
<feBlend mode="normal" in="SourceGraphic" in2="effect1_dropShadow_860_52977" result="shape"/>
</filter>
</defs>
</svg>
