<svg width="27" height="27" viewBox="0 0 27 27" fill="none" xmlns="http://www.w3.org/2000/svg">
<circle cx="13.5" cy="13.5" r="13" stroke="#EC303A"/>
<path d="M12.6515 10.464C12.9078 10.2078 12.9078 9.79224 12.6515 9.53596C12.3953 9.27968 11.9797 9.27968 11.7235 9.53596L8.22346 13.036C8.09532 13.1641 8.03125 13.3321 8.03125 13.5C8.03125 13.589 8.04896 13.6738 8.08105 13.7512C8.11307 13.8286 8.16054 13.9011 8.22346 13.964L11.7235 17.464C11.9797 17.7203 12.3953 17.7203 12.6515 17.464C12.9078 17.2078 12.9078 16.7922 12.6515 16.536L10.2718 14.1562H18.75C19.1124 14.1562 19.4062 13.8624 19.4062 13.5C19.4062 13.1376 19.1124 12.8438 18.75 12.8438H10.2718L12.6515 10.464Z" fill="#EC303A"/>
</svg>
