<svg width="34" height="34" viewBox="0 0 34 34" fill="none" xmlns="http://www.w3.org/2000/svg">
<path d="M22.7608 12.7435C23.1758 12.3286 23.1758 11.6558 22.7608 11.2409C22.3459 10.826 21.6732 10.826 21.2582 11.2409L17.0009 15.4983L12.7435 11.2409C12.3286 10.826 11.6558 10.826 11.2409 11.2409C10.826 11.6558 10.826 12.3286 11.2409 12.7435L15.4983 17.0009L11.2409 21.2582C10.826 21.6732 10.826 22.3459 11.2409 22.7608C11.6558 23.1758 12.3286 23.1758 12.7435 22.7608L17.0009 18.5035L21.2582 22.7608C21.6732 23.1758 22.3459 23.1758 22.7608 22.7608C23.1758 22.3459 23.1758 21.6732 22.7608 21.2582L18.5035 17.0009L22.7608 12.7435Z" fill="black"/>
</svg>
