<svg width="22" height="22" viewBox="0 0 22 22" fill="none" xmlns="http://www.w3.org/2000/svg">
<circle cx="11" cy="11" r="10.5" stroke="#D9D9D9"/>
<path d="M8.23714 7C6.48918 7 5 8.2906 5 9.96677C5 11.1231 5.54833 12.0966 6.27505 12.903C6.99927 13.7067 7.93363 14.3812 8.77833 14.9458L10.2357 15.92C10.3953 16.0267 10.6047 16.0267 10.7643 15.92L12.2217 14.9458C13.0664 14.3812 14.0007 13.7067 14.7249 12.903C15.4517 12.0966 16 11.1231 16 9.96677C16 8.2906 14.5108 7 12.7629 7C11.8618 7 11.069 7.41719 10.5 7.957C9.93104 7.41719 9.13818 7 8.23714 7Z" fill="#F70D4D"/>
</svg>
