<svg width="20" height="21" viewBox="0 0 20 21" fill="none" xmlns="http://www.w3.org/2000/svg">
<path d="M9.53815 10.2297C12.3638 10.2297 14.6544 7.93968 14.6544 5.11483C14.6544 2.28999 12.3638 0 9.53815 0C6.71251 0 4.42188 2.28999 4.42188 5.11483C4.42188 7.93968 6.71251 10.2297 9.53815 10.2297Z" fill="#2B2B2B"/>
<path fill-rule="evenodd" clip-rule="evenodd" d="M17.5854 11.6653L11.6654 17.5836C11.3928 17.8552 11.3928 18.2978 11.6654 18.5694C11.937 18.8419 12.3798 18.8419 12.6514 18.5694L18.5714 12.6511C18.844 12.3795 18.844 11.9368 18.5714 11.6653C18.2998 11.3928 17.857 11.3928 17.5854 11.6653Z" fill="#2B2B2B"/>
<path fill-rule="evenodd" clip-rule="evenodd" d="M15.1181 10.2363C12.4223 10.2363 10.2344 12.4236 10.2344 15.1187C10.2344 17.8137 12.4223 20.001 15.1181 20.001C17.8139 20.001 20.0018 17.8137 20.0018 15.1187C20.0018 12.4236 17.8139 10.2363 15.1181 10.2363ZM15.1181 11.6313C17.0437 11.6313 18.6065 13.1936 18.6065 15.1187C18.6065 17.0437 17.0437 18.6061 15.1181 18.6061C13.1925 18.6061 11.6297 17.0437 11.6297 15.1187C11.6297 13.1936 13.1925 11.6313 15.1181 11.6313Z" fill="#2B2B2B"/>
<path fill-rule="evenodd" clip-rule="evenodd" d="M10.8605 19.0755C9.89395 18.0376 9.30233 16.6464 9.30233 15.1175C9.30233 13.5524 9.92279 12.1305 10.9312 11.0852C10.4753 11.0498 10.0093 11.0312 9.53488 11.0312C6.44465 11.0312 3.70884 11.8041 2.01023 12.9619C0.714419 13.8453 0 14.9678 0 16.1461V17.4945C0 17.914 0.166512 18.3166 0.463256 18.6124C0.76 18.909 1.16186 19.0755 1.5814 19.0755H10.8605Z" fill="#2B2B2B"/>
</svg>
