<svg width="27" height="27" viewBox="0 0 27 27" fill="none" xmlns="http://www.w3.org/2000/svg">
<path d="M13.0899 5.66016C13.5797 5.66016 13.9768 6.0572 13.9768 6.54698C13.9768 7.03676 13.5797 7.43381 13.0899 7.43381C12.6002 7.43381 12.2031 7.03676 12.2031 6.54698C12.2031 6.0572 12.6002 5.66016 13.0899 5.66016ZM13.0899 12.2075C13.5797 12.2075 13.9768 12.6045 13.9768 13.0943C13.9768 13.5841 13.5797 13.9811 13.0899 13.9811C12.6002 13.9811 12.2031 13.5841 12.2031 13.0943C12.2031 12.6045 12.6002 12.2075 13.0899 12.2075ZM13.0899 18.7548C13.5797 18.7548 13.9768 19.1518 13.9768 19.6416C13.9768 20.1314 13.5797 20.5284 13.0899 20.5284C12.6002 20.5284 12.2031 20.1314 12.2031 19.6416C12.2031 19.1518 12.6002 18.7548 13.0899 18.7548Z" fill="#2B2B2B" stroke="#2B2B2B" stroke-width="1.5"/>
</svg>
