<svg width="28" height="28" viewBox="0 0 28 28" fill="none" xmlns="http://www.w3.org/2000/svg">
<path fill-rule="evenodd" clip-rule="evenodd" d="M6.75127 16.3556C6.80234 16.3728 6.85389 16.385 6.90538 16.3925C6.96154 16.5244 7.0341 16.6952 7.11875 16.8948C7.32534 17.382 7.60369 18.041 7.89102 18.7285C8.47697 20.1304 9.06802 21.5756 9.19855 21.9893C9.36015 22.5007 9.53096 22.8483 9.71743 23.0857C9.81385 23.2084 9.92536 23.3156 10.0558 23.3967C10.1215 23.4376 10.1909 23.4711 10.2633 23.496C10.2665 23.4971 10.2697 23.4982 10.2729 23.4993C10.6463 23.6402 10.9866 23.5815 11.1998 23.5097C11.3138 23.4713 11.4061 23.4249 11.4714 23.3873C11.5048 23.3682 11.533 23.3503 11.5554 23.3352L11.5607 23.3316L14.858 21.2754L18.6666 24.1953C18.7228 24.2384 18.7841 24.2745 18.849 24.3029C19.3065 24.5025 19.7496 24.5722 20.1664 24.5152C20.5825 24.4584 20.9129 24.2836 21.1588 24.0869C21.3996 23.8942 21.5628 23.6784 21.6645 23.5181C21.7164 23.4362 21.7554 23.3638 21.7829 23.3083C21.7967 23.2804 21.8078 23.2564 21.8164 23.2371L21.8274 23.2117L21.8315 23.2017L21.8333 23.1974L21.8341 23.1955L21.8348 23.1936C21.8548 23.1436 21.8702 23.0918 21.8806 23.039L25.3576 5.50921C25.3687 5.45315 25.3743 5.39613 25.3743 5.33898C25.3743 4.82563 25.1809 4.33749 24.7261 4.04128C24.3373 3.78812 23.9043 3.77722 23.6306 3.798C23.3354 3.8204 23.0627 3.89328 22.8798 3.95152C22.7846 3.98182 22.7047 4.01106 22.6472 4.03337C22.6183 4.04458 22.5945 4.0542 22.5769 4.06154L22.5636 4.06712L3.06427 11.7164L3.06175 11.7173C3.04932 11.7219 3.03337 11.7278 3.01441 11.7352C2.97665 11.7499 2.92606 11.7706 2.86697 11.7974C2.75172 11.8496 2.59004 11.9312 2.42413 12.0449C2.15908 12.2264 1.54951 12.7235 1.65215 13.544C1.73404 14.1986 2.18248 14.6006 2.4557 14.7939C2.60573 14.9001 2.74825 14.976 2.85205 15.0254C2.90021 15.0483 3.00018 15.089 3.04357 15.1066L3.05451 15.111L6.75127 16.3556ZM23.246 5.67852L23.2433 5.67971C23.2336 5.68393 23.2238 5.68797 23.214 5.69184L3.69095 13.3504C3.68075 13.3544 3.67048 13.3582 3.66015 13.3618L3.64928 13.366C3.63679 13.3708 3.61576 13.3794 3.58937 13.3913C3.57441 13.3981 3.55879 13.4055 3.54286 13.4135C3.56474 13.4258 3.58568 13.4365 3.60428 13.4453C3.62214 13.4538 3.63577 13.4597 3.64323 13.4627L7.30963 14.697C7.37674 14.7196 7.4393 14.7496 7.49672 14.7856L19.603 7.69874L19.6143 7.69204C19.6231 7.68683 19.6347 7.68013 19.6486 7.67229C19.6761 7.65671 19.714 7.63597 19.759 7.61306C19.843 7.57029 19.9775 7.50681 20.1289 7.46001C20.2343 7.42742 20.5452 7.33562 20.8813 7.44342C21.0888 7.50996 21.3036 7.653 21.4432 7.89533C21.5126 8.01572 21.5496 8.13665 21.5675 8.24735C21.6151 8.42175 21.6076 8.59396 21.5703 8.74263C21.4901 9.06289 21.2651 9.3127 21.0604 9.50377C20.885 9.66759 18.6153 11.8561 16.3763 14.0165C15.2598 15.0938 14.1546 16.1606 13.3286 16.958L12.786 17.4817L19.6366 22.7339C19.7937 22.7901 19.8866 22.7872 19.9296 22.7814C19.9808 22.7744 20.0227 22.7547 20.0655 22.7204C20.1133 22.6821 20.1552 22.6304 20.1865 22.5811L20.1878 22.579L23.56 5.5772C23.5099 5.58923 23.4594 5.60356 23.4106 5.61908C23.3553 5.63666 23.3098 5.65341 23.2796 5.66512C23.2646 5.67091 23.2539 5.67531 23.248 5.67773L23.246 5.67852ZM13.3745 20.1381L12.0078 19.0902L11.6766 21.1969L13.3745 20.1381ZM10.754 17.011L12.1132 15.6989C12.9393 14.9014 14.0445 13.8346 15.1612 12.7571L16.2958 11.6625L8.68909 16.1154L8.72991 16.2117C8.93723 16.7006 9.21682 17.3625 9.50567 18.0536C9.72165 18.5704 9.94751 19.1145 10.1532 19.6183L10.4834 17.5178C10.5153 17.3153 10.6142 17.14 10.754 17.011Z" fill="white"/>
</svg>
