<svg width="20" height="20" viewBox="0 0 20 20" fill="none" xmlns="http://www.w3.org/2000/svg">
<path d="M9.99998 0C4.48002 0 0 4.48002 0 9.99998C0 15.5199 4.48002 20 9.99998 20C15.5199 20 20 15.5199 20 9.99998C20 4.48002 15.52 0 9.99998 0ZM2.82665 9.99998C2.82665 6.02665 6.0533 2.8 9.99998 2.8C11.4933 2.8 12.9067 3.25335 14.0533 4.05332L4.08001 14.0533C3.28 12.9067 2.82665 11.4933 2.82665 9.99998ZM9.99998 17.1733C8.50664 17.1733 7.09329 16.72 5.94666 15.92L15.92 5.94666C16.72 7.09334 17.1733 8.50664 17.1733 9.99998C17.1733 13.9733 13.9733 17.1733 9.99998 17.1733Z" fill="#D15241"/>
</svg>
