<svg width="30" height="22" viewBox="0 0 30 22" fill="none" xmlns="http://www.w3.org/2000/svg">
<path d="M12.3973 5.0801L11.4267 4.17422C11.3385 4.10951 11.2502 4.04481 11.1179 4.04481C10.9855 4.04481 10.8532 4.07716 10.765 4.14187L8.82377 5.50069C8.73554 5.5654 8.6473 5.69481 8.69142 5.79187L10.765 13.7183C10.8091 13.8801 10.9855 13.9772 11.2061 13.9772H11.515V14.4301C11.515 15.0772 12.2208 15.5948 13.1032 15.5948H13.3679V17.2448C12.3532 17.4713 11.6914 18.1183 11.6914 18.8948C11.6914 19.0889 11.8679 19.2183 12.1326 19.2183H12.6179V21.3536C12.6179 21.5477 12.7944 21.6772 13.0591 21.6772C13.3238 21.6772 13.5002 21.5477 13.5002 21.3536V19.2183H16.5002V21.3536C16.5002 21.5477 16.6767 21.6772 16.9414 21.6772C17.2061 21.6772 17.3826 21.5477 17.3826 21.3536V19.2183H17.8679C18.1326 19.2183 18.3091 19.0566 18.3091 18.8948C18.3091 18.1183 17.6032 17.4713 16.6767 17.2772V15.6272H16.9414C17.8238 15.6272 18.5297 15.1095 18.5297 14.4625V14.0095H18.8385C19.0591 14.0095 19.2355 13.9125 19.2797 13.7507L21.3532 5.82422C21.3973 5.72716 21.3532 5.59775 21.2208 5.53304L19.2797 4.17422C19.1914 4.10951 19.0591 4.07716 18.9267 4.07716C18.7944 4.07716 18.7061 4.14187 18.6179 4.20657L17.5591 5.17716L15.3973 3.20363V2.68598C16.1032 2.55657 16.5885 2.07128 16.5885 1.52128C16.5885 0.841866 15.8385 0.324219 14.9561 0.324219C14.0738 0.324219 13.3238 0.874219 13.3238 1.52128C13.3238 2.07128 13.8091 2.52422 14.515 2.68598V3.17128L12.3973 5.0801ZM14.2061 13.3301L12.8385 5.69481L14.912 3.78598L17.0738 5.75951L15.7061 13.3301H14.2061ZM9.61789 5.85657L11.0297 4.85363L11.9561 5.69481L13.3238 13.2977C13.2797 13.2977 11.515 13.2977 11.5591 13.2977L9.61789 5.85657ZM17.3826 18.5713C16.765 18.5713 12.5738 18.5713 12.6179 18.5713C12.7944 18.1507 13.3679 17.8272 13.9855 17.8272H15.9708C16.6326 17.8272 17.2061 18.1507 17.3826 18.5713ZM15.7944 17.1801H14.2061V15.5948H15.7944V17.1801ZM17.6032 14.4301C17.6032 14.7213 17.2944 14.9477 16.8973 14.9477C15.4855 14.9477 14.4267 14.9477 13.0591 14.9477C12.662 14.9477 12.3532 14.7213 12.3532 14.4301V13.9772H17.6032V14.4301ZM18.9708 4.85363L20.3826 5.85657L18.4414 13.3301C18.265 13.3301 16.5002 13.3301 16.5885 13.3301L17.9561 5.79187L18.9708 4.85363ZM14.162 1.52128C14.162 1.2301 14.515 0.971278 14.912 0.971278C15.3091 0.971278 15.662 1.2301 15.662 1.52128C15.662 1.81245 15.3091 2.07128 14.912 2.07128C14.515 2.07128 14.162 1.84481 14.162 1.52128Z" fill="#7FAA39"/>
</svg>
