<svg width="18" height="18" viewBox="0 0 18 18" fill="none" xmlns="http://www.w3.org/2000/svg">
<path d="M11.25 3.93743C11.1008 3.93743 10.9577 3.87817 10.8523 3.77268C10.7468 3.66719 10.6875 3.52412 10.6875 3.37493V2.49631L10.6464 2.51206C9.58389 2.90451 8.41611 2.90451 7.35356 2.51206L7.3125 2.49631V3.37493C7.3125 3.52412 7.25324 3.66719 7.14775 3.77268C7.04226 3.87817 6.89918 3.93743 6.75 3.93743C6.60082 3.93743 6.45774 3.87817 6.35225 3.77268C6.24676 3.66719 6.1875 3.52412 6.1875 3.37493V1.68743C6.18751 1.59666 6.20949 1.50723 6.25156 1.42679C6.29364 1.34636 6.35455 1.2773 6.42911 1.22551C6.50366 1.17373 6.58964 1.14075 6.67971 1.12941C6.76977 1.11807 6.86124 1.12869 6.94631 1.16037L7.74563 1.45737C8.55508 1.75673 9.44492 1.75673 10.2544 1.45737L11.0543 1.16037C11.1393 1.1288 11.2307 1.11827 11.3207 1.12967C11.4107 1.14107 11.4966 1.17406 11.5711 1.22583C11.6455 1.2776 11.7064 1.34662 11.7484 1.427C11.7905 1.50737 11.8125 1.59672 11.8125 1.68743V3.37493C11.8125 3.52412 11.7532 3.66719 11.6477 3.77268C11.5423 3.87817 11.3992 3.93743 11.25 3.93743Z" fill="#803BC1"/>
<path d="M9.00018 4.50043C8.43808 4.50062 7.88048 4.40023 7.35374 4.20399L6.55387 3.90699C6.48359 3.88202 6.41897 3.84332 6.36379 3.79315C6.3086 3.74297 6.26394 3.68232 6.23241 3.61473C6.20089 3.54713 6.18311 3.47394 6.18014 3.39942C6.17716 3.32489 6.18903 3.25051 6.21506 3.18062C6.2411 3.11072 6.28077 3.0467 6.33178 2.99228C6.38279 2.93786 6.44411 2.89413 6.51217 2.86363C6.58024 2.83313 6.65369 2.81647 6.72825 2.81463C6.80282 2.81278 6.877 2.82578 6.94649 2.85287L7.74581 3.14987C8.55527 3.44923 9.4451 3.44923 10.2546 3.14987L11.0539 2.85287C11.1917 2.80881 11.3413 2.81952 11.4714 2.8828C11.6016 2.94607 11.7024 3.05704 11.7529 3.19267C11.8035 3.3283 11.7998 3.47818 11.7427 3.61119C11.6857 3.7442 11.5796 3.85013 11.4465 3.90699L10.6466 4.20456C10.1198 4.40032 9.56221 4.5009 9.00018 4.50043Z" fill="#803BC1"/>
<path d="M3.37521 15.7482H3.04558C2.7195 15.749 2.39648 15.6852 2.09524 15.5603C1.79399 15.4355 1.5205 15.2521 1.29058 15.0209C1.23182 14.9624 1.18672 14.8916 1.15852 14.8136C1.13032 14.7356 1.11971 14.6523 1.12746 14.5698L1.93746 6.11369C1.94066 6.07942 1.94706 6.04552 1.95658 6.01244C2.07794 5.58962 2.28566 5.19655 2.56663 4.85808C2.8476 4.5196 3.1957 4.24307 3.58896 4.04594C3.61427 4.03357 3.67446 4.00376 6.54096 2.85344C6.67948 2.79795 6.83437 2.79975 6.97156 2.85845C7.10875 2.91716 7.21699 3.02796 7.27249 3.16647C7.32799 3.30499 7.32618 3.45988 7.26748 3.59707C7.20878 3.73426 7.09798 3.84251 6.95946 3.89801C5.99625 4.28289 5.03418 4.67065 4.07327 5.06126C3.83071 5.18537 3.61543 5.35676 3.4401 5.56532C3.26477 5.77389 3.13293 6.01541 3.05233 6.27569L2.27608 14.3836C2.50108 14.5377 2.77108 14.6232 3.04558 14.6232H3.37521C3.52439 14.6232 3.66747 14.6825 3.77296 14.7879C3.87845 14.8934 3.93771 15.0365 3.93771 15.1857C3.93771 15.3349 3.87845 15.478 3.77296 15.5834C3.66747 15.6889 3.52439 15.7482 3.37521 15.7482ZM14.9548 15.7482H14.6252C14.476 15.7482 14.333 15.6889 14.2275 15.5834C14.122 15.478 14.0627 15.3349 14.0627 15.1857C14.0627 15.0365 14.122 14.8934 14.2275 14.7879C14.333 14.6825 14.476 14.6232 14.6252 14.6232H14.9548C15.2338 14.6232 15.4999 14.5394 15.7255 14.3847L14.9492 6.27569C14.8667 6.01229 14.7321 5.76818 14.5533 5.5579C14.3746 5.34762 14.1553 5.17547 13.9086 5.05169C13.8101 5.00951 12.1367 4.33676 11.041 3.89744C10.9709 3.87104 10.9068 3.83093 10.8525 3.77945C10.7982 3.72797 10.7547 3.66616 10.7245 3.59765C10.6944 3.52914 10.6782 3.4553 10.6769 3.38046C10.6757 3.30561 10.6894 3.23128 10.7172 3.1618C10.7451 3.09232 10.7865 3.0291 10.8391 2.97584C10.8917 2.92258 10.9544 2.88036 11.0236 2.85164C11.0927 2.82292 11.1668 2.80829 11.2417 2.8086C11.3165 2.80891 11.3906 2.82415 11.4595 2.85344C14.326 4.00319 14.3856 4.03301 14.4115 4.04594C14.8048 4.24306 15.153 4.51958 15.434 4.85806C15.7151 5.19653 15.9229 5.5896 16.0444 6.01244C16.054 6.04563 16.0601 6.07938 16.0635 6.11369L16.8724 14.5698C16.8804 14.6523 16.87 14.7357 16.842 14.8137C16.814 14.8918 16.769 14.9628 16.7104 15.0214C16.4804 15.2525 16.2069 15.4358 15.9056 15.5605C15.6044 15.6852 15.2809 15.749 14.9548 15.7482Z" fill="#803BC1"/>
<path d="M8.99695 16.8737C7.61039 16.8737 6.22439 16.6852 4.90476 16.3083C4.78731 16.2747 4.68398 16.2038 4.61041 16.1063C4.53683 16.0088 4.49701 15.8899 4.49695 15.7678V10.1225C4.49695 9.00316 4.31695 7.89672 3.9637 6.83416C3.93794 6.76349 3.92662 6.68838 3.9304 6.61326C3.93418 6.53814 3.95298 6.46454 3.9857 6.39682C4.01842 6.32909 4.06439 6.26862 4.12089 6.21897C4.17739 6.16932 4.24328 6.13151 4.31465 6.10777C4.38602 6.08403 4.46142 6.07485 4.5364 6.08076C4.61138 6.08667 4.68442 6.10756 4.75119 6.14219C4.81795 6.17683 4.87709 6.2245 4.92512 6.28238C4.97314 6.34027 5.00906 6.4072 5.03076 6.47922C5.42275 7.65389 5.62239 8.88418 5.62195 10.1225V15.3363C7.81345 15.8876 10.1799 15.8876 12.372 15.3363V10.122C12.372 8.88166 12.5711 7.65653 12.9637 6.47922C12.9849 6.40658 13.0205 6.33896 13.0684 6.28041C13.1164 6.22186 13.1756 6.17358 13.2426 6.13847C13.3097 6.10335 13.3831 6.08212 13.4585 6.07604C13.5339 6.06996 13.6098 6.07916 13.6816 6.10308C13.7534 6.12701 13.8196 6.16518 13.8763 6.21529C13.933 6.26541 13.979 6.32645 14.0115 6.39475C14.044 6.46306 14.0625 6.53723 14.0657 6.61283C14.0689 6.68843 14.0568 6.7639 14.0302 6.83472C13.6768 7.89467 13.4968 9.00467 13.497 10.122V15.7667C13.497 15.8889 13.4572 16.0079 13.3837 16.1055C13.3101 16.2032 13.2067 16.2742 13.0891 16.3078C11.7579 16.6851 10.3806 16.8755 8.99695 16.8737Z" fill="#803BC1"/>
<path d="M9.00032 16.8733C8.85114 16.8733 8.70807 16.814 8.60258 16.7086C8.49709 16.6031 8.43782 16.46 8.43782 16.3108V5.0625C8.43782 4.91332 8.49709 4.77024 8.60258 4.66475C8.70807 4.55926 8.85114 4.5 9.00032 4.5C9.14951 4.5 9.29258 4.55926 9.39807 4.66475C9.50356 4.77024 9.56282 4.91332 9.56282 5.0625V16.3108C9.56282 16.46 9.50356 16.6031 9.39807 16.7086C9.29258 16.814 9.14951 16.8733 9.00032 16.8733ZM11.8128 15.1858C11.6949 15.1858 11.5799 15.1486 11.4843 15.0797C11.3886 15.0108 11.317 14.9135 11.2796 14.8016L10.7171 13.1141C10.6755 12.9742 10.69 12.8237 10.7573 12.6943C10.8247 12.5648 10.9398 12.4666 11.0782 12.4204C11.2166 12.3742 11.3675 12.3836 11.4991 12.4466C11.6308 12.5096 11.7328 12.6213 11.7836 12.7581L12.3461 14.4456C12.3743 14.5301 12.3821 14.6202 12.3687 14.7083C12.3553 14.7964 12.3212 14.8801 12.2691 14.9525C12.217 15.0248 12.1485 15.0838 12.0692 15.1244C11.9898 15.1651 11.902 15.1858 11.8128 15.1858ZM6.18782 15.1858C6.09863 15.1859 6.0107 15.1647 5.93129 15.1241C5.85189 15.0835 5.78328 15.0245 5.73114 14.9522C5.67899 14.8798 5.6448 14.7961 5.63139 14.7079C5.61798 14.6197 5.62574 14.5296 5.65401 14.445L6.21651 12.7581C6.26518 12.6184 6.36689 12.5035 6.49962 12.4383C6.63236 12.3731 6.78544 12.3628 6.92573 12.4096C7.06602 12.4564 7.18223 12.5566 7.2492 12.6884C7.31618 12.8203 7.32852 12.9732 7.28357 13.1141L6.72107 14.8016C6.68378 14.9136 6.61222 15.011 6.51652 15.08C6.42082 15.1491 6.30583 15.1857 6.18782 15.1858Z" fill="#803BC1"/>
</svg>
