<svg width="20" height="20" viewBox="0 0 20 20" fill="none" xmlns="http://www.w3.org/2000/svg">
<g clip-path="url(#clip0_860_47198)">
<path d="M6.5625 13.4375C6.06805 13.4375 5.5847 13.5841 5.17358 13.8588C4.76245 14.1335 4.44202 14.524 4.2528 14.9808C4.06358 15.4376 4.01407 15.9403 4.11054 16.4252C4.207 16.9102 4.4451 17.3556 4.79473 17.7053C5.14437 18.0549 5.58982 18.293 6.07478 18.3895C6.55973 18.4859 7.06239 18.4364 7.51921 18.2472C7.97603 18.058 8.36647 17.7375 8.64118 17.3264C8.91588 16.9153 9.0625 16.432 9.0625 15.9375C9.06176 15.2747 8.79813 14.6392 8.32945 14.1706C7.86077 13.7019 7.22531 13.4382 6.5625 13.4375ZM6.5625 17.8125C6.19166 17.8125 5.82915 17.7025 5.52081 17.4965C5.21246 17.2905 4.97214 16.9976 4.83023 16.655C4.68831 16.3124 4.65118 15.9354 4.72353 15.5717C4.79588 15.208 4.97445 14.8739 5.23668 14.6117C5.4989 14.3495 5.83299 14.1709 6.19671 14.0985C6.56042 14.0262 6.93742 14.0633 7.28003 14.2052C7.62264 14.3471 7.91548 14.5875 8.12151 14.8958C8.32753 15.2041 8.4375 15.5667 8.4375 15.9375C8.43701 16.4346 8.2393 16.9113 7.88778 17.2628C7.53626 17.6143 7.05963 17.812 6.5625 17.8125Z" fill="#A56BDC"/>
<path d="M18.7122 4.375C18.4537 4.3757 18.2058 4.47833 18.0225 4.66062L16.5625 6.12063V2.1875C16.5625 2.02174 16.4967 1.86277 16.3794 1.74556C16.2622 1.62835 16.1033 1.5625 15.9375 1.5625H15.3125V1.25C15.3125 1.00136 15.2137 0.762903 15.0379 0.587087C14.8621 0.411272 14.6236 0.3125 14.375 0.3125C14.1264 0.3125 13.8879 0.411272 13.7121 0.587087C13.5363 0.762903 13.4375 1.00136 13.4375 1.25V1.5625H11.875V1.25C11.875 1.00136 11.7762 0.762903 11.6004 0.587087C11.4246 0.411272 11.1861 0.3125 10.9375 0.3125C10.6889 0.3125 10.4504 0.411272 10.2746 0.587087C10.0988 0.762903 10 1.00136 10 1.25V1.5625H8.4375V1.25C8.4375 1.00136 8.33873 0.762903 8.16291 0.587087C7.9871 0.411272 7.74864 0.3125 7.5 0.3125C7.25136 0.3125 7.0129 0.411272 6.83709 0.587087C6.66127 0.762903 6.5625 1.00136 6.5625 1.25V1.5625H5.9375C5.77174 1.5625 5.61277 1.62835 5.49556 1.74556C5.37835 1.86277 5.3125 2.02174 5.3125 2.1875V12.4062C5.23 12.4356 5.14781 12.4653 5.06813 12.5H3.75V12.1875C3.75 11.9389 3.65123 11.7004 3.47541 11.5246C3.2996 11.3488 3.06114 11.25 2.8125 11.25H2.1875C1.93886 11.25 1.7004 11.3488 1.52459 11.5246C1.34877 11.7004 1.25 11.9389 1.25 12.1875V12.5C1.00136 12.5 0.762903 12.5988 0.587087 12.7746C0.411272 12.9504 0.3125 13.1889 0.3125 13.4375V18.4375C0.3125 18.6861 0.411272 18.9246 0.587087 19.1004C0.762903 19.2762 1.00136 19.375 1.25 19.375H5.06813C5.53937 19.5811 6.04816 19.6875 6.5625 19.6875C7.07684 19.6875 7.58563 19.5811 8.05687 19.375H11.875C12.1236 19.375 12.3621 19.2762 12.5379 19.1004C12.7137 18.9246 12.8125 18.6861 12.8125 18.4375V16.5625H15.9375C16.1033 16.5625 16.2622 16.4967 16.3794 16.3794C16.4967 16.2622 16.5625 16.1033 16.5625 15.9375V8.87937L19.4019 6.04C19.5383 5.9036 19.6312 5.72981 19.6688 5.54061C19.7065 5.35141 19.6872 5.15529 19.6133 4.97707C19.5395 4.79884 19.4145 4.64651 19.2541 4.53935C19.0937 4.43218 18.9051 4.37499 18.7122 4.375ZM17.8125 5.75437L18.3081 6.25L13.9019 10.6562L13.2413 10.8212L13.4066 10.1606L17.8125 5.75437ZM14.0625 1.25C14.0625 1.16712 14.0954 1.08763 14.154 1.02903C14.2126 0.970424 14.2921 0.9375 14.375 0.9375C14.4579 0.9375 14.5374 0.970424 14.596 1.02903C14.6546 1.08763 14.6875 1.16712 14.6875 1.25V2.5C14.6875 2.58288 14.6546 2.66237 14.596 2.72097C14.5374 2.77958 14.4579 2.8125 14.375 2.8125C14.2921 2.8125 14.2126 2.77958 14.154 2.72097C14.0954 2.66237 14.0625 2.58288 14.0625 2.5V1.25ZM10.625 1.25C10.625 1.16712 10.6579 1.08763 10.7165 1.02903C10.7751 0.970424 10.8546 0.9375 10.9375 0.9375C11.0204 0.9375 11.0999 0.970424 11.1585 1.02903C11.2171 1.08763 11.25 1.16712 11.25 1.25V2.5C11.25 2.58288 11.2171 2.66237 11.1585 2.72097C11.0999 2.77958 11.0204 2.8125 10.9375 2.8125C10.8546 2.8125 10.7751 2.77958 10.7165 2.72097C10.6579 2.66237 10.625 2.58288 10.625 2.5V1.25ZM7.1875 1.25C7.1875 1.16712 7.22042 1.08763 7.27903 1.02903C7.33763 0.970424 7.41712 0.9375 7.5 0.9375C7.58288 0.9375 7.66237 0.970424 7.72097 1.02903C7.77958 1.08763 7.8125 1.16712 7.8125 1.25V2.5C7.8125 2.58288 7.77958 2.66237 7.72097 2.72097C7.66237 2.77958 7.58288 2.8125 7.5 2.8125C7.41712 2.8125 7.33763 2.77958 7.27903 2.72097C7.22042 2.66237 7.1875 2.58288 7.1875 2.5V1.25ZM1.875 12.1875C1.875 12.1046 1.90792 12.0251 1.96653 11.9665C2.02513 11.9079 2.10462 11.875 2.1875 11.875H2.8125C2.89538 11.875 2.97487 11.9079 3.03347 11.9665C3.09208 12.0251 3.125 12.1046 3.125 12.1875V12.5H1.875V12.1875ZM0.9375 14.6875H1.25C1.33288 14.6875 1.41237 14.7204 1.47097 14.779C1.52958 14.8376 1.5625 14.9171 1.5625 15V16.875C1.5625 16.9579 1.52958 17.0374 1.47097 17.096C1.41237 17.1546 1.33288 17.1875 1.25 17.1875H0.9375V14.6875ZM1.25 18.75C1.16712 18.75 1.08763 18.7171 1.02903 18.6585C0.970424 18.5999 0.9375 18.5204 0.9375 18.4375V17.8125H1.25C1.49864 17.8125 1.7371 17.7137 1.91291 17.5379C2.08873 17.3621 2.1875 17.1236 2.1875 16.875V15C2.1875 14.7514 2.08873 14.5129 1.91291 14.3371C1.7371 14.1613 1.49864 14.0625 1.25 14.0625H0.9375V13.4375C0.9375 13.3546 0.970424 13.2751 1.02903 13.2165C1.08763 13.1579 1.16712 13.125 1.25 13.125H4.09031C3.68899 13.4755 3.36732 13.9078 3.14691 14.3929C2.92651 14.878 2.81248 15.4047 2.81248 15.9375C2.81248 16.4703 2.92651 16.997 3.14691 17.4821C3.36732 17.9672 3.68899 18.3995 4.09031 18.75H1.25ZM3.4375 15.9375C3.4375 15.3194 3.62078 14.7152 3.96416 14.2013C4.30754 13.6874 4.7956 13.2869 5.36661 13.0504C5.93763 12.8139 6.56597 12.752 7.17216 12.8725C7.77835 12.9931 8.33517 13.2908 8.77221 13.7278C9.20925 14.1648 9.50688 14.7217 9.62745 15.3278C9.74803 15.934 9.68615 16.5624 9.44962 17.1334C9.2131 17.7044 8.81256 18.1925 8.29866 18.5358C7.78475 18.8792 7.18057 19.0625 6.5625 19.0625C5.73398 19.0616 4.93965 18.7321 4.3538 18.1462C3.76794 17.5604 3.43841 16.766 3.4375 15.9375ZM11.875 18.75H9.03469C9.43601 18.3995 9.75768 17.9672 9.97809 17.4821C10.1985 16.997 10.3125 16.4703 10.3125 15.9375C10.3125 15.4047 10.1985 14.878 9.97809 14.3929C9.75768 13.9078 9.43601 13.4755 9.03469 13.125H11.875C11.9579 13.125 12.0374 13.1579 12.096 13.2165C12.1546 13.2751 12.1875 13.3546 12.1875 13.4375V14.0625H11.875C11.6264 14.0625 11.3879 14.1613 11.2121 14.3371C11.0363 14.5129 10.9375 14.7514 10.9375 15V16.875C10.9375 17.1236 11.0363 17.3621 11.2121 17.5379C11.3879 17.7137 11.6264 17.8125 11.875 17.8125H12.1875V18.4375C12.1875 18.5204 12.1546 18.5999 12.096 18.6585C12.0374 18.7171 11.9579 18.75 11.875 18.75ZM9.375 11.25V10H11.25V11.25H9.375ZM10.625 11.875V12.5H10V11.875H10.625ZM12.1875 14.6875V17.1875H11.875C11.7921 17.1875 11.7126 17.1546 11.654 17.096C11.5954 17.0374 11.5625 16.9579 11.5625 16.875V15C11.5625 14.9171 11.5954 14.8376 11.654 14.779C11.7126 14.7204 11.7921 14.6875 11.875 14.6875H12.1875ZM15.9375 15.9375H12.8125V13.4375C12.8125 13.1889 12.7137 12.9504 12.5379 12.7746C12.3621 12.5988 12.1236 12.5 11.875 12.5H11.25V11.875C11.4158 11.875 11.5747 11.8092 11.6919 11.6919C11.8092 11.5747 11.875 11.4158 11.875 11.25V10C11.875 9.83424 11.8092 9.67527 11.6919 9.55806C11.5747 9.44085 11.4158 9.375 11.25 9.375H9.375C9.20924 9.375 9.05027 9.44085 8.93306 9.55806C8.81585 9.67527 8.75 9.83424 8.75 10V11.25C8.75 11.4158 8.81585 11.5747 8.93306 11.6919C9.05027 11.8092 9.20924 11.875 9.375 11.875V12.5H8.05687C7.39164 12.2056 6.65369 12.1165 5.9375 12.2441V2.1875H6.5625V2.5C6.5625 2.74864 6.66127 2.9871 6.83709 3.16291C7.0129 3.33873 7.25136 3.4375 7.5 3.4375C7.74864 3.4375 7.9871 3.33873 8.16291 3.16291C8.33873 2.9871 8.4375 2.74864 8.4375 2.5V2.1875H10V2.5C10 2.74864 10.0988 2.9871 10.2746 3.16291C10.4504 3.33873 10.6889 3.4375 10.9375 3.4375C11.1861 3.4375 11.4246 3.33873 11.6004 3.16291C11.7762 2.9871 11.875 2.74864 11.875 2.5V2.1875H13.4375V2.5C13.4375 2.74864 13.5363 2.9871 13.7121 3.16291C13.8879 3.33873 14.1264 3.4375 14.375 3.4375C14.6236 3.4375 14.8621 3.33873 15.0379 3.16291C15.2137 2.9871 15.3125 2.74864 15.3125 2.5V2.1875H15.9375V6.74563L12.9041 9.77906C12.864 9.81906 12.8356 9.86918 12.8219 9.92406L12.5094 11.1741C12.4963 11.2264 12.497 11.2812 12.5113 11.3332C12.5257 11.3852 12.5533 11.4326 12.5915 11.4708C12.6296 11.509 12.677 11.5366 12.729 11.551C12.7809 11.5655 12.8358 11.5662 12.8881 11.5531L14.1381 11.2406C14.1931 11.2269 14.2434 11.1985 14.2834 11.1584L15.9375 9.50437V15.9375ZM18.96 5.59812L18.75 5.80813L18.2544 5.3125L18.4644 5.1025C18.5134 5.05347 18.5758 5.02007 18.6438 5.00653C18.7118 4.993 18.7822 4.99994 18.8463 5.02647C18.9103 5.053 18.965 5.09793 19.0035 5.15558C19.042 5.21323 19.0625 5.281 19.0625 5.35031C19.0627 5.39635 19.0537 5.44196 19.0361 5.4845C19.0185 5.52705 18.9926 5.56567 18.96 5.59812Z" fill="#A56BDC"/>
<path d="M14.6875 5H7.1875V5.625H14.6875V5Z" fill="#A56BDC"/>
<path d="M14.6875 6.25H7.1875V6.875H14.6875V6.25Z" fill="#A56BDC"/>
<path d="M10.9375 7.5H7.1875V8.125H10.9375V7.5Z" fill="#A56BDC"/>
</g>
<defs>
<clipPath id="clip0_860_47198">
<rect width="20" height="20" fill="white"/>
</clipPath>
</defs>
</svg>
