<svg width="20" height="20" viewBox="0 0 20 20" fill="none" xmlns="http://www.w3.org/2000/svg">
<path d="M15.9 3.50625C15.8719 3.4375 15.1594 2.1875 12.4719 2.1875C9.84375 2.1875 9.15 3.45625 9.12188 3.50937C9.10284 3.55051 9.09298 3.5953 9.09298 3.64062C9.09298 3.68595 9.10284 3.73074 9.12188 3.77187L10.9375 8.2875V17.5C10.9375 17.5829 10.9704 17.6624 11.029 17.721C11.0876 17.7796 11.1671 17.8125 11.25 17.8125H13.75C13.8329 17.8125 13.9124 17.7796 13.971 17.721C14.0296 17.6624 14.0625 17.5829 14.0625 17.5V8.34687L15.9156 3.77187C15.9327 3.72918 15.9402 3.68323 15.9375 3.63732C15.9348 3.5914 15.922 3.54665 15.9 3.50625ZM13.4375 9.10938H11.5625V8.58125H13.4375V9.10938ZM13.4375 9.73438V16.0344H11.5625V9.73438H13.4375ZM11.5625 17.1875V16.6594H13.4375V17.1875H11.5625ZM13.5469 7.95625H11.4781L9.75312 3.69687C9.95625 3.45938 10.6031 2.89063 12.15 2.81875L12.1875 5.625C12.1875 5.70788 12.2204 5.78737 12.279 5.84597C12.3376 5.90458 12.4171 5.9375 12.5 5.9375C12.5829 5.9375 12.6624 5.90458 12.721 5.84597C12.7796 5.78737 12.8125 5.70788 12.8125 5.625L12.775 2.8125C14.3813 2.87813 15.0563 3.45312 15.275 3.69375L13.5469 7.95625ZM8.75 11.5625H8.4375V6.25C8.4375 6.16712 8.40458 6.08763 8.34597 6.02903C8.28737 5.97042 8.20788 5.9375 8.125 5.9375H7.8125V2.5C7.81241 2.44395 7.79724 2.38895 7.76859 2.34078C7.73993 2.2926 7.69885 2.25302 7.64964 2.22618C7.60043 2.19934 7.54491 2.18623 7.48889 2.18822C7.43288 2.19021 7.37843 2.20723 7.33125 2.2375L5.45625 3.4375C5.41224 3.46574 5.37602 3.50456 5.35091 3.55042C5.32579 3.59628 5.31259 3.64771 5.3125 3.7V5.9375H5C4.91712 5.9375 4.83763 5.97042 4.77903 6.02903C4.72042 6.08763 4.6875 6.16712 4.6875 6.25V11.5625H4.375C4.29212 11.5625 4.21263 11.5954 4.15403 11.654C4.09542 11.7126 4.0625 11.7921 4.0625 11.875V17.5C4.0625 17.5829 4.09542 17.6624 4.15403 17.721C4.21263 17.7796 4.29212 17.8125 4.375 17.8125H8.75C8.83288 17.8125 8.91237 17.7796 8.97097 17.721C9.02958 17.6624 9.0625 17.5829 9.0625 17.5V11.875C9.0625 11.7921 9.02958 11.7126 8.97097 11.654C8.91237 11.5954 8.83288 11.5625 8.75 11.5625ZM5.3125 6.5625H7.8125V11.5625H5.3125V6.5625ZM5 12.1875H8.4375V16.1344H4.6875V12.1875H5ZM4.6875 17.1875V16.7594H8.4375V17.1875H4.6875Z" fill="#CF3B89"/>
<path d="M6.875 5.31328C6.79212 5.31328 6.71263 5.28036 6.65403 5.22175C6.59542 5.16315 6.5625 5.08366 6.5625 5.00078V3.84766C6.5625 3.76478 6.59542 3.68529 6.65403 3.62669C6.71263 3.56808 6.79212 3.53516 6.875 3.53516C6.95788 3.53516 7.03737 3.56808 7.09597 3.62669C7.15458 3.68529 7.1875 3.76478 7.1875 3.84766V5.00078C7.1875 5.08366 7.15458 5.16315 7.09597 5.22175C7.03737 5.28036 6.95788 5.31328 6.875 5.31328Z" fill="#CF3B89"/>
</svg>
