<svg width="20" height="20" viewBox="0 0 20 20" fill="none" xmlns="http://www.w3.org/2000/svg">
<g clip-path="url(#clip0_860_47246)">
<path d="M3.26172 9.33125C2.72617 9.33125 2.27383 9.97969 2.27383 10.7473C2.27383 11.5148 2.72617 12.1633 3.26172 12.1633C3.79727 12.1633 4.24961 11.5148 4.24961 10.7473C4.24961 9.97969 3.79727 9.33125 3.26172 9.33125ZM3.26172 11.5773C3.15859 11.5773 2.85977 11.2918 2.85977 10.7473C2.85977 10.2027 3.15859 9.91719 3.26172 9.91719C3.36484 9.91719 3.66367 10.2023 3.66367 10.7473C3.66367 11.2922 3.36484 11.5773 3.26172 11.5773ZM20 5.13985C19.9997 4.59661 19.9561 4.05427 19.8695 3.51797C19.8585 3.44921 19.8233 3.38663 19.7703 3.34146C19.7173 3.29629 19.6499 3.27148 19.5803 3.27148C19.5106 3.27148 19.4433 3.29629 19.3903 3.34146C19.3372 3.38663 19.3021 3.44921 19.291 3.51797C19.0105 5.25115 18.2512 6.87144 17.0988 8.1961C16.9802 8.1718 16.8594 8.1595 16.7383 8.15938C15.6973 8.15938 14.8242 9.04649 14.623 10.2234C13.9114 10.6274 13.1497 10.9358 12.3574 11.1406C11.8266 10.2621 10.9672 9.69024 9.99922 9.69024C9.03125 9.69024 8.17188 10.2621 7.64102 11.141C6.84883 10.9359 6.08708 10.6274 5.37539 10.2234C5.17266 9.04649 4.30117 8.15938 3.26016 8.15938C3.13905 8.1595 3.01826 8.1718 2.89961 8.1961C1.74783 6.87126 0.989096 5.25098 0.708985 3.51797C0.697936 3.44921 0.662752 3.38663 0.609744 3.34146C0.556736 3.29629 0.489371 3.27148 0.419728 3.27148C0.350084 3.27148 0.282719 3.29629 0.229711 3.34146C0.176703 3.38663 0.141519 3.44921 0.13047 3.51797C0.0439443 4.05427 0.000316529 4.59661 9.24599e-07 5.13985C-0.000715966 6.81328 0.415461 8.46054 1.21094 9.93281C1.13744 10.1981 1.10026 10.472 1.10039 10.7473C1.10039 12.1742 2.06953 13.3352 3.26016 13.3352C3.51773 13.3349 3.77236 13.2803 4.00742 13.175C5.02506 13.9431 6.18155 14.5072 7.41328 14.8363C7.90117 15.9594 8.87656 16.7273 9.99844 16.7273C11.1203 16.7273 12.0957 15.9594 12.5836 14.8363C13.8152 14.5073 14.9716 13.9431 15.9891 13.175C16.2243 13.2803 16.479 13.3348 16.7367 13.3352C17.9273 13.3352 18.8965 12.1742 18.8965 10.7473C18.8976 10.4722 18.8615 10.1982 18.7891 9.93281C19.5845 8.46054 20.0007 6.81328 20 5.13985ZM0.589454 5.39024C0.98511 6.49285 1.57136 7.5174 2.32149 8.41719C1.98808 8.61673 1.70995 8.8966 1.5125 9.23125C0.938988 8.02977 0.624503 6.72112 0.589454 5.39024ZM3.26172 12.7492C2.39414 12.7492 1.68789 11.8508 1.68789 10.7473C1.68789 9.64375 2.39414 8.74531 3.26172 8.74531C4.1293 8.74531 4.83555 9.64375 4.83555 10.7473C4.83555 11.8508 4.1293 12.7492 3.26172 12.7492ZM7.19258 14.1625C6.24165 13.8652 5.34476 13.4167 4.53633 12.8344C5.03789 12.3934 5.37539 11.7016 5.4168 10.9105C6.04057 11.2345 6.69716 11.4909 7.37539 11.6754C7.18118 12.1629 7.08226 12.6831 7.08399 13.2078C7.08339 13.5292 7.11983 13.8495 7.19258 14.1625ZM10 16.1414C8.71484 16.1414 7.66953 14.8258 7.66953 13.2086C7.66953 11.5914 8.71484 10.2762 10 10.2762C11.2852 10.2762 12.3305 11.5918 12.3305 13.2086C12.3305 14.8254 11.2852 16.1414 10 16.1414ZM12.8074 14.1625C12.8802 13.8498 12.9168 13.5297 12.9164 13.2086C12.9181 12.6839 12.8192 12.1637 12.625 11.6762C13.3032 11.4917 13.9598 11.2353 14.5836 10.9113C14.625 11.7004 14.9625 12.3957 15.4641 12.8352C14.6554 13.4171 13.7584 13.8653 12.8074 14.1625ZM16.7383 12.7492C15.8707 12.7492 15.1645 11.8508 15.1645 10.7473C15.1645 9.64375 15.8707 8.74531 16.7383 8.74531C17.3914 8.74531 17.9527 9.25313 18.1906 9.97695V9.98047C18.2709 10.2281 18.3115 10.4869 18.3109 10.7473C18.3121 11.8512 17.6059 12.7492 16.7383 12.7492ZM17.6785 8.41797C18.4287 7.51795 19.015 6.49313 19.4105 5.39024C19.3755 6.72113 19.0611 8.02978 18.4875 9.23125C18.2901 8.8968 18.0119 8.61719 17.6785 8.41797ZM10 11.2527C9.57969 11.2527 9.27461 11.5512 9.12969 11.7289C8.82227 12.107 8.6461 12.6465 8.6461 13.2086C8.6461 13.7707 8.82227 14.3105 9.12969 14.6887C9.27461 14.8664 9.57969 15.1648 10 15.1648C10.4203 15.1648 10.7254 14.8664 10.8703 14.6887C11.1777 14.3105 11.3539 13.7711 11.3539 13.2086C11.3539 12.6461 11.1777 12.107 10.8703 11.7289C10.7254 11.5512 10.4203 11.2527 10 11.2527ZM10.4156 14.3188C10.352 14.3969 10.1844 14.5789 10 14.5789C9.81563 14.5789 9.64844 14.3969 9.58438 14.3188C9.36016 14.0434 9.23281 13.6387 9.23281 13.2086C9.23281 12.7785 9.36094 12.3742 9.58438 12.0988C9.64805 12.0207 9.81563 11.8387 10 11.8387C10.1844 11.8387 10.3516 12.0203 10.4156 12.0988C10.6398 12.3742 10.7672 12.7785 10.7672 13.2086C10.7672 13.6387 10.6398 14.0434 10.4156 14.3188ZM16.7383 9.33125C16.2027 9.33125 15.7504 9.97969 15.7504 10.7473C15.7504 11.5148 16.2027 12.1633 16.7383 12.1633C17.2738 12.1633 17.7262 11.5148 17.7262 10.7473C17.7262 9.97969 17.2738 9.33125 16.7383 9.33125ZM16.7383 11.5773C16.6352 11.5773 16.3363 11.2918 16.3363 10.7473C16.3363 10.2027 16.6352 9.91719 16.7383 9.91719C16.8414 9.91719 17.1402 10.2023 17.1402 10.7473C17.1402 11.2922 16.8414 11.5773 16.7383 11.5773Z" fill="#FF981F"/>
</g>
<defs>
<clipPath id="clip0_860_47246">
<rect width="20" height="20" fill="white"/>
</clipPath>
</defs>
</svg>
