<svg width="20" height="20" viewBox="0 0 20 20" fill="none" xmlns="http://www.w3.org/2000/svg">
<path d="M5.03648 15.1562H3.12086C1.93617 15.1881 0.982106 13.9675 1.29898 12.8256L2.39273 8.45094C2.59054 7.66344 3.26867 7.10625 4.06773 7.04375V7.65625C4.06773 7.73913 4.10066 7.81862 4.15926 7.87722C4.21787 7.93583 4.29735 7.96875 4.38023 7.96875C4.46311 7.96875 4.5426 7.93583 4.6012 7.87722C4.65981 7.81862 4.69273 7.73913 4.69273 7.65625V7.03125H11.5677V7.65625C11.5677 7.73913 11.6007 7.81862 11.6593 7.87722C11.7179 7.93583 11.7974 7.96875 11.8802 7.96875C11.9631 7.96875 12.0426 7.93583 12.1012 7.87722C12.1598 7.81862 12.1927 7.73913 12.1927 7.65625V7.04375C12.9921 7.10625 13.6702 7.66344 13.8677 8.45062L14.8677 12.4506C14.9737 12.8462 15.5671 12.7 15.474 12.2991L14.474 8.29906C14.3446 7.78247 14.0534 7.32077 13.643 6.98137C13.2326 6.64197 12.7244 6.44265 12.1927 6.4125V5.46875C12.1927 3.22875 10.3705 1.40625 8.13023 1.40625C5.88992 1.40625 4.06773 3.22875 4.06773 5.46875V6.4125C3.536 6.44272 3.02784 6.6421 2.61744 6.98155C2.20704 7.321 1.91589 7.78274 1.78648 8.29938L0.692731 12.6744C0.599709 13.0432 0.592495 13.4284 0.671644 13.8004C0.750794 14.1724 0.914198 14.5213 1.14929 14.8203C1.38266 15.1206 1.68175 15.3633 2.02359 15.5299C2.36543 15.6965 2.7409 15.7825 3.12117 15.7812H5.03679C5.44679 15.7738 5.44804 15.1637 5.03648 15.1562ZM4.69273 5.46875C4.88211 0.9075 11.3802 0.910625 11.5677 5.46875V6.40625H4.69273V5.46875Z" fill="#023C7E"/>
<path d="M12.5078 9.84375C12.5078 9.76087 12.4749 9.68138 12.4163 9.62278C12.3577 9.56417 12.2782 9.53125 12.1953 9.53125H4.07031C3.98743 9.53125 3.90795 9.56417 3.84934 9.62278C3.79074 9.68138 3.75781 9.76087 3.75781 9.84375C3.75781 9.92663 3.79074 10.0061 3.84934 10.0647C3.90795 10.1233 3.98743 10.1562 4.07031 10.1562H12.1953C12.2782 10.1562 12.3577 10.1233 12.4163 10.0647C12.4749 10.0061 12.5078 9.92663 12.5078 9.84375Z" fill="#023C7E"/>
<path d="M11.2557 10.4674V11.0924C11.2626 11.503 11.8741 11.5034 11.8807 11.0924V10.4674C11.8741 10.0568 11.2626 10.0565 11.2557 10.4674ZM18.4432 14.8424H18.2791C17.2601 12.0543 13.2054 12.5068 12.8366 15.4674H12.1751C11.8054 12.5049 7.75039 12.0562 6.73257 14.8424C5.27414 14.7362 5.27507 16.8237 6.73257 16.7174C7.75164 19.5055 11.8063 19.053 12.1751 16.0924H12.8366C13.2063 19.0549 17.2613 19.5037 18.2791 16.7174C19.6276 16.838 19.7882 14.9205 18.4432 14.8424ZM6.5682 16.0924C6.15757 16.0852 6.15789 15.4746 6.5682 15.4674V16.0924ZM9.3807 17.9674C8.17445 17.9674 7.1932 16.9862 7.1932 15.7799C7.30351 12.8818 11.4588 12.8827 11.5682 15.7799C11.5682 16.9862 10.5869 17.9674 9.3807 17.9674ZM15.6307 17.9674C14.4244 17.9674 13.4432 16.9862 13.4432 15.7799C13.5535 12.8818 17.7088 12.8827 17.8182 15.7799C17.8182 16.9862 16.837 17.9674 15.6307 17.9674ZM18.4432 16.0924V15.4674C18.8541 15.4746 18.8538 16.0852 18.4432 16.0924ZM13.4432 5.46742C13.9604 5.46742 14.3807 6.02805 14.3807 6.71742C14.3816 7.12367 15.0051 7.1318 15.0057 6.71742C15.0057 6.02805 15.4263 5.46742 15.9432 5.46742C16.226 5.45617 16.3523 5.14086 16.1651 4.93305C16.0991 4.88742 16.0313 4.84086 15.9432 4.84242C15.4263 4.84242 15.0057 4.2818 15.0057 3.59242C15.0029 3.2968 14.6116 3.16336 14.4473 3.40898C14.4057 3.46124 14.3824 3.52568 14.381 3.59242C14.381 4.2818 13.9604 4.84242 13.4435 4.84242C13.0398 4.8568 13.0276 5.46117 13.4432 5.46742ZM14.6932 4.71273C14.7967 4.8811 14.928 5.03063 15.0816 5.15492C14.9316 5.2743 14.801 5.42461 14.6935 5.59711C14.5901 5.42874 14.4587 5.27921 14.3051 5.15492C14.4551 5.03555 14.5854 4.88523 14.6932 4.71273ZM16.2557 10.4674C16.7729 10.4674 17.1932 11.028 17.1932 11.7174C17.2076 12.1284 17.7988 12.1262 17.8182 11.7174C17.8182 11.028 18.2388 10.4674 18.7557 10.4674C19.0988 10.4721 19.186 9.97086 18.8601 9.86336C18.2798 9.85617 17.8226 9.35555 17.8185 8.59242C17.8016 8.18617 17.211 8.18336 17.1935 8.59242C17.1935 9.2818 16.7729 9.84242 16.256 9.84242C15.8519 9.85492 15.8423 10.4621 16.2557 10.4674ZM17.5057 9.71273C17.6092 9.8811 17.7405 10.0306 17.8941 10.1549C17.7441 10.2743 17.6135 10.4246 17.506 10.5971C17.4026 10.4287 17.2712 10.2792 17.1176 10.1549C17.2676 10.0355 17.3979 9.88523 17.5057 9.71273ZM0.761012 4.7768C0.8132 4.81523 0.874137 4.84242 0.943825 4.84242C1.4607 4.84242 1.88132 5.40305 1.88132 6.09242C1.88726 6.50117 2.49445 6.50617 2.50632 6.09242C2.50632 5.40305 2.92664 4.84242 3.44382 4.84242C3.85695 4.8268 3.84757 4.23305 3.44382 4.21742C2.92664 4.21742 2.50632 3.6568 2.50632 2.96742C2.48257 2.55867 1.90539 2.5568 1.88132 2.96742C1.88132 3.6568 1.4607 4.21742 0.943825 4.21742C0.658825 4.20586 0.50945 4.62711 0.761012 4.7768ZM2.19382 4.08773C2.29709 4.25605 2.42823 4.40558 2.58164 4.52992C2.43164 4.6493 2.30101 4.79961 2.19351 4.97211C2.09006 4.80374 1.9587 4.65421 1.80507 4.52992C1.95507 4.41055 2.08601 4.26023 2.19382 4.08773Z" fill="#023C7E"/>
</svg>
