<svg width="20" height="20" viewBox="0 0 20 20" fill="none" xmlns="http://www.w3.org/2000/svg">
<g clip-path="url(#clip0_860_47222)">
<path d="M10.0016 5.32578V5.32852H8.20508C8.17305 5.32852 8.14102 5.32773 8.10938 5.32578H10.0016ZM11.9 5.32422C11.8664 5.32617 11.8324 5.32734 11.798 5.32734H10.0016V5.32422H11.9Z" fill="#EC4850"/>
<path d="M9.94914 14.1952C10.1109 14.1952 10.242 14.064 10.242 13.9023C10.242 13.7405 10.1109 13.6094 9.94914 13.6094C9.78738 13.6094 9.65625 13.7405 9.65625 13.9023C9.65625 14.064 9.78738 14.1952 9.94914 14.1952Z" fill="#EC4850"/>
<path d="M9.88253 13.6174C9.82619 13.6309 9.77513 13.6608 9.73579 13.7033C9.69646 13.7459 9.67061 13.7991 9.66153 13.8563C9.65245 13.9135 9.66054 13.9721 9.68477 14.0248C9.70901 14.0774 9.7483 14.1216 9.79769 14.1519C9.84707 14.1822 9.90433 14.1972 9.96221 14.1949C10.0201 14.1926 10.076 14.1733 10.1229 14.1392C10.1698 14.1052 10.2055 14.058 10.2256 14.0037C10.2456 13.9493 10.2491 13.8903 10.2356 13.8339C10.2267 13.7965 10.2104 13.7613 10.1878 13.7301C10.1652 13.699 10.1367 13.6726 10.1039 13.6525C10.0711 13.6324 10.0347 13.619 9.99673 13.6129C9.95874 13.6069 9.91993 13.6084 9.88253 13.6174ZM19.7639 11.0247C19.302 10.9294 18.8306 10.8884 18.3592 10.9024V8.54386C18.6152 8.42742 18.8323 8.23982 18.9847 8.00342C19.1371 7.76702 19.2182 7.49179 19.2185 7.21054V6.50741C19.2181 6.11904 19.0636 5.74671 18.789 5.47209C18.5144 5.19748 18.1421 5.043 17.7537 5.04257H14.2656C14.613 4.78262 14.8952 4.4454 15.0897 4.05757C15.2843 3.66975 15.3859 3.24196 15.3866 2.80807C15.3866 1.25862 14.1126 -0.00195041 12.5467 -0.00195041C12.0183 -0.00267976 11.5001 0.143733 11.0502 0.420887C10.6003 0.69804 10.2364 1.09499 9.99941 1.56726C9.76223 1.09538 9.39841 0.698806 8.94867 0.421929C8.49893 0.145052 7.98101 -0.00120753 7.45287 -0.000482054C5.88694 -0.000482054 4.61296 1.26008 4.61296 2.80954C4.61364 3.24303 4.7151 3.67042 4.90933 4.05796C5.10356 4.4455 5.38523 4.78258 5.7321 5.04257H2.24588C1.85752 5.043 1.48518 5.19748 1.21057 5.47209C0.935949 5.74671 0.781478 6.11904 0.781041 6.50741V7.21054C0.781351 7.49179 0.862528 7.76702 1.0149 8.00342C1.16727 8.23982 1.3844 8.42742 1.64042 8.54386V16.0217C1.21222 16.1307 0.767161 16.1571 0.329075 16.0995C0.252003 16.0899 0.174285 16.1114 0.113002 16.1591C0.0517195 16.2068 0.0118875 16.2769 0.00226059 16.3539C-0.00736627 16.431 0.0139998 16.5087 0.0616628 16.5701C0.109326 16.6314 0.179385 16.6713 0.256443 16.6809C0.433738 16.7032 0.612248 16.7145 0.79094 16.7146C1.07654 16.7149 1.36134 16.6844 1.64042 16.6237V18.5387C1.64085 18.927 1.79532 19.2994 2.06994 19.574C2.34456 19.8486 2.71689 20.0031 3.10526 20.0035H16.8943C17.2827 20.0031 17.655 19.8486 17.9296 19.574C18.2043 19.2994 18.3587 18.927 18.3592 18.5387V11.4882C18.7923 11.4739 19.2255 11.5113 19.6498 11.5995C19.6875 11.607 19.7264 11.607 19.7641 11.5995C19.8019 11.592 19.8378 11.5771 19.8698 11.5557C19.9018 11.5343 19.9292 11.5069 19.9506 11.4749C19.972 11.4429 19.9869 11.407 19.9944 11.3692C20.0019 11.3314 20.0018 11.2926 19.9943 11.2548C19.9868 11.2171 19.9719 11.1812 19.9505 11.1492C19.9291 11.1172 19.9016 11.0898 19.8696 11.0684C19.8376 11.0471 19.8016 11.0322 19.7639 11.0247ZM12.5467 0.583987C13.7896 0.583987 14.8007 1.5817 14.8007 2.80807C14.7985 3.25827 14.6599 3.69724 14.4033 4.06713C14.1466 4.43702 13.7839 4.72048 13.363 4.88014C13.6079 4.58315 13.7633 4.22264 13.811 3.84067C13.8587 3.4587 13.7969 3.07104 13.6326 2.72291C13.4683 2.37478 13.2085 2.08054 12.8833 1.87454C12.5581 1.66853 12.1811 1.55925 11.7961 1.55944H11.7374C11.2601 1.55908 10.7981 1.72763 10.4332 2.03524C10.5966 1.60745 10.8863 1.2395 11.2638 0.980287C11.6413 0.721069 12.0888 0.582849 12.5467 0.583987ZM12.6299 8.32197C12.6298 8.32142 12.6298 8.32087 12.6297 8.32033C12.6291 8.31788 12.6285 8.31546 12.6279 8.31301C12.6176 8.26569 12.6063 8.21804 12.5941 8.17008C12.5922 8.1628 12.5903 8.15553 12.5885 8.14826C12.577 8.10433 12.5648 8.06017 12.5517 8.01577C12.5492 8.0073 12.5468 7.9988 12.5442 7.99035C12.5313 7.94758 12.5176 7.90462 12.5031 7.86146C12.5002 7.85301 12.4976 7.84447 12.4947 7.83604C12.4776 7.78622 12.4597 7.73621 12.4403 7.68594C12.1197 6.86229 11.5588 6.1541 10.8305 5.6534C12.369 5.49581 13.8278 6.1546 14.4739 7.36906C14.4932 7.40534 14.5114 7.44217 14.5291 7.47929C14.533 7.48739 14.5367 7.49549 14.5405 7.5036C14.5573 7.5398 14.5736 7.57627 14.5889 7.61324L14.5894 7.61443C14.6944 7.87053 14.763 8.14009 14.7931 8.41524C14.7937 8.4202 14.7947 8.425 14.7955 8.42987C14.8412 8.90212 14.7986 9.37875 14.6698 9.83539L13.8827 9.04346C13.8311 8.99156 13.762 8.96084 13.6889 8.95735C13.6158 8.95387 13.544 8.97786 13.4877 9.02461L12.7093 9.67121C12.7518 9.22004 12.725 8.76503 12.6299 8.32197ZM11.9616 8.08944H11.4842V7.12075C11.4927 7.13311 11.5011 7.14565 11.5096 7.15821C11.5212 7.17558 11.5328 7.19311 11.5443 7.21081C11.5534 7.22487 11.5625 7.23905 11.5714 7.25337C11.5826 7.27122 11.5938 7.28926 11.6048 7.30749C11.6136 7.32213 11.6224 7.33688 11.6311 7.35174C11.642 7.37029 11.6527 7.38912 11.6634 7.40805C11.6719 7.42315 11.6804 7.43826 11.6887 7.4536C11.6993 7.47305 11.7096 7.49284 11.72 7.51268C11.728 7.52806 11.736 7.54336 11.7439 7.55897C11.7544 7.57975 11.7645 7.60096 11.7747 7.62215C11.782 7.63741 11.7894 7.6525 11.7966 7.66797C11.8074 7.69128 11.8178 7.71511 11.8282 7.73892C11.8343 7.75284 11.8406 7.76651 11.8466 7.78061C11.8611 7.81487 11.8752 7.84967 11.8889 7.88502C11.8904 7.88888 11.892 7.8926 11.8935 7.89648C11.9179 7.95986 11.9406 8.02418 11.9616 8.08944ZM10.2928 3.59001C10.2932 3.207 10.4455 2.83981 10.7164 2.56898C10.9872 2.29816 11.3544 2.14581 11.7374 2.14538H11.7961C12.1716 2.14535 12.5324 2.29154 12.8019 2.55297C13.0715 2.81439 13.2286 3.17051 13.2401 3.54584C13.2515 3.92116 13.1164 4.28619 12.8632 4.56356C12.6101 4.84093 12.259 5.00884 11.8842 5.03169H10.2928V3.59001ZM9.7488 5.97544C9.7571 5.97048 9.76522 5.96574 9.7734 5.96094C9.78476 5.95427 9.79609 5.94762 9.80721 5.94123C9.81554 5.93645 9.82373 5.93182 9.83192 5.92719C9.84258 5.92117 9.85319 5.9152 9.86361 5.90944C9.87175 5.90494 9.8798 5.90052 9.88776 5.8962C9.89775 5.89076 9.90761 5.88545 9.91735 5.88025C9.92532 5.87601 9.93322 5.87182 9.94101 5.86774C9.95031 5.86286 9.95944 5.85813 9.96848 5.85349C9.9762 5.84952 9.98391 5.84556 9.99142 5.84177C9.99427 5.84033 9.99697 5.83901 9.99979 5.83759C10.0026 5.83901 10.0053 5.84033 10.0082 5.84177C10.0157 5.84556 10.0234 5.84952 10.0311 5.85349C10.0401 5.85813 10.0493 5.86286 10.0586 5.86774C10.0664 5.87182 10.0743 5.87601 10.0822 5.88025C10.092 5.88544 10.1018 5.89075 10.1118 5.8962C10.1198 5.90054 10.1279 5.90495 10.136 5.90944C10.1464 5.9152 10.157 5.92117 10.1677 5.92719C10.1759 5.93182 10.184 5.93645 10.1924 5.94123C10.2035 5.94762 10.2148 5.95427 10.2262 5.96094C10.2344 5.96574 10.2425 5.97048 10.2508 5.97544C10.2629 5.98266 10.2752 5.9902 10.2876 5.99774C10.2955 6.00259 10.3033 6.00732 10.3114 6.01231C10.3255 6.02107 10.3399 6.03023 10.3543 6.03941C10.3607 6.04352 10.367 6.04744 10.3735 6.05163C10.3947 6.0653 10.4161 6.07939 10.4377 6.09393L10.439 6.09483C10.4601 6.109 10.4814 6.12361 10.5028 6.13867C10.5097 6.14348 10.5167 6.14858 10.5236 6.15349C10.5388 6.16424 10.5539 6.17503 10.5692 6.18622C10.5777 6.19241 10.5863 6.19887 10.5948 6.2052C10.6087 6.21552 10.6226 6.22588 10.6366 6.23656C10.6459 6.2436 10.6552 6.25088 10.6644 6.25808C10.678 6.26858 10.6915 6.27914 10.7051 6.28997C10.7146 6.29756 10.7242 6.30533 10.7338 6.31309C10.7472 6.32399 10.7607 6.33505 10.7742 6.34625C10.784 6.35443 10.7938 6.36272 10.8037 6.3711C10.817 6.38243 10.8304 6.39392 10.8437 6.40559C10.8536 6.41423 10.8636 6.42296 10.8735 6.43176C10.8817 6.43909 10.89 6.44666 10.8982 6.45411V8.08944H9.10135V6.45411C9.10963 6.44662 9.11792 6.43903 9.1262 6.43167C9.13605 6.42291 9.14589 6.41425 9.15572 6.4057C9.16916 6.39398 9.18259 6.38242 9.196 6.37102C9.2058 6.3627 9.2156 6.35445 9.22539 6.34628C9.23891 6.33502 9.2524 6.32394 9.26586 6.31304C9.27538 6.30532 9.28489 6.29759 9.29438 6.29004C9.30808 6.27912 9.32173 6.26847 9.33536 6.2579C9.34453 6.25079 9.35372 6.2436 9.36285 6.23664C9.37695 6.22588 9.39096 6.21546 9.40495 6.20507C9.41341 6.19879 9.42192 6.19237 9.43033 6.18623C9.44565 6.17503 9.46082 6.16424 9.47597 6.15349C9.48288 6.14858 9.48987 6.14349 9.49674 6.13867C9.51821 6.12363 9.53947 6.10902 9.56054 6.09484L9.56186 6.09393C9.58352 6.07936 9.60492 6.06526 9.62607 6.05163C9.63256 6.04744 9.63887 6.04352 9.64531 6.03942C9.65971 6.03023 9.67409 6.02107 9.68822 6.01231C9.69625 6.00732 9.70409 6.0026 9.71203 5.99774C9.72437 5.9902 9.7367 5.98266 9.7488 5.97544ZM7.36066 13.4827C7.1988 13.6458 7.08749 13.8522 7.04013 14.0771C5.96498 13.9055 5.02245 14.0132 4.23595 14.3993C3.78714 14.6196 3.45682 14.8938 3.13738 15.1589C2.8517 15.396 2.57623 15.624 2.22635 15.8011V8.67488C2.23288 8.67497 2.23934 8.67538 2.24588 8.67538H4.60138C4.58966 9.29576 4.70223 9.91222 4.93248 10.4884C4.95076 10.5332 4.97985 10.5728 5.01715 10.6036C5.05445 10.6344 5.09881 10.6556 5.14626 10.6651C5.19371 10.6745 5.24278 10.6721 5.28907 10.6581C5.33537 10.644 5.37745 10.6186 5.41157 10.5843L6.34359 9.64654L7.5382 10.6388C7.58638 10.6789 7.6461 10.7024 7.70862 10.706C7.77114 10.7095 7.83317 10.693 7.88559 10.6588C7.93802 10.6245 7.9781 10.5744 7.99995 10.5157C8.0218 10.457 8.02427 10.3928 8.00699 10.3327C7.85407 9.79409 7.81754 9.22915 7.89983 8.67538H8.55448V11.4595C8.55448 11.4652 8.55501 11.4707 8.55532 11.4762C8.49647 11.5646 8.44973 11.6605 8.41636 11.7613C8.21337 11.7602 8.01355 11.8115 7.83617 11.9102C7.65879 12.0089 7.50986 12.1517 7.40374 12.3247C7.29762 12.4977 7.23791 12.6952 7.23036 12.8981C7.22281 13.1009 7.26769 13.3023 7.36066 13.4827ZM8.03797 8.08944C8.05897 8.02427 8.08168 7.95995 8.1061 7.89648C8.10699 7.89416 8.10797 7.89192 8.10886 7.8896C8.12317 7.85265 8.13791 7.81625 8.15309 7.7804C8.15882 7.76686 8.16487 7.75374 8.17072 7.74036C8.18139 7.71598 8.19204 7.69159 8.20309 7.66773C8.21008 7.65263 8.21735 7.6379 8.22449 7.623C8.23483 7.60144 8.24516 7.57987 8.25579 7.55873C8.26352 7.54338 8.27145 7.52834 8.27932 7.51322C8.28979 7.49312 8.30028 7.47307 8.311 7.45337C8.31924 7.43823 8.32762 7.42332 8.336 7.40841C8.34677 7.38927 8.35759 7.37024 8.36858 7.35149C8.37719 7.33681 8.38586 7.32225 8.39461 7.30782C8.40576 7.28937 8.41702 7.2711 8.42837 7.25302C8.43723 7.23894 8.44613 7.22496 8.45508 7.21108C8.4667 7.19313 8.47842 7.17539 8.49025 7.15786C8.49861 7.14543 8.50697 7.133 8.51542 7.12075V8.08944L8.03797 8.08944ZM7.90129 13.7995C7.9507 13.7713 8.00397 13.7503 8.05941 13.7374C8.13786 13.7188 8.21924 13.7162 8.29874 13.7295C8.29605 13.7567 8.29406 13.784 8.29275 13.8112C8.29274 13.8114 8.29276 13.8116 8.29275 13.8118L8.29272 13.8122C8.29269 13.8127 8.29274 13.8131 8.29272 13.8136C8.28475 13.9744 8.30007 14.1355 8.33819 14.2919C8.35115 14.3452 8.36752 14.3972 8.3854 14.4486C8.23352 14.5449 8.10569 14.6747 8.01167 14.828C8.0013 14.8448 7.99196 14.8622 7.98248 14.8795C7.89255 14.8434 7.81248 14.7865 7.74891 14.7133C7.68534 14.6402 7.64008 14.553 7.61689 14.4589C7.58654 14.333 7.59787 14.2007 7.64915 14.0818C7.70043 13.9629 7.78891 13.8638 7.90129 13.7995ZM7.92523 13.1671C7.90524 13.1717 7.8856 13.1775 7.86594 13.1832C7.82039 13.0796 7.80521 12.9652 7.82217 12.8533C7.83912 12.7414 7.88752 12.6366 7.96171 12.5511C8.03591 12.4656 8.13287 12.403 8.24128 12.3705C8.3497 12.338 8.46512 12.3369 8.57411 12.3675C8.70777 12.4044 8.82495 12.4856 8.90652 12.5977C8.88575 12.6147 8.86552 12.6321 8.84585 12.65L8.84547 12.6503L8.84476 12.651C8.84405 12.6516 8.84346 12.6523 8.84276 12.653C8.68323 12.7971 8.55306 12.9707 8.45939 13.1642C8.28343 13.1245 8.10075 13.1255 7.92523 13.1671ZM7.55928 7.68594C7.53995 7.73617 7.52198 7.78614 7.50489 7.83594C7.50195 7.84452 7.49929 7.85322 7.4964 7.86183C7.48195 7.90483 7.46827 7.94764 7.45537 7.99026C7.4528 7.9988 7.4504 8.00738 7.44788 8.01593C7.43482 8.06025 7.42258 8.10433 7.41115 8.14817C7.40924 8.15551 7.40736 8.16284 7.40551 8.17018C7.39331 8.21806 7.38204 8.26564 7.37168 8.3129C7.37114 8.31538 7.37046 8.31784 7.36992 8.32033C7.3698 8.32088 7.36977 8.32144 7.36966 8.32199C7.27455 8.76505 7.24779 9.22005 7.29029 9.67121L6.51186 9.02461C6.45557 8.97785 6.38381 8.95385 6.31071 8.95733C6.23761 8.96082 6.16847 8.99154 6.11689 9.04346L5.32978 9.83539C5.20098 9.37875 5.15836 8.90212 5.20409 8.42987C5.20489 8.425 5.20588 8.42019 5.20643 8.41524C5.23658 8.14015 5.30513 7.87065 5.41008 7.6146L5.41088 7.61272C5.42605 7.57607 5.44222 7.53992 5.45889 7.50403C5.46278 7.49565 5.46665 7.48728 5.47065 7.47891C5.4881 7.44227 5.50613 7.40592 5.52516 7.37011L5.52569 7.36908C5.52635 7.36782 5.52709 7.36662 5.52776 7.36536C5.54638 7.33048 5.56567 7.29607 5.58565 7.26214C5.59263 7.25024 5.60005 7.23866 5.6072 7.22688C5.62124 7.20374 5.63533 7.18062 5.64998 7.15792C5.65864 7.14449 5.66768 7.13133 5.67656 7.11806C5.69038 7.09739 5.70427 7.07675 5.7186 7.05646C5.72815 7.04293 5.73797 7.02962 5.74774 7.01627C5.76214 6.99658 5.77668 6.977 5.79155 6.9577C5.80162 6.94461 5.81186 6.93167 5.82215 6.91876C5.83746 6.89955 5.853 6.88052 5.86877 6.86168C5.87911 6.84934 5.88953 6.83708 5.90003 6.82488C5.91671 6.80562 5.93365 6.78658 5.95086 6.76777C5.96098 6.75665 5.97106 6.7455 5.98134 6.73452C6.00015 6.71447 6.01935 6.69478 6.03871 6.67522C6.04784 6.66598 6.05685 6.65662 6.06611 6.6475C6.08914 6.6248 6.11265 6.60256 6.1364 6.58056C6.14238 6.57502 6.14818 6.56932 6.15421 6.56383C6.24719 6.47911 6.34503 6.39987 6.44722 6.32652C6.45176 6.32325 6.45641 6.32012 6.46097 6.31687C6.49055 6.29584 6.5205 6.27523 6.55081 6.25505C6.55694 6.25098 6.56317 6.24702 6.56933 6.24299C6.59865 6.22382 6.62828 6.20504 6.65824 6.18667C6.66467 6.18274 6.67114 6.17888 6.6776 6.17499C6.70815 6.15659 6.73903 6.13862 6.77024 6.12107C6.77586 6.11792 6.78149 6.11477 6.78713 6.11164C6.82034 6.09324 6.85392 6.07532 6.88785 6.0579C6.89145 6.05605 6.89502 6.05417 6.89863 6.05234C7.56023 5.71584 8.35341 5.56987 9.1691 5.65341C8.44077 6.15411 7.87987 6.8623 7.55928 7.68594ZM9.40216 11.5473C9.52954 11.5178 9.66299 11.53 9.78296 11.5819C9.90294 11.6338 10.0031 11.7228 10.0689 11.8358C10.1373 11.9548 10.1631 12.0936 10.142 12.2292C10.1154 12.2265 10.0888 12.2245 10.0621 12.2231L10.0617 12.2231L10.0606 12.223C10.0595 12.223 10.0585 12.2231 10.0574 12.223C9.89706 12.2145 9.73634 12.229 9.58014 12.2661C9.52606 12.279 9.47328 12.2953 9.42119 12.3131C9.32356 12.16 9.19232 12.0311 9.03744 11.9362C9.02042 11.9258 9.00299 11.9165 8.98563 11.907C9.02131 11.8181 9.07774 11.7391 9.15021 11.6765C9.22267 11.614 9.30906 11.5696 9.40216 11.5473ZM9.26741 10.977C9.22439 10.9874 9.18199 11.0002 9.14042 11.0154V8.67538H10.8592V11.1707C10.6942 11.1791 10.5328 11.2216 10.385 11.2955C10.2408 11.1523 10.0626 11.048 9.86721 10.9923C9.67178 10.9366 9.46542 10.9314 9.26741 10.977ZM9.70682 5.03316H8.11543C7.74062 5.01031 7.38945 4.8424 7.13633 4.56503C6.88322 4.28766 6.74807 3.92263 6.75951 3.5473C6.77096 3.17198 6.92812 2.81586 7.19766 2.55443C7.46721 2.29301 7.82797 2.14682 8.20347 2.14685H8.2622C8.6452 2.14728 9.0124 2.29962 9.28322 2.57045C9.55405 2.84128 9.70639 3.20847 9.70682 3.59148V5.03316ZM5.1989 2.80954C5.1989 1.58317 6.21002 0.585455 7.45287 0.585455C7.91081 0.584317 8.35825 0.722538 8.73576 0.981756C9.11327 1.24097 9.40297 1.60892 9.56638 2.03671C9.20147 1.7291 8.73947 1.56055 8.2622 1.56091H8.20347C7.81853 1.56072 7.44147 1.67 7.1163 1.87601C6.79112 2.08201 6.53124 2.37625 6.36697 2.72438C6.20271 3.07251 6.14083 3.46017 6.18857 3.84214C6.23631 4.22411 6.39169 4.58462 6.63658 4.88162C6.21564 4.72195 5.85295 4.43849 5.5963 4.0686C5.33966 3.69871 5.20111 3.25974 5.1989 2.80954ZM1.36698 7.21054V6.50741C1.36724 6.27439 1.45992 6.05099 1.62469 5.88622C1.78946 5.72145 2.01286 5.62877 2.24588 5.6285H6.45388C6.40864 5.65438 6.36418 5.68131 6.32013 5.70879C6.30662 5.71722 6.29329 5.72589 6.27989 5.73447C6.2476 5.75515 6.21565 5.77626 6.18405 5.79779C6.17066 5.80692 6.15723 5.81598 6.14397 5.82526C6.10331 5.85371 6.06321 5.88283 6.02366 5.91261C6.02148 5.91426 6.01922 5.91582 6.01704 5.91748C5.97569 5.94896 5.93525 5.98146 5.8953 6.0145C5.88333 6.0244 5.87158 6.03452 5.85974 6.04455C5.83048 6.06936 5.80162 6.09459 5.77317 6.12024C5.76153 6.13074 5.74983 6.14117 5.73832 6.15181C5.70118 6.18615 5.66456 6.22102 5.62889 6.25681C5.6279 6.2578 5.62686 6.25874 5.62588 6.25973C5.5893 6.29652 5.55377 6.33431 5.5188 6.3726C5.50857 6.3838 5.49858 6.3952 5.4885 6.40653C5.46277 6.43542 5.43751 6.46473 5.41273 6.49444C5.40299 6.50612 5.39318 6.51772 5.38359 6.52952C5.31792 6.61033 5.2558 6.69405 5.19724 6.78068C5.1889 6.79302 5.18082 6.80554 5.17263 6.818C5.15102 6.8509 5.12995 6.88419 5.10942 6.91789C5.10166 6.93062 5.09382 6.94328 5.08621 6.95612C5.0594 7.00141 5.03324 7.04717 5.00839 7.09386C4.98623 7.13553 4.96512 7.17773 4.94472 7.22028C4.93656 7.2373 4.9291 7.25432 4.92127 7.27135C4.90998 7.29597 4.89865 7.32057 4.88794 7.34547C4.87815 7.36819 4.869 7.39089 4.85979 7.41361C4.85217 7.43243 4.84452 7.45122 4.83724 7.47018C4.82703 7.49672 4.81736 7.52322 4.80791 7.54973C4.80261 7.56462 4.79734 7.57951 4.79224 7.59449C4.78207 7.62428 4.77238 7.65404 4.76316 7.68376C4.75953 7.69546 4.75596 7.70718 4.75245 7.71894C4.74267 7.7516 4.73341 7.78421 4.72465 7.81676C4.72219 7.82596 4.71982 7.8352 4.71743 7.84443C4.70837 7.87942 4.69986 7.91432 4.69191 7.94914C4.69016 7.95683 4.68852 7.96456 4.68682 7.97227C4.67882 8.00872 4.67139 8.04506 4.66453 8.08128C4.66401 8.08402 4.66337 8.0867 4.66286 8.08944H2.24588C2.01286 8.08918 1.78946 7.9965 1.62469 7.83173C1.45992 7.66696 1.36724 7.44356 1.36698 7.21054ZM8.55448 19.4176H3.10526C2.87224 19.4173 2.64884 19.3246 2.48407 19.1599C2.3193 18.9951 2.22661 18.7717 2.22635 18.5387V16.4444C2.7682 16.2262 3.14511 15.9139 3.5116 15.6098C3.81821 15.3553 4.10782 15.1149 4.49417 14.9252C5.19845 14.5795 6.06476 14.4965 7.06984 14.6765C7.12801 14.8567 7.22793 15.0206 7.36144 15.1549C7.49496 15.2891 7.6583 15.39 7.83816 15.4492C7.83935 15.6522 7.89211 15.8516 7.9915 16.0287C8.09089 16.2058 8.23364 16.3547 8.40635 16.4614C8.45385 16.4906 8.50335 16.5163 8.55448 16.5384V19.4176ZM8.71275 15.962C8.60171 15.8938 8.51559 15.7917 8.46715 15.6707C8.4187 15.5497 8.41052 15.4164 8.4438 15.2904C8.45844 15.2355 8.48103 15.1831 8.51084 15.1348C8.55241 15.067 8.60713 15.0082 8.67178 14.9619C8.68935 14.9833 8.70742 15.0043 8.72599 15.0247L8.72631 15.0251L8.7266 15.0254C8.72693 15.0258 8.72731 15.0261 8.72764 15.0264C8.94527 15.2672 9.22759 15.4402 9.54088 15.5249C9.56795 15.5323 9.59513 15.5389 9.62244 15.5449C9.61061 15.6235 9.58308 15.6989 9.54149 15.7667L9.54138 15.7669C9.51167 15.8156 9.47506 15.8597 9.4327 15.8978C9.33546 15.9843 9.21297 16.0373 9.08332 16.0488C8.95368 16.0604 8.82376 16.0299 8.71275 15.962ZM10.8592 19.4176H9.14042V16.6308C9.2887 16.6172 9.43316 16.5761 9.56636 16.5095C9.79182 16.7327 10.096 16.8582 10.4133 16.8589C10.5663 16.8592 10.7178 16.8291 10.8592 16.7704V19.4176ZM11.0079 15.7059C11.0013 15.835 10.9531 15.9586 10.8703 16.0579C10.7876 16.1573 10.6749 16.2272 10.5491 16.2571C10.4547 16.279 10.3565 16.2781 10.2626 16.2546C10.1686 16.231 10.0816 16.1855 10.0087 16.1217C10.0196 16.1057 10.0307 16.0898 10.0409 16.0731C10.1351 15.9197 10.1928 15.7468 10.2097 15.5676C10.2639 15.5602 10.3179 15.5512 10.3714 15.5386C10.5283 15.5016 10.6789 15.4421 10.8188 15.3621C10.8429 15.3484 10.8667 15.334 10.8902 15.319C10.9729 15.4305 11.0145 15.5672 11.0079 15.7059ZM11.0736 13.9641C11.0699 14.0404 11.0581 14.1161 11.0382 14.1899C10.9838 14.3943 10.8709 14.5784 10.7134 14.7195C10.6566 14.7707 10.5945 14.8156 10.528 14.8534C10.3438 14.9586 10.133 15.0082 9.92113 14.9961C9.84447 14.992 9.76847 14.9797 9.69442 14.9594C9.48859 14.9038 9.30319 14.79 9.16048 14.6316C8.96512 14.4157 8.8635 14.131 8.87796 13.8402C8.88164 13.7638 8.89352 13.6881 8.91338 13.6143C8.96776 13.4099 9.08075 13.2259 9.23843 13.085C9.29504 13.0338 9.35707 12.989 9.42341 12.9513C9.60776 12.8462 9.81852 12.7965 10.0304 12.8082C10.1072 12.8122 10.1834 12.8245 10.2575 12.845C10.4632 12.9004 10.6484 13.014 10.791 13.1723C10.8429 13.2294 10.8885 13.292 10.927 13.3589C10.9798 13.4503 11.0193 13.5487 11.044 13.6513C11.069 13.7536 11.0789 13.859 11.0736 13.9641ZM11.2253 12.7789L11.2252 12.7787L11.225 12.7785L11.2242 12.7777C11.0783 12.6169 10.9028 12.4857 10.7074 12.3912C10.7462 12.2148 10.7443 12.032 10.7017 11.8565C10.6971 11.8376 10.6914 11.8191 10.6859 11.8006C10.7903 11.7567 10.9048 11.7428 11.0165 11.7605C11.1283 11.7783 11.2329 11.827 11.3185 11.901C11.4041 11.9751 11.4672 12.0716 11.5008 12.1797C11.5344 12.2878 11.5371 12.4031 11.5086 12.5126C11.4935 12.568 11.4706 12.6208 11.4405 12.6697C11.3991 12.7374 11.3446 12.7961 11.2801 12.8424C11.2624 12.8208 11.2441 12.7996 11.2253 12.7789ZM11.6042 14.3417C11.6111 14.3159 11.6175 14.2899 11.6231 14.2637C11.7212 14.2788 11.814 14.3179 11.8934 14.3775C11.9728 14.437 12.0363 14.5152 12.0784 14.6051C12.1204 14.695 12.1397 14.7938 12.1345 14.893C12.1293 14.9921 12.0997 15.0884 12.0485 15.1734C11.9977 15.2552 11.9281 15.3236 11.8454 15.3729C11.7627 15.4222 11.6694 15.451 11.5733 15.4568C11.5695 15.4368 11.5658 15.4168 11.561 15.397C11.5183 15.2216 11.4362 15.0582 11.321 14.9192C11.4519 14.7469 11.5481 14.5508 11.6042 14.3417ZM11.5662 13.3559C11.7181 13.2596 11.846 13.1298 11.9399 12.9763C11.9502 12.9596 11.9595 12.9423 11.9689 12.925C12.0589 12.9611 12.1389 13.018 12.2025 13.0911C12.2661 13.1641 12.3114 13.2513 12.3347 13.3454C12.357 13.4385 12.3567 13.5356 12.3339 13.6287C12.311 13.7217 12.2662 13.8078 12.2031 13.88C12.1866 13.8687 12.1701 13.8573 12.1531 13.8468C11.9985 13.7518 11.8242 13.6933 11.6436 13.6759C11.6359 13.6212 11.6265 13.5667 11.6133 13.5127C11.6004 13.4594 11.584 13.4073 11.5662 13.3559ZM17.7732 18.5387C17.773 18.7717 17.6803 18.9951 17.5155 19.1599C17.3507 19.3246 17.1273 19.4173 16.8943 19.4176H11.4451V16.2667C11.4451 16.2613 11.4446 16.256 11.4443 16.2507C11.4811 16.1847 11.5116 16.1154 11.5352 16.0437C11.7382 16.0447 11.9381 15.9933 12.1155 15.8945C12.2929 15.7957 12.4418 15.6529 12.5479 15.4798C12.654 15.3067 12.7137 15.1092 12.7213 14.9063C12.7288 14.7034 12.6839 14.502 12.5909 14.3215C12.7818 14.1289 12.9014 13.877 12.9301 13.6073C13.0307 13.6143 13.1309 13.6183 13.2304 13.6183C13.5791 13.619 13.9264 13.5742 14.2635 13.4849C15.0509 13.2752 15.5218 12.8853 15.9772 12.5082C16.2848 12.2536 16.5753 12.013 16.9642 11.8229C17.221 11.6988 17.493 11.6092 17.7732 11.5564V18.5387ZM17.7732 10.9607C17.4033 11.0202 17.0441 11.1333 16.7069 11.2965C16.2553 11.5173 15.924 11.7916 15.6035 12.0569C15.178 12.4092 14.776 12.742 14.1127 12.9188C13.6966 13.0272 13.2642 13.0583 12.8369 13.0106C12.7687 12.857 12.6691 12.7194 12.5445 12.6066C12.4199 12.4937 12.2731 12.4082 12.1136 12.3555C12.1123 12.1525 12.0595 11.9531 11.9601 11.7761C11.8607 11.5991 11.718 11.4502 11.5454 11.3434C11.5127 11.3233 11.4791 11.3055 11.4451 11.289V8.67538H12.0998C12.182 9.22915 12.1455 9.79409 11.9926 10.3327C11.9753 10.3928 11.9778 10.457 11.9996 10.5157C12.0215 10.5744 12.0616 10.6245 12.114 10.6588C12.1664 10.693 12.2284 10.7095 12.291 10.706C12.3535 10.7024 12.4132 10.6789 12.4614 10.6388L13.656 9.64654L14.588 10.5843C14.6221 10.6186 14.6642 10.644 14.7105 10.6581C14.7568 10.6721 14.8059 10.6745 14.8533 10.6651C14.9008 10.6556 14.9451 10.6344 14.9824 10.6036C15.0197 10.5728 15.0488 10.5332 15.0671 10.4884C15.2973 9.91222 15.4099 9.29576 15.3982 8.67538H17.7537C17.7602 8.67538 17.7667 8.67497 17.7732 8.67488V10.9607ZM17.7537 8.08944H15.3367C15.3362 8.08671 15.3356 8.08402 15.3351 8.08129C15.3283 8.04506 15.3208 8.00872 15.3128 7.97227C15.3111 7.96456 15.3094 7.95684 15.3077 7.94915C15.2998 7.91432 15.2913 7.87942 15.2822 7.84444C15.2798 7.8352 15.2774 7.82596 15.2749 7.81676C15.2662 7.7842 15.2569 7.75159 15.2471 7.71894C15.2436 7.70719 15.2401 7.69547 15.2364 7.68377C15.2272 7.65401 15.2175 7.62422 15.2073 7.5944C15.2022 7.57951 15.197 7.5647 15.1917 7.54989C15.1822 7.52328 15.1725 7.49667 15.1623 7.47004C15.1551 7.45125 15.1475 7.43263 15.1399 7.41399C15.1307 7.39109 15.1214 7.36819 15.1116 7.34528C15.101 7.32082 15.0899 7.29666 15.0788 7.27247C15.0708 7.25497 15.0631 7.23747 15.0547 7.21998C15.0344 7.17753 15.0133 7.13543 14.9912 7.09386C14.9664 7.04726 14.9403 7.00158 14.9135 6.95636C14.9058 6.94334 14.8978 6.9305 14.89 6.91759C14.8695 6.88402 14.8485 6.85085 14.827 6.81808C14.8188 6.8056 14.8107 6.79305 14.8024 6.78069C14.7438 6.69391 14.6815 6.61003 14.6156 6.52906C14.6064 6.51771 14.597 6.50655 14.5876 6.49531C14.5622 6.46487 14.5364 6.43486 14.51 6.40528C14.5005 6.39463 14.4911 6.38391 14.4815 6.37337C14.411 6.2961 14.3372 6.22189 14.2602 6.15077C14.2497 6.14104 14.239 6.13151 14.2283 6.1219C14.1986 6.09505 14.1684 6.06866 14.1378 6.04274C14.127 6.03366 14.1164 6.0245 14.1056 6.01554C14.0246 5.94852 13.9408 5.88473 13.8541 5.82417C13.8422 5.81581 13.83 5.80764 13.818 5.7994C13.7848 5.77673 13.7512 5.75455 13.7172 5.73284C13.7051 5.7251 13.6931 5.71727 13.6809 5.70965C13.6364 5.68188 13.5915 5.65464 13.5458 5.62851H17.7537C17.9867 5.62877 18.2101 5.72145 18.3749 5.88622C18.5397 6.05099 18.6323 6.27439 18.6326 6.50741V7.21054C18.6323 7.44356 18.5397 7.66696 18.3749 7.83173C18.2101 7.9965 17.9867 8.08918 17.7537 8.08944Z" fill="#EC4850"/>
</g>
<defs>
<clipPath id="clip0_860_47222">
<rect width="20" height="20" fill="white"/>
</clipPath>
</defs>
</svg>
