<svg width="20" height="21" viewBox="0 0 20 21" fill="none" xmlns="http://www.w3.org/2000/svg">
<path d="M4.44948 9.70325C4.43572 9.67838 4.42677 9.6509 4.42313 9.62239C4.4195 9.59388 4.42125 9.5649 4.42829 9.53711C4.43534 9.50931 4.44753 9.48325 4.46418 9.46041C4.48083 9.43756 4.50161 9.4184 4.52532 9.404C4.76715 9.26423 4.9963 9.10153 5.2099 8.91793C5.4524 8.69918 5.79115 8.38287 6.17573 8.025L6.91282 7.34031C6.95426 7.3019 7.00853 7.28235 7.0637 7.28596C7.11886 7.28957 7.17041 7.31605 7.20698 7.35956C7.24356 7.40307 7.26218 7.46006 7.25874 7.51798C7.2553 7.57591 7.23009 7.63003 7.18865 7.66843L6.4524 8.35268C6.06573 8.71187 5.72573 9.02862 5.48198 9.24912C5.24878 9.45085 4.99842 9.62966 4.73407 9.78331C4.7024 9.80251 4.66647 9.81262 4.6299 9.81262C4.59333 9.81262 4.55741 9.80251 4.52574 9.78331C4.49407 9.76411 4.46777 9.7365 4.44948 9.70325ZM16.6703 13.6241C16.2995 13.7838 15.9274 13.9426 15.612 14.0743C15.3587 14.1797 14.9995 14.3666 14.5899 14.5818C14.5402 14.6078 14.5023 14.6535 14.4847 14.7088C14.467 14.7641 14.471 14.8245 14.4957 14.8767C14.5205 14.9289 14.564 14.9686 14.6166 14.9872C14.6693 15.0057 14.7268 15.0015 14.7766 14.9756C15.1774 14.7647 15.5266 14.5818 15.7657 14.4829C16.0828 14.3517 16.4566 14.1911 16.8282 14.031C16.8543 14.0207 16.8781 14.0049 16.8982 13.9848C16.9184 13.9646 16.9345 13.9404 16.9456 13.9136C16.9567 13.8868 16.9625 13.8579 16.9628 13.8287C16.9631 13.7995 16.9578 13.7705 16.9473 13.7435C16.9367 13.7164 16.9211 13.6919 16.9014 13.6713C16.8816 13.6507 16.8582 13.6344 16.8323 13.6235C16.8065 13.6126 16.7789 13.6072 16.7511 13.6077C16.7232 13.6082 16.6958 13.6145 16.6703 13.6263V13.6241ZM18.4203 11.4217C18.3831 11.59 18.3083 11.7465 18.2021 11.8783C18.0959 12.0102 17.9613 12.1135 17.8095 12.1799C17.2261 12.4359 16.0907 12.9329 15.3032 13.261C14.9966 13.3887 14.5866 13.6049 14.1111 13.8551C12.9103 14.4869 11.2666 15.3518 9.63407 15.6707C8.4818 15.8922 7.31297 16.0049 6.14157 16.0076C4.51657 16.0076 2.96532 15.7692 2.0099 15.1672C1.86341 15.0429 1.74236 14.8888 1.654 14.7141C1.56565 14.5395 1.51181 14.3479 1.49573 14.1509C1.38703 13.6029 1.48822 13.0321 1.7774 12.5619C1.77804 12.5582 1.77887 12.5545 1.7799 12.5509V12.5466C1.85361 12.4096 1.95984 12.2951 2.08823 12.2141C2.58446 11.9024 3.09631 11.6191 3.62157 11.3653C4.47354 10.9799 5.28028 10.4925 6.02573 9.91281C6.0799 9.86468 6.13823 9.80781 6.20073 9.75093C6.32573 9.63718 6.4674 9.50593 6.62157 9.36156C6.74657 9.38343 6.93407 9.41406 7.15073 9.45781C7.83262 9.57676 8.48877 9.82271 9.08823 10.1841C9.12355 10.2062 9.16377 10.2183 9.2049 10.2191C9.23923 10.2187 9.27299 10.2097 9.30341 10.193C9.33383 10.1763 9.36004 10.1522 9.3799 10.1228C9.40934 10.0732 9.41928 10.0136 9.40762 9.95642C9.39595 9.89928 9.36361 9.84913 9.3174 9.81656C8.76794 9.47105 8.16619 9.2269 7.53823 9.09468C7.35073 9.05093 7.17573 9.01593 7.02573 8.98531C7.0434 8.97204 7.06012 8.95741 7.07573 8.94156C7.1674 8.85843 7.25907 8.77093 7.3549 8.68343C7.48407 8.70968 7.6549 8.74906 7.85073 8.80156C8.52039 8.96813 9.16426 9.23325 9.76323 9.58906C9.79586 9.60982 9.83342 9.62044 9.87157 9.61968C9.90737 9.61909 9.94247 9.60919 9.97374 9.59086C10.005 9.57254 10.0315 9.54637 10.0507 9.51468C10.0788 9.46419 10.0867 9.40406 10.0726 9.34747C10.0586 9.29088 10.0237 9.24246 9.97573 9.21281C9.42724 8.8816 8.84049 8.62576 8.2299 8.45156C8.05073 8.39906 7.88823 8.35531 7.7424 8.32468C7.82157 8.25031 7.9049 8.17593 7.98407 8.10156C8.1174 8.13218 8.28823 8.17156 8.4799 8.21968C9.16138 8.38519 9.81962 8.64253 10.4382 8.98531C10.4709 9.00607 10.5084 9.01669 10.5466 9.01593C10.592 9.01545 10.6361 8.99935 10.672 8.97011C10.708 8.94087 10.7338 8.90009 10.7456 8.85398C10.7574 8.80788 10.7545 8.75898 10.7374 8.71476C10.7203 8.67054 10.6898 8.63342 10.6507 8.60906C10.0845 8.28671 9.4828 8.0384 8.85907 7.86968C8.68407 7.82156 8.52157 7.77781 8.37573 7.73843C8.4674 7.65531 8.55907 7.57218 8.64657 7.48906C8.77157 7.51531 8.94657 7.55468 9.1549 7.60718C9.84019 7.76392 10.5009 8.02168 11.1174 8.37281C11.15 8.39357 11.1876 8.40419 11.2257 8.40343C11.2615 8.40284 11.2966 8.39294 11.3279 8.37461C11.3592 8.35629 11.3856 8.33012 11.4049 8.29843C11.4327 8.2483 11.4409 8.18878 11.4276 8.13245C11.4144 8.07612 11.3809 8.02739 11.3341 7.99656C10.7721 7.6679 10.171 7.41926 9.54657 7.25718C9.36323 7.20468 9.1924 7.16093 9.0424 7.13031C9.48395 6.7188 9.94569 6.33181 10.4257 5.97093C10.6088 5.84116 10.8163 5.75443 11.0342 5.71667C11.2521 5.67892 11.4752 5.69103 11.6882 5.75218C11.9004 5.82477 12.0968 5.94058 12.2662 6.09298C12.4357 6.24538 12.5748 6.43137 12.6757 6.64031C13.1218 6.46909 13.555 6.26289 13.9716 6.02343C15.0299 5.46343 16.2257 4.82906 16.9049 5.03031C17.0231 5.06366 17.1318 5.12672 17.2216 5.21406C17.2464 5.22759 17.2689 5.24533 17.2882 5.26656C17.7545 5.88119 18.1007 6.58646 18.3067 7.34189C18.5128 8.09732 18.5748 8.88804 18.4891 9.66868V9.67743C18.5815 10.2575 18.5584 10.8515 18.4212 11.4217H18.4203ZM11.5682 8.53118C11.5682 8.57445 11.5805 8.61674 11.6033 8.65271C11.6262 8.68869 11.6588 8.71672 11.6968 8.73328C11.7349 8.74984 11.7768 8.75417 11.8172 8.74573C11.8576 8.73729 11.8947 8.71646 11.9239 8.68586C11.953 8.65527 11.9729 8.61629 11.9809 8.57386C11.9889 8.53143 11.9848 8.48744 11.969 8.44747C11.9533 8.4075 11.9266 8.37334 11.8923 8.3493C11.8581 8.32526 11.8178 8.31243 11.7766 8.31243C11.7213 8.31243 11.6683 8.33548 11.6293 8.3765C11.5902 8.41753 11.5682 8.47317 11.5682 8.53118ZM12.8849 7.03056C13.1277 7.32112 13.4398 7.53856 13.7891 7.66056C14.3497 7.90206 14.9784 7.90206 15.5391 7.66056C16.2682 7.29743 17.0557 6.25618 17.0099 5.70931C17.0081 5.64581 16.9849 5.58504 16.9445 5.53779C16.9041 5.49053 16.849 5.45985 16.7891 5.45118C16.2724 5.29806 15.0516 5.94118 14.1599 6.41368C13.7477 6.64708 13.3219 6.85283 12.8849 7.02968V7.03056ZM10.8807 9.12618C10.8807 9.1842 10.9027 9.23984 10.9418 9.28086C10.9808 9.32189 11.0338 9.34493 11.0891 9.34493C11.1441 9.34403 11.1965 9.32069 11.2354 9.27987C11.2743 9.23904 11.2965 9.18392 11.2974 9.12618C11.2974 9.06817 11.2755 9.01253 11.2364 8.9715C11.1973 8.93048 11.1443 8.90743 11.0891 8.90743C11.034 8.90743 10.9811 8.93036 10.942 8.97119C10.903 9.01203 10.881 9.06744 10.8807 9.12531V9.12618ZM10.1682 9.72993C10.1682 9.78795 10.1902 9.84359 10.2293 9.88461C10.2683 9.92564 10.3213 9.94868 10.3766 9.94868C10.4318 9.94868 10.4848 9.92564 10.5239 9.88461C10.563 9.84359 10.5849 9.78795 10.5849 9.72993C10.584 9.6722 10.5618 9.61708 10.5229 9.57625C10.484 9.53542 10.4316 9.51209 10.3766 9.51118C10.3215 9.51118 10.2686 9.53411 10.2295 9.57494C10.1905 9.61578 10.1685 9.67119 10.1682 9.72906V9.72993ZM9.45573 10.3906C9.45573 10.4486 9.47768 10.5042 9.51675 10.5452C9.55582 10.5863 9.60881 10.6093 9.66407 10.6093C9.71932 10.6093 9.77231 10.5863 9.81138 10.5452C9.85045 10.5042 9.8724 10.4486 9.8724 10.3906C9.87154 10.3328 9.84932 10.2777 9.81043 10.2369C9.77155 10.196 9.71905 10.1727 9.66407 10.1718C9.60896 10.1718 9.55609 10.1947 9.51705 10.2356C9.478 10.2764 9.45595 10.3318 9.45573 10.3897V10.3906ZM2.16407 12.7399C2.1974 12.9193 3.1474 13.3306 5.2724 13.5012C7.43945 13.5802 9.6042 13.2861 11.6807 12.6306C12.6093 12.3048 13.5168 11.9161 14.3974 11.4668C14.6057 11.3662 14.8057 11.2699 15.0016 11.1781C14.6026 11.0907 14.1992 11.0279 13.7932 10.9899C12.9808 10.96 12.1677 11.0231 11.3682 11.1781C10.8072 11.2766 10.2408 11.338 9.6724 11.3618C9.39184 11.39 9.11032 11.3192 8.8724 11.1606C7.67657 10.1324 6.68073 10.0974 6.44323 10.1149C6.38907 10.1587 6.34323 10.2024 6.2974 10.2418C5.52532 10.8493 4.68757 11.3589 3.80157 11.7599C3.29332 12.0057 2.79814 12.2803 2.31823 12.5824C2.1974 12.6647 2.16407 12.7259 2.16407 12.7391V12.7399ZM18.1178 10.0979C17.5716 10.5264 16.9642 10.8614 16.3182 11.0906C16.1266 11.1562 15.9182 11.2393 15.6932 11.3356C15.6774 11.3447 15.6606 11.352 15.6432 11.3574C15.3099 11.5062 14.9474 11.6812 14.5682 11.8649C13.6717 12.322 12.7475 12.7166 11.8016 13.0462C9.94725 13.6233 8.027 13.9338 6.09323 13.9693C5.80157 13.9693 5.51407 13.9562 5.23907 13.9343C4.20032 13.8516 2.54573 13.6469 1.96157 13.1429C1.87442 13.4458 1.85573 13.7659 1.90698 14.0778C1.92624 14.349 2.03932 14.6034 2.2249 14.7931C3.72115 15.7355 7.04698 15.7324 9.55823 15.2416C11.1332 14.9353 12.747 14.0848 13.9253 13.4649C14.4091 13.2098 14.827 12.9902 15.1503 12.8554C15.9863 12.5029 16.8197 12.1434 17.6503 11.777C17.7411 11.7378 17.8217 11.6764 17.8854 11.5978C17.949 11.5193 17.9938 11.4259 18.0162 11.3255C18.1063 10.9233 18.1405 10.5095 18.1178 10.097V10.0979ZM3.71532 10.3249C3.75652 10.3249 3.7968 10.3121 3.83106 10.2881C3.86532 10.264 3.89202 10.2299 3.90779 10.1899C3.92356 10.1499 3.92769 10.1059 3.91965 10.0635C3.91161 10.0211 3.89177 9.9821 3.86263 9.9515C3.8335 9.92091 3.79637 9.90008 3.75596 9.89164C3.71555 9.8832 3.67366 9.88753 3.63559 9.90408C3.59752 9.92064 3.56499 9.94868 3.54209 9.98465C3.5192 10.0206 3.50698 10.0629 3.50698 10.1062C3.50698 10.1642 3.52893 10.2198 3.568 10.2609C3.60707 10.3019 3.66006 10.3249 3.71532 10.3249ZM17.7153 13.3091C17.6741 13.3091 17.6338 13.3219 17.5996 13.346C17.5653 13.37 17.5386 13.4042 17.5228 13.4442C17.5071 13.4841 17.5029 13.5281 17.511 13.5705C17.519 13.613 17.5389 13.652 17.568 13.6826C17.5971 13.7131 17.6343 13.734 17.6747 13.7424C17.7151 13.7509 17.757 13.7465 17.795 13.73C17.8331 13.7134 17.8656 13.6854 17.8885 13.6494C17.9114 13.6134 17.9237 13.5711 17.9237 13.5279C17.9233 13.4699 17.9011 13.4145 17.8619 13.3737C17.8227 13.333 17.7697 13.3102 17.7145 13.3104L17.7153 13.3091Z" fill="#21B8F3"/>
</svg>
