<svg width="20" height="20" viewBox="0 0 20 20" fill="none" xmlns="http://www.w3.org/2000/svg">
<g clip-path="url(#clip0_860_47312)">
<path d="M15.3672 15.0005C15.2567 15.0005 15.1507 14.9566 15.0726 14.8785C14.9944 14.8004 14.9505 14.6944 14.9505 14.5839V13.7505C14.9505 13.64 14.9944 13.534 15.0726 13.4559C15.1507 13.3778 15.2567 13.3339 15.3672 13.3339C15.4777 13.3339 15.5837 13.3778 15.6618 13.4559C15.74 13.534 15.7839 13.64 15.7839 13.7505V14.5839C15.7839 14.6944 15.74 14.8004 15.6618 14.8785C15.5837 14.9566 15.4777 15.0005 15.3672 15.0005ZM14.9505 19.5839H13.2839C12.8243 19.5839 12.4505 19.2101 12.4505 18.7505V15.8339H15.7839V18.7505C15.7839 19.2101 15.4101 19.5839 14.9505 19.5839ZM13.2839 16.6672V18.7505H14.9509L14.9505 16.6672H13.2839ZM15.0089 12.3897L14.8184 12.1993C14.7906 12.1723 14.7594 12.149 14.7255 12.1301C14.6699 12.1015 14.6085 12.0857 14.5459 12.0839H13.7005C13.6478 12.0831 13.5954 12.0929 13.5465 12.1128C13.4977 12.1326 13.4533 12.162 13.4159 12.1993L13.2255 12.3897L12.9739 12.2943C12.1368 11.9776 11.6172 11.338 11.6172 10.6251C11.6172 9.57387 12.7155 8.75012 14.1172 8.75012C14.444 8.74723 14.7692 8.79646 15.0805 8.89595C15.2376 8.93929 15.4026 9.0072 15.5672 9.0972C16.2218 9.43762 16.6172 10.0105 16.6172 10.6251C16.6172 11.338 16.0972 11.9776 15.2605 12.2943L15.0089 12.3897ZM13.7005 11.2505H14.5589C14.7647 11.2568 14.9572 11.3085 15.128 11.4005L15.1689 11.4247C15.5489 11.2268 15.7843 10.9276 15.7843 10.6255C15.7843 10.3276 15.5568 10.031 15.1751 9.83262C15.0688 9.77337 14.9559 9.72667 14.8389 9.69345C14.6057 9.61866 14.362 9.58166 14.1172 9.58387C13.2139 9.58387 12.4505 10.061 12.4505 10.6255C12.4505 10.9272 12.6855 11.2264 13.0651 11.4243C13.2573 11.31 13.4769 11.2499 13.7005 11.2505Z" fill="#2F5DD5"/>
<path d="M15.262 16.6667H13.2786C12.8191 16.6667 12.4453 16.2929 12.4453 15.8334V12.5C12.4453 12.1604 12.5853 11.8325 12.8299 11.6017C12.9439 11.4891 13.0791 11.4 13.2276 11.3397C13.3761 11.2793 13.535 11.2489 13.6953 11.25H14.5536C14.7595 11.2563 14.952 11.3079 15.1228 11.4C15.2316 11.4609 15.3236 11.5304 15.4024 11.6096C15.6382 11.8325 15.7786 12.16 15.7786 12.5V12.9888C15.9766 12.9188 16.1911 12.8988 16.4053 12.935C16.9974 13.0317 17.4453 13.5813 17.4453 14.2125V15.1584C17.4453 15.478 17.2695 15.7646 16.9857 15.9063L15.6345 16.5771C15.5191 16.6359 15.3915 16.6665 15.262 16.6667ZM14.5407 12.0834H13.6953C13.6426 12.0826 13.5902 12.0924 13.5413 12.1123C13.4925 12.1321 13.448 12.1615 13.4107 12.1988C13.3689 12.237 13.3356 12.2836 13.3128 12.3354C13.2901 12.3873 13.2784 12.4434 13.2786 12.5V15.8334H15.262L16.6141 15.1604L16.612 14.2129C16.612 13.9888 16.4616 13.7888 16.2699 13.7575C16.2099 13.7466 16.1482 13.749 16.0892 13.7645C16.0302 13.7801 15.9753 13.8084 15.9285 13.8474C15.8816 13.8865 15.8439 13.9354 15.818 13.9906C15.7921 14.0459 15.7787 14.1061 15.7786 14.1671H14.9453V12.5004C14.946 12.4457 14.9353 12.3915 14.914 12.3411C14.8927 12.2907 14.8612 12.2452 14.8216 12.2075C14.7914 12.1773 14.7574 12.1512 14.7203 12.13C14.6648 12.1011 14.6033 12.0851 14.5407 12.0834Z" fill="#2F5DD5"/>
<path d="M15.2031 5.85742L14.3698 5.97826C14.4656 6.28659 14.5198 6.60742 14.5323 6.94075L13.2865 6.13242C12.9031 5.88659 12.4156 5.86576 12.0198 6.08242L7.03646 8.74909L6.20312 9.19492V9.99909C6.20312 10.0449 6.20313 10.0908 6.20729 10.1366C6.25729 11.9033 7.32396 13.4866 8.94896 14.1949C9.52812 14.4533 10.1448 14.5824 10.7781 14.5824C10.8823 14.5824 10.9865 14.5783 11.0906 14.5741C11.6281 14.5366 12.1406 14.4074 12.6281 14.1824C12.7698 14.1199 12.9365 14.0366 13.0948 13.9324L13.2865 13.8074V12.4991C13.2865 12.3866 13.3281 12.2824 13.4073 12.2074L13.8906 11.7491L13.2698 11.5116C12.774 11.3241 12.4531 10.9783 12.4531 10.6241C12.4531 10.0574 13.2156 9.58242 14.1198 9.58242C14.374 9.58242 14.6115 9.61575 14.8198 9.68659L15.3698 9.86576V7.08242C15.3698 6.66159 15.3156 6.24909 15.2031 5.85742ZM14.5365 8.77409C14.399 8.75742 14.2615 8.74909 14.1198 8.74909C12.7156 8.74909 11.6198 9.57409 11.6198 10.6241C11.6198 11.1991 11.9573 11.7283 12.524 12.0741C12.4781 12.2116 12.4531 12.3533 12.4531 12.4991V13.3449C12.3906 13.3741 12.3323 13.4033 12.2781 13.4283C11.8865 13.6074 11.4698 13.7116 11.0365 13.7408C10.4281 13.7824 9.83646 13.6783 9.28229 13.4324C8.61408 13.1413 8.04552 12.6612 7.64652 12.0512C7.24752 11.4413 7.03548 10.728 7.03646 9.99909V9.69492L12.4198 6.81576C12.4823 6.78242 12.549 6.76575 12.6156 6.76575C12.6531 6.76575 12.6906 6.76992 12.7281 6.78242C12.7573 6.79076 12.7906 6.80325 12.8198 6.82409C12.824 6.82409 12.8281 6.82409 12.8323 6.82825L14.5365 7.93659V8.77409Z" fill="#2F5DD5"/>
<path d="M15.2031 5.85821C14.9406 4.89154 14.3615 4.03738 13.5365 3.42071C13.1948 3.16654 12.8281 2.96238 12.449 2.81654C11.4031 2.39988 10.1823 2.39571 9.12396 2.81238C7.37812 3.49154 6.20312 5.20821 6.20312 7.08321V10.1415L6.20729 10.1374L7.03646 9.69571L12.4198 6.81654C12.4823 6.78321 12.549 6.76654 12.6156 6.76654C12.6531 6.76654 12.6906 6.77071 12.7281 6.78321C12.7573 6.79154 12.7906 6.80404 12.8198 6.82488C12.824 6.82488 12.8281 6.82488 12.8323 6.82904L14.5365 7.93738L15.224 8.38738L15.3156 7.74571C15.3531 7.51654 15.3698 7.29988 15.3698 7.08321C15.3698 6.66238 15.3156 6.24988 15.2031 5.85821ZM13.2865 6.13321C12.9031 5.88738 12.4156 5.86654 12.0198 6.08321L7.03646 8.74988V7.08321C7.03646 5.54988 7.99479 4.14571 9.42813 3.58738C9.85729 3.42071 10.3156 3.33321 10.7865 3.33321C11.2573 3.33321 11.7115 3.42071 12.1448 3.59154C12.4573 3.71238 12.7573 3.87904 13.0365 4.08738C13.6697 4.56108 14.1366 5.22336 14.3698 5.97904C14.4656 6.28738 14.5198 6.60821 14.5323 6.94154L13.2865 6.13321Z" fill="#2F5DD5"/>
<path d="M12.497 3.73729L12.1316 3.5902C11.2836 3.24937 10.2857 3.24854 9.4224 3.58687L9.06531 3.72729L8.89615 3.3827C8.76205 3.10766 8.69332 2.80535 8.69531 2.49937C8.69531 1.35062 9.6299 0.416038 10.7786 0.416038C11.9274 0.416038 12.862 1.35062 12.862 2.49937C12.8612 2.80406 12.7937 3.10488 12.6641 3.38062L12.497 3.73729ZM10.7786 2.49937C11.2041 2.49937 11.6186 2.55687 12.0161 2.67104C12.0404 2.49418 12.0265 2.31417 11.9755 2.14311C11.9244 1.97205 11.8374 1.81389 11.7202 1.67924C11.603 1.54459 11.4583 1.43657 11.2959 1.36243C11.1335 1.28829 10.9572 1.24974 10.7786 1.24937C10.6002 1.24959 10.4238 1.28797 10.2614 1.36194C10.099 1.4359 9.9543 1.54374 9.83698 1.67822C9.71967 1.8127 9.63247 1.97071 9.58123 2.14166C9.52999 2.31261 9.51589 2.49253 9.5399 2.66937C9.94303 2.55602 10.3599 2.49881 10.7786 2.49937ZM5.36198 19.5827C5.25147 19.5827 5.14549 19.5388 5.06735 19.4607C4.98921 19.3825 4.94531 19.2765 4.94531 19.166V17.0827C4.94531 15.934 5.8799 14.9994 7.02865 14.9994H8.69531V13.816C8.69531 13.7055 8.73921 13.5996 8.81735 13.5214C8.89549 13.4433 9.00147 13.3994 9.11198 13.3994C9.22249 13.3994 9.32847 13.4433 9.40661 13.5214C9.48475 13.5996 9.52865 13.7055 9.52865 13.816V14.9994C9.52865 15.459 9.1549 15.8327 8.69531 15.8327H7.02865C6.33948 15.8327 5.77865 16.3935 5.77865 17.0827V19.166C5.77865 19.2765 5.73475 19.3825 5.65661 19.4607C5.57847 19.5388 5.47249 19.5827 5.36198 19.5827ZM3.33073 4.58271C2.64156 4.58271 2.08073 4.02187 2.08073 3.3327C2.08073 2.64354 2.64156 2.0827 3.33073 2.0827C4.0199 2.0827 4.58073 2.64354 4.58073 3.3327C4.58073 4.02187 4.0199 4.58271 3.33073 4.58271ZM3.33073 2.91604C3.22345 2.92084 3.12215 2.96683 3.04793 3.04445C2.97371 3.12206 2.93228 3.22531 2.93228 3.3327C2.93228 3.4401 2.97371 3.54335 3.04793 3.62096C3.12215 3.69858 3.22345 3.74457 3.33073 3.74937C3.43801 3.74457 3.53931 3.69858 3.61353 3.62096C3.68775 3.54335 3.72917 3.4401 3.72917 3.3327C3.72917 3.22531 3.68775 3.12206 3.61353 3.04445C3.53931 2.96683 3.43801 2.92084 3.33073 2.91604ZM3.33073 1.24937C3.27587 1.24983 3.22147 1.23938 3.17069 1.21864C3.1199 1.19789 3.07375 1.16727 3.0349 1.12854C2.9974 1.08646 2.96823 1.04104 2.9474 0.991038C2.92656 0.941038 2.91406 0.886872 2.91406 0.832705C2.91406 0.778538 2.92656 0.724372 2.9474 0.674372C2.96823 0.620205 2.9974 0.578538 3.0349 0.536872C3.07656 0.499372 3.1224 0.470205 3.1724 0.449372C3.2724 0.407288 3.38906 0.403538 3.48906 0.449372C3.53906 0.470205 3.5849 0.499372 3.62656 0.536872C3.66406 0.578538 3.69323 0.620205 3.71406 0.674372C3.7349 0.724372 3.7474 0.778538 3.7474 0.832705C3.7474 0.886872 3.7349 0.941038 3.71406 0.991038C3.69323 1.04104 3.66406 1.08646 3.62656 1.12854C3.5849 1.16604 3.53906 1.19521 3.48906 1.21604C3.43906 1.23687 3.3849 1.24937 3.33073 1.24937ZM3.33073 6.24937C3.27656 6.24937 3.2224 6.23687 3.1724 6.21604C3.1224 6.1952 3.07656 6.16604 3.0349 6.12854C2.9766 6.07025 2.9371 5.99582 2.9215 5.91487C2.90591 5.83392 2.91493 5.75015 2.9474 5.67437C2.96823 5.6202 2.9974 5.57854 3.0349 5.53687C3.07656 5.49937 3.1224 5.4702 3.1724 5.44937C3.22258 5.42853 3.27639 5.41781 3.33073 5.41781C3.38507 5.41781 3.43888 5.42853 3.48906 5.44937C3.53906 5.4702 3.5849 5.49937 3.62656 5.53687C3.66406 5.57854 3.69323 5.6202 3.71406 5.67437C3.74625 5.7502 3.75512 5.8339 3.73953 5.91479C3.72395 5.99568 3.68462 6.0701 3.62656 6.12854C3.5849 6.16604 3.53906 6.1952 3.48906 6.21604C3.43906 6.23687 3.3849 6.24937 3.33073 6.24937ZM5.0974 1.98271C5.04295 1.98204 4.98917 1.97066 4.93913 1.94921C4.88909 1.92777 4.84376 1.89667 4.80573 1.8577C4.76676 1.81968 4.73567 1.77435 4.71422 1.7243C4.69277 1.67426 4.68139 1.62048 4.68073 1.56604C4.68073 1.51187 4.69323 1.45771 4.71406 1.40771C4.7349 1.35354 4.76406 1.3077 4.80573 1.27021C4.84323 1.2327 4.88906 1.20354 4.93906 1.17854C5.03906 1.13645 5.15573 1.13645 5.2599 1.17854C5.3099 1.20354 5.35573 1.2327 5.39323 1.27021C5.43073 1.3077 5.46406 1.35354 5.4849 1.40771C5.50573 1.45771 5.51406 1.51187 5.51406 1.56604C5.51406 1.62021 5.50573 1.67437 5.4849 1.72437C5.46406 1.77437 5.43073 1.8202 5.39323 1.8577C5.35573 1.89937 5.3099 1.92854 5.2599 1.94937C5.20573 1.96979 5.15573 1.98271 5.0974 1.98271ZM1.56406 5.51604C1.50925 5.51637 1.45492 5.50582 1.40422 5.485C1.35352 5.46418 1.30745 5.4335 1.26869 5.39474C1.22994 5.35598 1.19926 5.30992 1.17844 5.25921C1.15761 5.20851 1.14706 5.15418 1.1474 5.09937C1.1474 5.04479 1.15573 4.99062 1.17656 4.94062C1.19932 4.89017 1.2303 4.84384 1.26823 4.80354C1.31648 4.75512 1.37602 4.71945 1.44147 4.69974C1.50693 4.68003 1.57626 4.6769 1.64323 4.69062C1.6724 4.69479 1.6974 4.70312 1.7224 4.71562C1.7474 4.72437 1.7724 4.73687 1.79323 4.75354C1.86232 4.79891 1.91606 4.86413 1.9474 4.94062C1.96823 4.99062 1.98073 5.04479 1.98073 5.09937C1.9805 5.1545 1.96933 5.20903 1.94788 5.25982C1.92642 5.3106 1.8951 5.35662 1.85573 5.3952C1.81823 5.4327 1.7724 5.46604 1.7224 5.48687C1.6724 5.5077 1.61823 5.51604 1.56406 5.51604ZM5.83073 3.74937C5.77656 3.74937 5.7224 3.73687 5.6724 3.71604C5.6224 3.6952 5.57656 3.66604 5.5349 3.62854C5.4766 3.57025 5.4371 3.49582 5.4215 3.41487C5.40591 3.33392 5.41493 3.25015 5.4474 3.17437C5.46823 3.1202 5.4974 3.07854 5.5349 3.03687C5.68906 2.8827 5.9724 2.8827 6.12656 3.03687C6.16406 3.07854 6.19323 3.1202 6.21406 3.17437C6.24625 3.2502 6.25512 3.3339 6.23953 3.41479C6.22395 3.49568 6.18462 3.5701 6.12656 3.62854C6.0849 3.66604 6.03906 3.6952 5.98906 3.71604C5.93906 3.73687 5.8849 3.74937 5.83073 3.74937ZM0.830729 3.74937C0.776562 3.74937 0.722396 3.73687 0.672396 3.71604C0.622396 3.6952 0.576562 3.66604 0.534896 3.62854C0.497396 3.58645 0.468229 3.54104 0.447396 3.49104C0.426563 3.44104 0.414062 3.38687 0.414062 3.3327C0.414062 3.27854 0.426563 3.22437 0.447396 3.17437C0.468229 3.1202 0.497396 3.07854 0.534896 3.03687C0.576562 2.99937 0.622396 2.9702 0.672396 2.94937C0.822396 2.8827 1.0099 2.9202 1.12656 3.03687C1.16406 3.07854 1.19323 3.1202 1.21406 3.17437C1.24625 3.2502 1.25512 3.3339 1.23953 3.41479C1.22395 3.49568 1.18462 3.5701 1.12656 3.62854C1.0849 3.66604 1.03906 3.6952 0.989063 3.71604C0.939063 3.73687 0.884896 3.74937 0.830729 3.74937ZM5.0974 5.51604C5.04323 5.51604 4.98906 5.50729 4.93906 5.48687C4.88906 5.46645 4.84323 5.4327 4.80573 5.3952C4.76636 5.35662 4.73504 5.3106 4.71358 5.25982C4.69212 5.20903 4.68096 5.1545 4.68073 5.09937C4.68073 5.04479 4.69323 4.99062 4.71406 4.94062C4.7454 4.86413 4.79914 4.79891 4.86823 4.75354C4.88906 4.73687 4.91406 4.72437 4.93906 4.71562C5.01494 4.68354 5.09865 4.67477 5.17953 4.69043C5.26041 4.70609 5.3348 4.74546 5.39323 4.80354C5.43073 4.8452 5.46406 4.89104 5.4849 4.94062C5.50573 4.99062 5.51406 5.04479 5.51406 5.09937C5.51462 5.15424 5.50422 5.20868 5.48348 5.25948C5.46274 5.31028 5.43207 5.35644 5.39327 5.39524C5.35446 5.43404 5.30831 5.46471 5.2575 5.48546C5.2067 5.5062 5.15227 5.5166 5.0974 5.51604ZM1.56406 1.98271C1.50573 1.98271 1.45573 1.9702 1.40156 1.94937C1.35081 1.92919 1.30525 1.89786 1.26823 1.8577C1.23073 1.8202 1.1974 1.77437 1.17656 1.72437C1.15649 1.67403 1.14658 1.62022 1.1474 1.56604C1.14702 1.48363 1.17093 1.40293 1.21613 1.33402C1.26133 1.2651 1.32582 1.21103 1.40156 1.17854C1.48073 1.14937 1.56406 1.14104 1.64323 1.15771C1.6724 1.16187 1.6974 1.1702 1.7224 1.17854C1.7474 1.19062 1.7724 1.20354 1.79323 1.22021C1.81823 1.23271 1.83906 1.24937 1.8599 1.27021C1.8974 1.3077 1.92656 1.35354 1.9474 1.40771C1.96823 1.45771 1.98073 1.51187 1.98073 1.56604C1.98073 1.62021 1.96823 1.67437 1.9474 1.72437C1.9267 1.77493 1.89614 1.82086 1.85751 1.85949C1.81888 1.89812 1.77295 1.92867 1.7224 1.94937C1.6724 1.96979 1.61823 1.98271 1.56406 1.98271ZM18.3828 6.24937C17.945 6.25085 17.5123 6.15589 17.1154 5.97125C16.7184 5.78661 16.367 5.51681 16.0861 5.18104C15.8135 4.85404 15.6164 4.47098 15.5086 4.05912C15.4009 3.64726 15.3852 3.21672 15.4628 2.79812C15.657 1.73104 16.4774 0.843122 17.5528 0.534788C17.9584 0.415702 18.385 0.385711 18.8032 0.446872C19.1366 0.495622 19.4145 0.725622 19.5278 1.04729C19.6395 1.36354 19.5695 1.71062 19.3453 1.95312C18.9956 2.32751 18.8006 2.8204 18.7995 3.3327C18.7995 3.84145 18.9932 4.33104 19.3449 4.71145C19.5691 4.95395 19.6386 5.30104 19.5266 5.61687C19.471 5.77498 19.3732 5.91485 19.2438 6.02129C19.1144 6.12773 18.9583 6.19667 18.7924 6.22062C18.6567 6.23974 18.5198 6.24935 18.3828 6.24937ZM18.3824 1.24937C18.1832 1.24937 17.9828 1.27812 17.7824 1.33562C17.0091 1.55729 16.4203 2.18979 16.2824 2.94687C16.1699 3.56562 16.327 4.16937 16.7253 4.64687C16.9599 4.92686 17.262 5.14249 17.603 5.27341C17.944 5.40434 18.3128 5.44625 18.6745 5.3952C18.7182 5.38895 18.7357 5.35271 18.7411 5.33771C18.7545 5.3002 18.7386 5.28312 18.7328 5.27687C18.2409 4.74889 17.967 4.05433 17.9661 3.3327C17.9661 2.61229 18.2391 1.92146 18.7345 1.38687C18.7399 1.38104 18.7561 1.36312 18.7428 1.32479C18.7386 1.31119 18.7308 1.29901 18.7201 1.2896C18.7095 1.28018 18.6964 1.27391 18.6824 1.27145C18.5831 1.25682 18.4828 1.24944 18.3824 1.24937Z" fill="#2F5DD5"/>
</g>
<defs>
<clipPath id="clip0_860_47312">
<rect width="20" height="20" fill="white"/>
</clipPath>
</defs>
</svg>
