<svg width="13" height="8" viewBox="0 0 13 8" fill="none" xmlns="http://www.w3.org/2000/svg">
<path d="M6.53001 6.91749C6.48203 6.96919 6.4239 7.01044 6.35925 7.03864C6.2946 7.06684 6.22483 7.0814 6.1543 7.0814C6.08376 7.0814 6.01399 7.06684 5.94934 7.03864C5.8847 7.01044 5.82656 6.96919 5.77858 6.91749L0.291041 1.0076C0.223199 0.934446 0.178183 0.843086 0.161508 0.744721C0.144832 0.646356 0.157225 0.545263 0.197168 0.45384C0.237111 0.362416 0.302869 0.284637 0.386373 0.230041C0.469878 0.175445 0.567498 0.146406 0.667266 0.146485H11.6424C11.742 0.146605 11.8395 0.175789 11.9229 0.230462C12.0062 0.285136 12.0718 0.362926 12.1116 0.454309C12.1514 0.545693 12.1638 0.646703 12.147 0.744973C12.1303 0.843244 12.0853 0.93451 12.0176 1.0076L6.53001 6.91749Z" fill="#212121"/>
</svg>
