<svg width="24" height="15" viewBox="0 0 24 15" fill="none" xmlns="http://www.w3.org/2000/svg">
<path d="M23.606 0.925781H0V5.47478H23.606V0.925781Z" fill="#FF9933"/>
<path d="M23.606 5.47461H0V10.2846H23.606V5.47461Z" fill="white"/>
<path d="M23.606 10.2852H0V14.8342H23.606V10.2852Z" fill="#128807"/>
<path d="M11.8029 6.01477C11.4436 6.0585 11.1046 6.20509 10.8266 6.43689C10.5486 6.66869 10.3435 6.97585 10.2359 7.32144C10.1283 7.66703 10.1228 8.03634 10.22 8.38498C10.3173 8.73362 10.5132 9.04674 10.7842 9.28671C11.0552 9.52668 11.3897 9.68327 11.7476 9.73767C12.1054 9.79207 12.4713 9.74196 12.8014 9.59335C13.1314 9.44475 13.4115 9.20398 13.608 8.89999C13.8045 8.596 13.909 8.24175 13.9089 7.87979C13.8742 7.35425 13.6335 6.86361 13.2392 6.51443C12.8449 6.16525 12.3288 5.98571 11.8029 6.01477ZM13.0029 9.12478C12.9958 9.10745 12.9836 9.0927 12.9678 9.08252C12.9521 9.07233 12.9336 9.06719 12.9149 9.06778C12.8919 9.06668 12.8694 9.07466 12.8522 9.08999C12.835 9.10533 12.8245 9.12679 12.8229 9.14978C12.8234 9.16418 12.8277 9.17819 12.8354 9.19034C12.8432 9.20248 12.8541 9.2123 12.8669 9.21878C12.7802 9.27295 12.6892 9.32009 12.5949 9.35977C12.5909 9.33887 12.5794 9.32012 12.5627 9.30691C12.546 9.2937 12.5252 9.28691 12.5039 9.28778C12.4807 9.28641 12.458 9.29427 12.4406 9.30963C12.4231 9.32499 12.4125 9.34661 12.4109 9.36978C12.4112 9.38883 12.4187 9.40706 12.4319 9.42077C12.3339 9.45202 12.2336 9.47577 12.1319 9.49179C12.1325 9.48647 12.1325 9.48108 12.1319 9.47577C12.1295 9.45289 12.1188 9.43172 12.1017 9.41632C12.0846 9.40092 12.0624 9.39239 12.0394 9.39239C12.0164 9.39239 11.9943 9.40092 11.9772 9.41632C11.9601 9.43172 11.9493 9.45289 11.9469 9.47577C11.9471 9.48842 11.9506 9.50081 11.9569 9.51178C11.9039 9.51178 11.8509 9.51877 11.7969 9.51877C11.7429 9.51877 11.6969 9.51878 11.6489 9.51278C11.6566 9.50086 11.6608 9.48698 11.6609 9.47278C11.6586 9.4499 11.6478 9.42873 11.6307 9.41333C11.6136 9.39793 11.5914 9.3894 11.5684 9.3894C11.5454 9.3894 11.5232 9.39793 11.5062 9.41333C11.4891 9.42873 11.4783 9.4499 11.476 9.47278C11.475 9.47974 11.475 9.48681 11.476 9.49377C11.3691 9.47753 11.2638 9.45278 11.1609 9.41977C11.1721 9.4129 11.1813 9.40335 11.1877 9.392C11.1942 9.38064 11.1977 9.36783 11.1979 9.35476C11.1956 9.33189 11.1847 9.31071 11.1677 9.29532C11.1506 9.27992 11.1284 9.27142 11.1054 9.27142C11.0824 9.27142 11.0602 9.27992 11.0432 9.29532C11.0261 9.31071 11.0153 9.33189 11.0129 9.35476C11.0128 9.35843 11.0128 9.36212 11.0129 9.36578C10.9192 9.32726 10.8286 9.28146 10.7419 9.22879C10.7588 9.22417 10.7738 9.21433 10.7847 9.20068C10.7957 9.18703 10.8021 9.17025 10.8029 9.15277C10.8005 9.13054 10.79 9.10994 10.7736 9.09476C10.7572 9.07957 10.7359 9.07083 10.7135 9.0701C10.6911 9.06937 10.6693 9.0767 10.6519 9.09079C10.6345 9.10487 10.6228 9.12477 10.6189 9.14679C10.5316 9.0833 10.4503 9.012 10.3759 8.93377C10.3874 8.93464 10.3989 8.9331 10.4097 8.92923C10.4206 8.92535 10.4305 8.91923 10.4388 8.91128C10.4471 8.90334 10.4537 8.89373 10.458 8.88309C10.4624 8.87244 10.4644 8.86098 10.4641 8.84949C10.4637 8.83799 10.4609 8.8267 10.4559 8.81634C10.4509 8.80599 10.4438 8.79679 10.4351 8.78937C10.4263 8.78194 10.416 8.77646 10.405 8.77325C10.3939 8.77005 10.3823 8.76921 10.3709 8.77078C10.3522 8.77019 10.3337 8.77533 10.318 8.78552C10.3023 8.79571 10.29 8.81046 10.2829 8.82779C10.2207 8.75071 10.1658 8.66801 10.1189 8.58078H10.1249C10.1467 8.58078 10.1675 8.57214 10.1829 8.55676C10.1983 8.54138 10.2069 8.52053 10.2069 8.49878C10.2069 8.47703 10.1983 8.45617 10.1829 8.44079C10.1675 8.42542 10.1467 8.41678 10.1249 8.41678C10.0987 8.41689 10.0736 8.42729 10.0549 8.44577C10.0168 8.35424 9.98797 8.25909 9.96893 8.16177C9.98015 8.16584 9.99198 8.16789 10.0039 8.16778C10.0257 8.16778 10.0465 8.15914 10.0619 8.14377C10.0773 8.12839 10.0859 8.10753 10.0859 8.08578C10.0859 8.06404 10.0773 8.04318 10.0619 8.0278C10.0465 8.01242 10.0257 8.00378 10.0039 8.00378C9.9843 8.00394 9.96518 8.00985 9.94891 8.02078C9.94891 7.97378 9.94189 7.92678 9.94189 7.87878C9.94189 7.83078 9.94191 7.78578 9.94891 7.74078C9.96483 7.75064 9.98323 7.75583 10.002 7.75577C10.0237 7.75577 10.0446 7.74713 10.0599 7.73175C10.0753 7.71637 10.0839 7.69551 10.0839 7.67377C10.0839 7.65202 10.0753 7.63116 10.0599 7.61578C10.0446 7.6004 10.0237 7.59176 10.002 7.59176C9.99109 7.59168 9.98023 7.59337 9.96991 7.59677C9.98883 7.50051 10.0173 7.40637 10.0549 7.31576C10.0641 7.3257 10.0753 7.33367 10.0876 7.33917C10.1 7.34467 10.1134 7.3476 10.127 7.34778C10.1377 7.34778 10.1484 7.34564 10.1583 7.34152C10.1683 7.3374 10.1773 7.33137 10.1849 7.32376C10.1926 7.31614 10.1986 7.3071 10.2027 7.29715C10.2068 7.2872 10.2089 7.27654 10.2089 7.26578C10.2089 7.25501 10.2068 7.24435 10.2027 7.2344C10.1986 7.22445 10.1926 7.21541 10.1849 7.20779C10.1773 7.20018 10.1683 7.19415 10.1583 7.19003C10.1484 7.18591 10.1377 7.18377 10.127 7.18377H10.1169C10.1635 7.09591 10.218 7.01256 10.2799 6.93478C10.2879 6.95059 10.3003 6.96377 10.3155 6.97281C10.3307 6.98184 10.3482 6.98635 10.3659 6.98578C10.3773 6.98645 10.3888 6.98487 10.3996 6.98111C10.4104 6.97735 10.4204 6.97148 10.429 6.96387C10.4375 6.95625 10.4444 6.94702 10.4494 6.9367C10.4544 6.92639 10.4573 6.91521 10.4579 6.90378C10.4568 6.88268 10.4478 6.86278 10.4329 6.84784C10.4179 6.8329 10.398 6.82398 10.377 6.82278C10.4452 6.75004 10.5195 6.68313 10.5989 6.62277C10.6043 6.64229 10.6161 6.65944 10.6324 6.67142C10.6488 6.68339 10.6687 6.68951 10.6889 6.68878C10.7119 6.68988 10.7344 6.6819 10.7516 6.66656C10.7689 6.65123 10.7794 6.62977 10.7809 6.60678C10.7804 6.59084 10.7752 6.57542 10.7659 6.56244C10.7567 6.54945 10.7438 6.53948 10.7289 6.53378C10.8197 6.47725 10.915 6.42842 11.0139 6.38778C11.0135 6.39244 11.0135 6.3971 11.0139 6.40176C11.0163 6.42464 11.0271 6.44584 11.0442 6.46124C11.0613 6.47664 11.0834 6.48514 11.1064 6.48514C11.1294 6.48514 11.1516 6.47664 11.1687 6.46124C11.1858 6.44584 11.1965 6.42464 11.1989 6.40176C11.1986 6.38809 11.1948 6.37475 11.1877 6.363C11.1807 6.35126 11.1708 6.34153 11.1589 6.33478C11.2608 6.30193 11.3652 6.27718 11.4709 6.26077C11.4707 6.26377 11.4707 6.26678 11.4709 6.26977C11.4733 6.29265 11.4841 6.31382 11.5012 6.32922C11.5182 6.34462 11.5404 6.35315 11.5634 6.35315C11.5864 6.35315 11.6086 6.34462 11.6257 6.32922C11.6428 6.31382 11.6536 6.29265 11.6559 6.26977C11.6559 6.2598 11.6539 6.24994 11.6499 6.24078C11.6979 6.24078 11.7499 6.23477 11.7949 6.23477C11.8399 6.23477 11.9029 6.23479 11.9559 6.24179C11.9512 6.2518 11.9488 6.26272 11.9489 6.27377C11.9513 6.29665 11.9621 6.31782 11.9792 6.33322C11.9963 6.34862 12.0184 6.35715 12.0414 6.35715C12.0644 6.35715 12.0866 6.34862 12.1037 6.33322C12.1208 6.31782 12.1315 6.29665 12.1339 6.27377C12.1343 6.27011 12.1343 6.26644 12.1339 6.26278C12.2377 6.27944 12.34 6.30418 12.4399 6.33679C12.4254 6.35105 12.4172 6.37045 12.4169 6.39078C12.4176 6.40221 12.4204 6.41339 12.4254 6.4237C12.4304 6.43402 12.4374 6.44325 12.4459 6.45086C12.4545 6.45848 12.4644 6.46435 12.4752 6.46811C12.486 6.47187 12.4975 6.47345 12.5089 6.47278C12.531 6.47398 12.5527 6.46684 12.5698 6.45276C12.5868 6.43867 12.598 6.4187 12.601 6.39679C12.6931 6.43643 12.7821 6.48323 12.8669 6.53677C12.8531 6.54293 12.8412 6.55285 12.8328 6.5654C12.8243 6.57795 12.8195 6.59265 12.8189 6.60779C12.8205 6.63078 12.8309 6.65224 12.8481 6.66757C12.8653 6.6829 12.8879 6.69089 12.9109 6.68979C12.9304 6.69044 12.9494 6.68486 12.9655 6.67389C12.9815 6.66291 12.9936 6.64711 12.9999 6.62878C13.0775 6.68734 13.1501 6.75223 13.2169 6.82278C13.1995 6.82709 13.184 6.83692 13.1726 6.8508C13.1613 6.86468 13.1547 6.88186 13.1539 6.89978C13.1555 6.92277 13.166 6.94423 13.1832 6.95956C13.2004 6.97489 13.2229 6.98288 13.2459 6.98178C13.2604 6.98166 13.2748 6.97838 13.2879 6.97217C13.301 6.96595 13.3126 6.95693 13.3219 6.94577C13.3789 7.01925 13.4294 7.09755 13.4729 7.17978C13.4621 7.17978 13.4515 7.18191 13.4415 7.18603C13.4316 7.19015 13.4225 7.19618 13.4149 7.20379C13.4073 7.21141 13.4013 7.22046 13.3972 7.23041C13.393 7.24035 13.3909 7.25101 13.3909 7.26178C13.3909 7.27255 13.393 7.2832 13.3972 7.29315C13.4013 7.3031 13.4073 7.31215 13.4149 7.31976C13.4225 7.32738 13.4316 7.3334 13.4415 7.33752C13.4515 7.34164 13.4621 7.34378 13.4729 7.34378C13.4972 7.34374 13.5207 7.33486 13.5389 7.31878C13.576 7.41012 13.6038 7.50491 13.6219 7.60177C13.6107 7.5977 13.5988 7.59566 13.5869 7.59576C13.5652 7.59576 13.5443 7.6044 13.5289 7.61978C13.5136 7.63516 13.5049 7.65602 13.5049 7.67776C13.5049 7.69951 13.5136 7.72037 13.5289 7.73575C13.5443 7.75112 13.5652 7.75976 13.5869 7.75976C13.6064 7.75991 13.6255 7.75435 13.6419 7.74377C13.6419 7.78677 13.6479 7.82978 13.6479 7.87378C13.6479 7.91778 13.6479 7.96777 13.6409 8.01477C13.627 8.00763 13.6116 8.00388 13.5959 8.00378C13.5742 8.00378 13.5533 8.01242 13.538 8.0278C13.5226 8.04318 13.5139 8.06404 13.5139 8.08578C13.5139 8.10753 13.5226 8.12839 13.538 8.14377C13.5533 8.15914 13.5742 8.16778 13.5959 8.16778H13.6189C13.6004 8.26056 13.573 8.35131 13.5369 8.43878C13.5186 8.42211 13.4947 8.41284 13.4699 8.41278C13.4482 8.41278 13.4273 8.42142 13.4119 8.4368C13.3965 8.45217 13.3879 8.47303 13.3879 8.49478C13.3879 8.51653 13.3965 8.53738 13.4119 8.55276C13.4273 8.56814 13.4482 8.57678 13.4699 8.57678C13.4253 8.66021 13.3735 8.73952 13.3149 8.81378C13.3055 8.80218 13.2936 8.79284 13.2802 8.78644C13.2667 8.78003 13.2519 8.77671 13.2369 8.77676C13.2255 8.77609 13.2141 8.7777 13.2032 8.78146C13.1924 8.78522 13.1824 8.79106 13.1739 8.79867C13.1653 8.80629 13.1584 8.81552 13.1534 8.82583C13.1485 8.83615 13.1455 8.84733 13.1449 8.85876C13.1457 8.87681 13.1525 8.89412 13.164 8.90802C13.1756 8.92192 13.1913 8.93167 13.2089 8.93579C13.146 9.00402 13.0778 9.06721 13.0049 9.12478H13.0029Z" fill="#000088"/>
<path d="M11.8031 7.55818C11.7412 7.56569 11.6827 7.59094 11.6347 7.63087C11.5868 7.67081 11.5514 7.72374 11.5328 7.78331C11.5142 7.84288 11.5132 7.90654 11.5299 7.96666C11.5466 8.02678 11.5804 8.0808 11.6271 8.12221C11.6738 8.16362 11.7314 8.19065 11.7931 8.20009C11.8548 8.20952 11.9179 8.20096 11.9748 8.1754C12.0317 8.14984 12.0801 8.10838 12.114 8.05601C12.148 8.00364 12.166 7.94257 12.1661 7.88017C12.1604 7.78942 12.1191 7.70461 12.051 7.64427C11.983 7.58393 11.8939 7.55298 11.8031 7.55818Z" fill="#000088"/>
<path d="M11.8931 7.23013L11.8091 6.28516L11.7251 7.23013L11.8091 7.55414L11.8931 7.23013Z" fill="#000088"/>
<path d="M11.0681 7.81055L10 7.88556L11.0681 7.96057L11.434 7.88556L11.0681 7.81055Z" fill="#000088"/>
<path d="M11.3502 7.36502L10.5352 6.75L11.2352 7.47101L11.5532 7.64801L11.3502 7.36502Z" fill="#000088"/>
<path d="M11.2229 7.49374L10.2539 7.09375L11.1389 7.62674L11.4989 7.72675L11.2229 7.49374Z" fill="#000088"/>
<path d="M11.115 7.63889L10.063 7.46191L11.07 7.78391L11.445 7.79791L11.115 7.63889Z" fill="#000088"/>
<path d="M11.5087 7.2847L10.8867 6.5127L11.3637 7.36169L11.6237 7.60172L11.5087 7.2847Z" fill="#000088"/>
<path d="M11.7 7.23203L11.3579 6.33203L11.5359 7.26703L11.7069 7.56702L11.7 7.23203Z" fill="#000088"/>
<path d="M12.5482 7.81055L13.6161 7.88556L12.5482 7.96051L12.1821 7.88556L12.5482 7.81055Z" fill="#000088"/>
<path d="M12.2659 7.36499L13.0809 6.75L12.3859 7.47101L12.0679 7.64798L12.2659 7.36499Z" fill="#000088"/>
<path d="M12.3927 7.49377L13.3617 7.09375L12.4767 7.62677L12.1167 7.72675L12.3927 7.49377Z" fill="#000088"/>
<path d="M12.5018 7.63892L13.5538 7.46191L12.5469 7.78391L12.1719 7.79791L12.5018 7.63892Z" fill="#000088"/>
<path d="M12.1028 7.2847L12.7248 6.5127L12.2478 7.36169L11.9878 7.60168L12.1028 7.2847Z" fill="#000088"/>
<path d="M11.9157 7.23203L12.2577 6.33203L12.0797 7.26703L11.9087 7.56705L11.9157 7.23203Z" fill="#000088"/>
<path d="M11.8931 8.53204L11.8091 9.47699L11.7251 8.53204L11.8091 8.20801L11.8931 8.53204Z" fill="#000088"/>
<path d="M11.3502 8.40015L10.5352 9.01514L11.2352 8.29413L11.5532 8.11719L11.3502 8.40015Z" fill="#000088"/>
<path d="M11.2229 8.2691L10.2539 8.66913L11.1389 8.13611L11.4989 8.03613L11.2229 8.2691Z" fill="#000088"/>
<path d="M11.115 8.12286L10.063 8.29987L11.07 7.97791L11.445 7.96387L11.115 8.12286Z" fill="#000088"/>
<path d="M11.5087 8.47717L10.8867 9.24915L11.3637 8.40015L11.6237 8.16016L11.5087 8.47717Z" fill="#000088"/>
<path d="M11.7 8.52936L11.3579 9.42938L11.5359 8.49438L11.7069 8.19434L11.7 8.52936Z" fill="#000088"/>
<path d="M12.2659 8.39624L13.0809 9.01129L12.3859 8.29028L12.0679 8.11328L12.2659 8.39624Z" fill="#000088"/>
<path d="M12.3927 8.26917L13.3617 8.66913L12.4767 8.13617L12.1167 8.03613L12.3927 8.26917Z" fill="#000088"/>
<path d="M12.5018 8.11993L13.5538 8.29694L12.5469 7.97491L12.1719 7.96094L12.5018 8.11993Z" fill="#000088"/>
<path d="M12.1028 8.47717L12.7248 9.24915L12.2478 8.40015L11.9878 8.16016L12.1028 8.47717Z" fill="#000088"/>
<path d="M11.9157 8.52936L12.2577 9.42932L12.0797 8.49432L11.9087 8.19434L11.9157 8.52936Z" fill="#000088"/>
</svg>
