<svg width="15" height="15" viewBox="0 0 15 15" fill="none" xmlns="http://www.w3.org/2000/svg">
<g clip-path="url(#clip0_860_60510)">
<path d="M7.49998 0C3.36001 0 0 3.36001 0 7.49998C0 11.64 3.36001 15 7.49998 15C11.64 15 15 11.64 15 7.49998C15 3.36001 11.64 0 7.49998 0ZM2.11999 7.49998C2.11999 4.51999 4.53998 2.1 7.49998 2.1C8.61999 2.1 9.68 2.44001 10.54 3.03999L3.06001 10.54C2.46 9.68 2.11999 8.61999 2.11999 7.49998ZM7.49998 12.88C6.37998 12.88 5.31997 12.54 4.46 11.94L11.94 4.46C12.54 5.32 12.88 6.37998 12.88 7.49998C12.88 10.48 10.48 12.88 7.49998 12.88Z" fill="#D15241"/>
</g>
<defs>
<clipPath id="clip0_860_60510">
<rect width="15" height="15" fill="white"/>
</clipPath>
</defs>
</svg>
