<svg width="38" height="36" viewBox="0 0 38 36" fill="none" xmlns="http://www.w3.org/2000/svg">
<path fill-rule="evenodd" clip-rule="evenodd" d="M25.2147 6.62774C21.109 5.97565 16.894 5.97565 12.7882 6.62774C12.0155 6.75046 11.4018 7.31285 11.2478 8.03726C9.84644 14.6282 9.76998 21.4105 11.0224 28.0283L11.2814 29.3966L17.0931 24.1661C18.1625 23.2036 19.8404 23.2036 20.9099 24.1661L26.7215 29.3966L26.9805 28.0283C28.233 21.4105 28.1565 14.6282 26.7551 8.03725C26.6011 7.31285 25.9874 6.75046 25.2147 6.62774ZM12.3955 4.40871C16.7613 3.71533 21.2417 3.71533 25.6074 4.40871C27.3479 4.68513 28.7342 5.95085 29.0834 7.59296C30.5437 14.4613 30.6234 21.529 29.3182 28.4254L28.9675 30.2783C28.6732 31.8336 26.6718 32.4553 25.4626 31.367L19.2741 25.7973C19.1213 25.6598 18.8816 25.6598 18.7288 25.7973L12.5403 31.367C11.3311 32.4552 9.32974 31.8336 9.0354 30.2783L8.68471 28.4254C7.37954 21.529 7.45922 14.4613 8.91958 7.59296C9.26872 5.95085 10.6551 4.68513 12.3955 4.40871Z" fill="#2B2B2B"/>
</svg>
