<svg width="64" height="64" viewBox="0 0 64 64" fill="none" xmlns="http://www.w3.org/2000/svg">
<circle cx="32" cy="32" r="32" fill="#EC303A"/>
<g clip-path="url(#clip0_925_29868)">
<path d="M34.1762 29.964C33.9038 29.6899 33.6017 29.447 33.2756 29.2396C32.4118 28.6865 31.4076 28.3926 30.3819 28.3926C28.9583 28.3899 27.5925 28.9556 26.5876 29.964L21.7125 34.8429C20.7093 35.8481 20.1454 37.2099 20.1445 38.63C20.1426 41.5934 22.5434 43.9972 25.5068 43.9991C26.9282 44.004 28.2928 43.4411 29.2973 42.4354L33.3216 38.4111C33.3947 38.3386 33.4355 38.2397 33.4349 38.1368C33.4337 37.9251 33.2611 37.7545 33.0494 37.7557H32.8961C32.0554 37.7587 31.2221 37.5972 30.4433 37.2805C30.2998 37.2214 30.1348 37.2548 30.0255 37.3648L27.1319 40.2623C26.2333 41.1608 24.7765 41.1608 23.8779 40.2623C22.9794 39.3637 22.9794 37.9069 23.8779 37.0084L28.7723 32.1179C29.6701 31.2212 31.1245 31.2212 32.0223 32.1179C32.6274 32.6874 33.5712 32.6874 34.1763 32.1179C34.4366 31.8574 34.5944 31.5118 34.6209 31.1444C34.6489 30.7054 34.4869 30.2754 34.1762 29.964Z" fill="white"/>
<path d="M41.5716 22.5717C39.4761 20.4761 36.0785 20.4761 33.983 22.5717L29.9625 26.5883C29.8521 26.6992 29.8203 26.866 29.8821 27.0099C29.9431 27.1541 30.0857 27.2466 30.2423 27.2436H30.3841C31.2239 27.2421 32.0558 27.4048 32.8332 27.7227C32.9767 27.7818 33.1416 27.7485 33.2509 27.6384L36.1369 24.7563C37.0354 23.8577 38.4923 23.8577 39.3908 24.7563C40.2893 25.6548 40.2893 27.1116 39.3908 28.0102L35.7958 31.6014L35.7651 31.6358L34.508 32.8853C33.6102 33.782 32.1557 33.782 31.2579 32.8853C30.6528 32.3158 29.709 32.3158 29.104 32.8853C28.842 33.1478 28.684 33.4964 28.6594 33.8664C28.6313 34.3055 28.7933 34.7354 29.104 35.0469C29.5476 35.4924 30.0666 35.8557 30.637 36.12C30.7175 36.1584 30.798 36.189 30.8785 36.2235C30.959 36.258 31.0433 36.2848 31.1237 36.3155C31.2042 36.3462 31.2885 36.373 31.369 36.396L31.5952 36.4573C31.7485 36.4956 31.9018 36.5263 32.0589 36.5531C32.2482 36.5812 32.4388 36.5991 32.63 36.6068H32.8982H32.9212L33.1512 36.58C33.2355 36.5761 33.3237 36.557 33.4233 36.557H33.5536L33.8181 36.5187L33.9407 36.4957L34.163 36.4497H34.2052C35.1466 36.2132 36.0063 35.7257 36.6926 35.0392L41.5715 30.1603C43.6672 28.0648 43.6672 24.6672 41.5716 22.5717Z" fill="white"/>
</g>
<defs>
<clipPath id="clip0_925_29868">
<rect width="23" height="23" fill="white" transform="translate(20.1445 21)"/>
</clipPath>
</defs>
</svg>
