<svg width="27" height="25" viewBox="0 0 27 25" fill="none" xmlns="http://www.w3.org/2000/svg">
<path fill-rule="evenodd" clip-rule="evenodd" d="M6.29873 14.4494C6.34637 14.4646 6.39446 14.4754 6.44249 14.482C6.49488 14.5986 6.56257 14.7494 6.64153 14.9258C6.83425 15.3562 7.09391 15.9384 7.36195 16.5457C7.90855 17.7842 8.45991 19.0609 8.58168 19.4264C8.73243 19.8781 8.89177 20.1853 9.06572 20.395C9.15567 20.5034 9.25969 20.5981 9.38141 20.6698C9.44269 20.7058 9.50741 20.7354 9.57498 20.7575C9.57795 20.7585 9.58092 20.7594 9.5839 20.7604C9.93218 20.8849 10.2497 20.833 10.4485 20.7696C10.5549 20.7357 10.641 20.6947 10.702 20.6615C10.7331 20.6445 10.7593 20.6287 10.7803 20.6154L10.7852 20.6122L13.8611 18.7957L17.414 21.3752C17.4664 21.4133 17.5235 21.4452 17.5841 21.4703C18.011 21.6466 18.4243 21.7082 18.8131 21.6579C19.2012 21.6077 19.5094 21.4532 19.7388 21.2794C19.9634 21.1092 20.1157 20.9186 20.2106 20.7769C20.259 20.7046 20.2954 20.6406 20.321 20.5916C20.3339 20.567 20.3443 20.5458 20.3523 20.5287L20.3625 20.5063L20.3664 20.4974L20.368 20.4937L20.3687 20.492L20.3694 20.4903C20.3881 20.4461 20.4024 20.4004 20.4122 20.3537L23.6557 4.8675C23.666 4.81798 23.6713 4.76761 23.6713 4.71711C23.6713 4.26361 23.4908 3.83238 23.0666 3.5707C22.7039 3.34705 22.3 3.33742 22.0447 3.35578C21.7693 3.37557 21.5149 3.43995 21.3443 3.4914C21.2554 3.51817 21.181 3.54401 21.1273 3.56371C21.1003 3.57362 21.0782 3.58212 21.0617 3.5886L21.0493 3.59353L2.85931 10.3511L2.85695 10.3519C2.84536 10.3559 2.83047 10.3612 2.81279 10.3677C2.77756 10.3807 2.73037 10.399 2.67525 10.4226C2.56774 10.4688 2.41691 10.5409 2.26215 10.6413C2.01489 10.8016 1.44625 11.2408 1.542 11.9656C1.61839 12.5439 2.03672 12.8991 2.2916 13.0698C2.43155 13.1636 2.5645 13.2307 2.66133 13.2743C2.70625 13.2946 2.79952 13.3305 2.83999 13.346L2.8502 13.35L6.29873 14.4494ZM21.6859 5.01708L21.6834 5.01812C21.6743 5.02185 21.6652 5.02542 21.656 5.02884L3.4439 11.7946C3.43439 11.7981 3.42481 11.8015 3.41517 11.8047L3.40503 11.8083C3.39338 11.8126 3.37376 11.8202 3.34914 11.8307C3.33518 11.8367 3.32061 11.8433 3.30576 11.8503C3.32617 11.8612 3.3457 11.8706 3.36305 11.8785C3.37972 11.886 3.39243 11.8911 3.39938 11.8938L6.81959 12.9842C6.8822 13.0042 6.94056 13.0306 6.99412 13.0625L18.2875 6.80178L18.298 6.79586C18.3063 6.79127 18.3171 6.78535 18.33 6.77841C18.3557 6.76465 18.391 6.74633 18.433 6.72609C18.5114 6.68831 18.6368 6.63223 18.7781 6.59088C18.8764 6.56209 19.1665 6.48099 19.48 6.57623C19.6735 6.63501 19.8739 6.76138 20.0042 6.97546C20.0689 7.08181 20.1034 7.18864 20.1201 7.28644C20.1645 7.44051 20.1575 7.59264 20.1227 7.72398C20.0479 8.0069 19.838 8.22759 19.647 8.39639C19.4834 8.54111 17.3662 10.4745 15.2775 12.383C14.2359 13.3348 13.205 14.2772 12.4344 14.9816L11.9282 15.4443L18.3188 20.0842C18.4654 20.1339 18.552 20.1313 18.5921 20.1261C18.6399 20.1199 18.679 20.1025 18.7189 20.0723C18.7636 20.0384 18.8026 19.9928 18.8318 19.9492L18.833 19.9474L21.9788 4.92757C21.9321 4.9382 21.8849 4.95085 21.8394 4.96456C21.7879 4.9801 21.7454 4.99489 21.7172 5.00523C21.7033 5.01035 21.6932 5.01424 21.6878 5.01638L21.6859 5.01708ZM12.4773 17.791L11.2023 16.8653L10.8934 18.7264L12.4773 17.791ZM10.0327 15.0284L11.3006 13.8693C12.0712 13.1648 13.1023 12.2223 14.144 11.2705L15.2024 10.3035L8.10643 14.2373L8.14451 14.3223C8.33791 14.7543 8.59873 15.339 8.86818 15.9495C9.06966 16.4061 9.28035 16.8868 9.47225 17.3318L9.78028 15.4762C9.80998 15.2973 9.90227 15.1424 10.0327 15.0284Z" fill="#EC303A"/>
</svg>
