<svg width="21" height="11" viewBox="0 0 21 11" fill="none" xmlns="http://www.w3.org/2000/svg">
<path fill-rule="evenodd" clip-rule="evenodd" d="M1.53584 0C1.53584 0 1.5362 0.000387051 0.767872 0.706221C-0.000445693 1.41206 8.19117e-06 1.41255 8.19117e-06 1.41255L0.00197068 1.41467L0.00597912 1.41902L0.0187337 1.43269C0.0293287 1.44401 0.0440958 1.45968 0.0629247 1.4794C0.100576 1.51884 0.154514 1.57454 0.22387 1.64418C0.362509 1.7834 0.56318 1.97873 0.818922 2.21145C1.32936 2.67596 2.06477 3.29453 2.96927 3.91434C4.75548 5.13833 7.3134 6.44449 10.1578 6.44449C13.0021 6.44449 15.56 5.13833 17.3463 3.91434C18.2507 3.29453 18.9862 2.67596 19.4966 2.21145C19.7524 1.97873 19.953 1.7834 20.0917 1.64418C20.1611 1.57454 20.215 1.51884 20.2527 1.4794C20.2715 1.45968 20.2863 1.44401 20.2968 1.43269L20.3095 1.41902L20.3136 1.41467L20.315 1.41315C20.315 1.41315 20.316 1.41206 19.5477 0.706221C18.7794 0.000387051 18.7797 0 18.7797 0L18.7735 0.00668143L18.7434 0.0384923C18.7153 0.0678285 18.6717 0.112994 18.6132 0.171731C18.4961 0.289277 18.3201 0.460739 18.0923 0.668163C17.6353 1.08396 16.9752 1.63911 16.1668 2.19305C14.5272 3.31654 12.3902 4.35784 10.1578 4.35784C7.92535 4.35784 5.78832 3.31654 4.14878 2.19305C3.34041 1.63911 2.68024 1.08396 2.22333 0.668163C1.99539 0.460739 1.81944 0.289277 1.70238 0.171731C1.64388 0.112994 1.60019 0.0678285 1.57218 0.0384923L1.54208 0.00668143L1.53584 0Z" fill="#2B2B2B"/>
<path fill-rule="evenodd" clip-rule="evenodd" d="M11.1999 10.0953V5.40039H9.11328V10.0953H11.1999Z" fill="#2B2B2B"/>
<path fill-rule="evenodd" clip-rule="evenodd" d="M3.06924 8.22458L6.1992 5.09462L4.72372 3.61914L1.59375 6.74911L3.06924 8.22458Z" fill="#2B2B2B"/>
<path fill-rule="evenodd" clip-rule="evenodd" d="M17.2432 8.22458L14.1133 5.09462L15.5887 3.61914L18.7187 6.74911L17.2432 8.22458Z" fill="#2B2B2B"/>
</svg>
