<svg width="22" height="22" viewBox="0 0 22 22" fill="none" xmlns="http://www.w3.org/2000/svg">
<path d="M10.4873 11.2526C13.5955 11.2526 16.1152 8.73365 16.1152 5.62632C16.1152 2.51899 13.5955 0 10.4873 0C7.37907 0 4.85938 2.51899 4.85938 5.62632C4.85938 8.73365 7.37907 11.2526 10.4873 11.2526Z" fill="#2B2B2B"/>
<path fill-rule="evenodd" clip-rule="evenodd" d="M19.3423 12.8322L12.8303 19.3424C12.5305 19.6411 12.5305 20.128 12.8303 20.4267C13.1291 20.7265 13.6162 20.7265 13.915 20.4267L20.427 13.9166C20.7268 13.6179 20.7268 13.1309 20.427 12.8322C20.1282 12.5325 19.6411 12.5325 19.3423 12.8322Z" fill="#2B2B2B"/>
<path fill-rule="evenodd" clip-rule="evenodd" d="M16.626 11.2578C13.6606 11.2578 11.2539 13.6638 11.2539 16.6284C11.2539 19.5929 13.6606 21.999 16.626 21.999C19.5914 21.999 21.9981 19.5929 21.9981 16.6284C21.9981 13.6638 19.5914 11.2578 16.626 11.2578ZM16.626 12.7923C18.7441 12.7923 20.4632 14.5108 20.4632 16.6284C20.4632 18.7459 18.7441 20.4645 16.626 20.4645C14.5079 20.4645 12.7888 18.7459 12.7888 16.6284C12.7888 14.5108 14.5079 12.7923 16.626 12.7923Z" fill="#2B2B2B"/>
<path fill-rule="evenodd" clip-rule="evenodd" d="M11.9465 20.9834C10.8833 19.8418 10.2326 18.3114 10.2326 16.6297C10.2326 14.908 10.9151 13.3439 12.0243 12.1941C11.5229 12.1552 11.0102 12.1348 10.4884 12.1348C7.08912 12.1348 4.07972 12.9849 2.21126 14.2584C0.78586 15.2303 0 16.465 0 17.7611V19.2444C0 19.7057 0.183163 20.1487 0.509581 20.474C0.836 20.8003 1.27805 20.9834 1.73953 20.9834H11.9465Z" fill="#2B2B2B"/>
</svg>
