<svg width="23" height="23" viewBox="0 0 23 23" fill="none" xmlns="http://www.w3.org/2000/svg">
<g clip-path="url(#clip0_860_57289)">
<path d="M14.0317 8.96399C13.7593 8.68992 13.4572 8.44698 13.131 8.23962C12.2673 7.6865 11.2631 7.39259 10.2374 7.39259C8.81375 7.38994 7.44797 7.95558 6.44307 8.96399L1.56794 13.8429C0.564747 14.8481 0.000899387 16.2099 1.11091e-06 17.63C-0.00188527 20.5934 2.39885 22.9972 5.36226 22.9991C6.78369 23.004 8.14822 22.4411 9.15276 21.4354L13.177 17.4111C13.2502 17.3386 13.291 17.2397 13.2904 17.1368C13.2892 16.9251 13.1166 16.7545 12.9049 16.7557H12.7516C11.9108 16.7587 11.0775 16.5972 10.2987 16.2805C10.1552 16.2214 9.99031 16.2548 9.88099 16.3648L6.98733 19.2623C6.08879 20.1608 4.63196 20.1608 3.73342 19.2623C2.83487 18.3637 2.83487 16.9069 3.73342 16.0084L8.62772 11.1179C9.52555 10.2212 10.98 10.2212 11.8778 11.1179C12.4829 11.6874 13.4267 11.6874 14.0317 11.1179C14.2921 10.8574 14.4499 10.5118 14.4763 10.1444C14.5043 9.70538 14.3424 9.27542 14.0317 8.96399Z" fill="#EC303A"/>
<path d="M21.4271 1.57166C19.3316 -0.523886 15.934 -0.523886 13.8385 1.57166L9.81801 5.58825C9.70761 5.69919 9.67577 5.86605 9.73753 6.00986C9.79856 6.15408 9.94121 6.24665 10.0978 6.24364H10.2396C11.0794 6.24211 11.9113 6.40483 12.6886 6.72273C12.8321 6.78179 12.9971 6.74847 13.1064 6.63843L15.9924 3.75626C16.8909 2.85772 18.3477 2.85772 19.2463 3.75626C20.1448 4.65481 20.1448 6.11163 19.2463 7.01018L15.6512 10.6014L15.6206 10.6358L14.3635 11.8853C13.4656 12.782 12.0112 12.782 11.1134 11.8853C10.5083 11.3158 9.56447 11.3158 8.95944 11.8853C8.69746 12.1478 8.53949 12.4964 8.51484 12.8664C8.48681 13.3055 8.64873 13.7354 8.95944 14.0469C9.40305 14.4924 9.92208 14.8557 10.4925 15.12C10.573 15.1584 10.6535 15.189 10.7339 15.2235C10.8144 15.258 10.8987 15.2848 10.9792 15.3155C11.0597 15.3462 11.144 15.373 11.2245 15.396L11.4506 15.4573C11.6039 15.4956 11.7573 15.5263 11.9144 15.5531C12.1036 15.5812 12.2942 15.5991 12.4854 15.6068H12.7537H12.7767L13.0067 15.58C13.091 15.5761 13.1791 15.557 13.2788 15.557H13.4091L13.6735 15.5187L13.7962 15.4957L14.0185 15.4497H14.0607C15.0021 15.2132 15.8617 14.7257 16.548 14.0392L21.427 9.16029C23.5227 7.06475 23.5226 3.6672 21.4271 1.57166Z" fill="#EC303A"/>
</g>
<defs>
<clipPath id="clip0_860_57289">
<rect width="23" height="23" fill="white"/>
</clipPath>
</defs>
</svg>
