<svg width="16" height="16" viewBox="0 0 16 16" fill="none" xmlns="http://www.w3.org/2000/svg">
<g clip-path="url(#clip0_860_60505)">
<path d="M12.5696 0.573995C12.5696 0.356889 12.4439 0.151209 12.2497 0.0597957C12.044 -0.0430442 11.8154 -0.00876425 11.644 0.128356L6.58203 4.16197L12.5696 10.1495V0.573995Z" fill="white"/>
<path d="M15.8296 15.0237L0.97498 0.169068C0.75216 -0.0537518 0.389935 -0.0537518 0.167115 0.169068C-0.055705 0.391888 -0.055705 0.754113 0.167115 0.976933L3.76194 4.5729H3.42714C3.07291 4.5729 2.76439 4.73287 2.55871 4.98426C2.38731 5.17851 2.28447 5.44133 2.28447 5.71557V10.2862C2.28447 10.9147 2.79867 11.4289 3.42714 11.4289H6.07812L11.6429 15.8739C11.7457 15.9539 11.8714 15.9996 11.9971 15.9996C12.0771 15.9996 12.1685 15.9767 12.2485 15.9424C12.4428 15.851 12.5685 15.6453 12.5685 15.4282V13.3794L15.0206 15.8316C15.1326 15.9436 15.2789 15.9996 15.4251 15.9996C15.5714 15.9996 15.7177 15.9436 15.8296 15.8327C16.0525 15.6088 16.0525 15.2477 15.8296 15.0237Z" fill="white"/>
</g>
<defs>
<clipPath id="clip0_860_60505">
<rect width="16" height="16" fill="white"/>
</clipPath>
</defs>
</svg>
