<svg width="28" height="28" viewBox="0 0 28 28" fill="none" xmlns="http://www.w3.org/2000/svg">
<path d="M9.18325 13.9996C9.18325 13.8876 9.18325 13.7756 9.18325 13.6636C9.18325 10.9756 11.3112 8.84761 13.9992 8.84761H14.3352L17.1353 6.04761C16.1272 5.82361 15.1192 5.59961 13.9992 5.59961C8.28725 5.71161 3.47125 9.85561 1.11925 12.2076C0.33525 13.1036 0.33525 14.4476 1.11925 15.2316C2.01525 16.1276 3.24725 17.2476 4.81525 18.3676L9.18325 13.9996Z" fill="#2B2B2B"/>
<path d="M21.8379 8.17592L24.0779 5.93592C24.5259 5.48792 24.5259 4.70392 24.0779 4.25592C23.6299 3.80792 22.8459 3.80792 22.3979 4.25592L4.58991 22.0639C4.14191 22.5119 4.14191 23.2959 4.58991 23.7439C5.03791 24.1919 5.82191 24.1919 6.26991 23.7439L9.18191 20.8319C10.6379 21.3919 12.2059 21.7279 13.8859 21.7279C19.4859 21.7279 24.4139 17.5839 26.6539 15.2319C27.4379 14.4479 27.4379 13.1039 26.6539 12.2079C25.7579 11.0879 23.9659 9.51992 21.8379 8.17592ZM13.9979 18.4799C13.3259 18.4799 12.5419 18.3679 11.9819 18.0319L14.2219 15.7919C15.2299 15.6799 15.9019 14.8959 16.1259 13.8879L18.3659 11.6479C18.5899 12.2079 18.8139 12.8799 18.8139 13.6639C18.8139 16.3519 16.6859 18.4799 13.9979 18.4799Z" fill="#2B2B2B"/>
</svg>
