<svg width="22" height="23" viewBox="0 0 22 23" fill="none" xmlns="http://www.w3.org/2000/svg">
<path d="M18.3333 16.257C17.4044 16.257 16.5733 16.6034 15.9378 17.1461L7.22333 12.3544C7.28444 12.0889 7.33333 11.8233 7.33333 11.5462C7.33333 11.2691 7.28444 11.0035 7.22333 10.738L15.84 5.99247C16.5 6.56978 17.3678 6.92771 18.3333 6.92771C20.3622 6.92771 22 5.38052 22 3.46386C22 1.54719 20.3622 0 18.3333 0C16.3044 0 14.6667 1.54719 14.6667 3.46386C14.6667 3.74096 14.7156 4.00653 14.7767 4.27209L6.16 9.01757C5.5 8.44026 4.63222 8.08233 3.66667 8.08233C1.63778 8.08233 0 9.62952 0 11.5462C0 13.4629 1.63778 15.01 3.66667 15.01C4.63222 15.01 5.5 14.6521 6.16 14.0748L14.8622 18.878C14.8011 19.1205 14.7644 19.3745 14.7644 19.6285C14.7644 21.4874 16.3656 23 18.3333 23C20.3011 23 21.9022 21.4874 21.9022 19.6285C21.9022 17.7696 20.3011 16.257 18.3333 16.257Z" fill="#2B2B2B"/>
</svg>
