<svg width="17" height="15" viewBox="0 0 17 15" fill="none" xmlns="http://www.w3.org/2000/svg">
<path d="M8.4204 14C8.11475 14 7.8086 13.9276 7.53506 13.7907C6.70839 13.377 5.09404 12.4899 3.57121 11.1966C1.59018 9.51416 0.415966 7.70833 0.0811948 5.8292C-0.178862 4.36944 0.1924 2.87926 1.0998 1.74073C1.94016 0.686311 3.13097 0.0701315 4.45291 0.00570286C4.53064 0.00190095 4.6094 0 4.68693 0C5.92547 0 7.09465 0.477309 7.97914 1.34401C8.13889 1.50056 8.28621 1.66669 8.42036 1.84104C8.55459 1.66669 8.70187 1.50053 8.86166 1.34394C9.74607 0.477309 10.9153 0 12.1539 0C12.2314 0 12.3102 0.0019349 12.3879 0.00570286C13.7099 0.0701315 14.9007 0.686312 15.7411 1.7408C16.6485 2.87933 17.0197 4.36951 16.7596 5.82924C16.4249 7.70833 15.2507 9.5142 13.2696 11.1966C11.7468 12.4898 10.1325 13.377 9.30577 13.7908C9.0322 13.9277 8.72604 14 8.4204 14Z" fill="url(#paint0_linear_860_46173)"/>
<path d="M15.743 1.74505C15.428 1.34978 15.0637 1.01613 14.6618 0.75C15.3956 1.83965 15.6801 3.19028 15.4439 4.51585C15.1091 6.39494 13.9349 8.20081 11.9539 9.88322C10.4311 11.1764 8.81682 12.0636 7.99004 12.4774C7.71647 12.6143 7.41032 12.6867 7.10467 12.6867C6.79903 12.6867 6.49287 12.6143 6.21934 12.4774C5.39266 12.0636 3.77831 11.1765 2.25548 9.88322C2.19024 9.82782 2.12601 9.77226 2.0625 9.71659C2.49863 10.2208 3.00215 10.716 3.57311 11.2009C5.09594 12.4941 6.71029 13.3813 7.53697 13.795C7.81054 13.9319 8.11669 14.0043 8.4223 14.0043C8.72795 14.0043 9.0341 13.9319 9.30764 13.795C10.1344 13.3813 11.7487 12.4941 13.2715 11.2009C15.2525 9.51845 16.4267 7.71257 16.7615 5.83348C17.0216 4.37376 16.6504 2.88358 15.743 1.74505Z" fill="url(#paint1_linear_860_46173)"/>
<path d="M12.3894 0.00570286C12.3116 0.0019349 12.2329 0 12.1553 0C10.9168 0 9.74755 0.477309 8.8631 1.34397C8.70335 1.50053 8.55606 1.66666 8.42188 1.841V14C8.72752 14 9.03368 13.9277 9.30721 13.7907C10.134 13.377 11.7483 12.4898 13.2711 11.1966C15.2521 9.51416 16.4263 7.70829 16.761 5.8292C17.0211 4.36947 16.6499 2.8793 15.7425 1.74076C14.9022 0.686311 13.7113 0.0701315 12.3894 0.00570286Z" fill="url(#paint2_linear_860_46173)"/>
<defs>
<linearGradient id="paint0_linear_860_46173" x1="7.03124" y1="3.39904" x2="12.918" y2="10.7491" gradientUnits="userSpaceOnUse">
<stop/>
<stop offset="1" stop-color="#2D2D2D"/>
</linearGradient>
<linearGradient id="paint1_linear_860_46173" x1="10.414" y1="8.79843" x2="12.8516" y2="14.0082" gradientUnits="userSpaceOnUse">
<stop/>
<stop offset="1" stop-color="#020202"/>
</linearGradient>
<linearGradient id="paint2_linear_860_46173" x1="9.81429" y1="5.53954" x2="2.06598" y2="-2.36071" gradientUnits="userSpaceOnUse">
<stop/>
<stop offset="1" stop-color="#4A4A4A"/>
</linearGradient>
</defs>
</svg>
