<svg width="17" height="15" viewBox="0 0 17 15" fill="none" xmlns="http://www.w3.org/2000/svg">
<path d="M8.49999 14.1323C8.19145 14.1323 7.88241 14.0593 7.60629 13.9211C6.7718 13.5034 5.14219 12.6079 3.60496 11.3024C1.60521 9.60409 0.419898 7.78119 0.0819623 5.8843C-0.180553 4.41074 0.194219 2.90648 1.11019 1.75718C1.95849 0.692798 3.16056 0.0707944 4.495 0.00575676C4.57347 0.00191892 4.65297 0 4.73123 0C5.98148 0 7.16171 0.48182 8.05456 1.35671C8.21582 1.51475 8.36453 1.68245 8.49995 1.85844C8.63544 1.68245 8.78413 1.51471 8.94542 1.35664C9.83819 0.48182 11.0185 0 12.2688 0C12.347 0 12.4266 0.00195319 12.505 0.00575676C13.8395 0.0707944 15.0416 0.692799 15.8899 1.75725C16.8058 2.90655 17.1806 4.41081 16.918 5.88433C16.5801 7.78119 15.3948 9.60412 13.3951 11.3024C11.8579 12.6079 10.2283 13.5035 9.39373 13.9211C9.11757 14.0593 8.80852 14.1323 8.49999 14.1323Z" fill="url(#paint0_linear_860_46167)"/>
<path d="M15.8879 1.75445C15.5699 1.35545 15.2022 1.01865 14.7965 0.75C15.5372 1.84995 15.8244 3.21334 15.586 4.55145C15.2481 6.4483 14.0628 8.27124 12.063 9.96955C10.5258 11.275 8.89629 12.1706 8.06169 12.5882C7.78554 12.7264 7.47649 12.7995 7.16796 12.7995C6.85942 12.7995 6.55037 12.7264 6.27425 12.5882C5.43976 12.1706 3.81016 11.2751 2.27293 9.96955C2.20707 9.91363 2.14224 9.85754 2.07812 9.80134C2.51838 10.3103 3.02665 10.8102 3.60302 11.2996C5.14024 12.6052 6.76985 13.5007 7.60434 13.9183C7.88049 14.0565 8.18954 14.1296 8.49804 14.1296C8.80658 14.1296 9.11563 14.0565 9.39174 13.9183C10.2263 13.5007 11.8559 12.6051 13.3931 11.2996C15.3928 9.60133 16.5781 7.77839 16.916 5.88153C17.1786 4.40801 16.8039 2.90375 15.8879 1.75445Z" fill="url(#paint1_linear_860_46167)"/>
<path d="M12.505 0.00575676C12.4265 0.00195319 12.347 0 12.2688 0C11.0185 0 9.83821 0.48182 8.94539 1.35668C8.78414 1.51471 8.63546 1.68241 8.5 1.85841V14.1323C8.80853 14.1323 9.11758 14.0593 9.3937 13.9211C10.2283 13.5034 11.8578 12.6079 13.395 11.3024C15.3948 9.60409 16.5801 7.78115 16.918 5.8843C17.1805 4.41077 16.8058 2.90651 15.8898 1.75722C15.0415 0.692798 13.8394 0.0707944 12.505 0.00575676Z" fill="url(#paint2_linear_860_46167)"/>
<defs>
<linearGradient id="paint0_linear_860_46167" x1="7.0977" y1="3.43117" x2="13.0401" y2="10.8507" gradientUnits="userSpaceOnUse">
<stop stop-color="#EC0071"/>
<stop offset="1" stop-color="#F82814"/>
</linearGradient>
<linearGradient id="paint1_linear_860_46167" x1="10.5086" y1="8.8745" x2="12.9692" y2="14.1335" gradientUnits="userSpaceOnUse">
<stop stop-color="#EC0071"/>
<stop offset="1" stop-color="#C0272D"/>
</linearGradient>
<linearGradient id="paint2_linear_860_46167" x1="9.90557" y1="5.5919" x2="2.08402" y2="-2.38302" gradientUnits="userSpaceOnUse">
<stop stop-color="#EC0071"/>
<stop offset="1" stop-color="#C0272D"/>
</linearGradient>
</defs>
</svg>
