<svg width="17" height="17" viewBox="0 0 17 17" fill="none" xmlns="http://www.w3.org/2000/svg">
<g clip-path="url(#clip0_860_46188)">
<path d="M16.0708 9.62549L17 8.76214L16.1226 7.84623L16.8276 6.79193L15.7627 6.10303L16.2055 4.91453L15.0104 4.48983L15.1673 3.23123L13.9064 3.0936L13.7688 1.83275L12.5102 1.9896L12.0855 0.794484L10.897 1.23731L10.2081 0.172357L9.15377 0.877359L8.23786 0L7.37451 0.929156L6.28097 0.286643L5.65519 1.38982L4.44294 1.01685L4.08843 2.23464L2.82286 2.15123L2.75875 3.41793L1.50805 3.62867L1.73779 4.87601L0.5694 5.36951L1.0806 6.53026L0.057541 7.27985L0.822641 8.29145L0 9.2568L0.977766 10.0647L0.399932 11.1937L1.53767 11.7543L1.23575 12.9861L2.47211 13.2693L2.46248 14.5375L3.73074 14.5279L4.01386 15.7642L5.24573 15.4623L5.8063 16.6001L6.93534 16.0222L7.7432 17L8.70855 16.1774L9.72015 16.9425L10.4697 15.9194L11.6305 16.4306L12.124 15.2622L13.3713 15.4919L13.582 14.2413L14.8488 14.1771L14.7654 12.9116L15.9832 12.5571L15.6102 11.3448L16.7134 10.719L16.0708 9.62549Z" fill="#EF5350"/>
<path d="M5.23141 10.8051C4.94019 10.1541 3.6362 10.9769 3.17608 9.94829C2.88681 9.30156 3.34339 8.8317 3.84253 8.60844C4.09859 8.49389 4.69439 8.30035 4.82252 8.58683C4.86718 8.68667 4.88703 8.91737 4.73074 8.98726C4.59617 9.04742 4.42262 8.92716 4.05798 9.09025C3.74544 9.23001 3.62385 9.43553 3.71702 9.64385C3.95774 10.182 5.26751 9.37222 5.7703 10.4964C6.04795 11.1171 5.75762 11.6324 5.1586 11.9003C4.59 12.1546 4.02783 12.0623 3.91524 11.8106C3.86086 11.689 3.8922 11.4562 4.02674 11.396C4.20471 11.3165 4.47136 11.5982 4.91409 11.4002C5.1746 11.2837 5.34789 11.0656 5.23141 10.8051Z" fill="white"/>
<path d="M6.5835 10.9431C6.57965 10.9345 6.57619 10.9152 6.57281 10.8959L6.18934 7.79107C6.17015 7.64342 6.30359 7.5108 6.46416 7.43892C6.62908 7.36518 6.81688 7.35412 6.91417 7.46684L8.97303 9.82224C8.98514 9.83768 8.99534 9.84874 9.00115 9.86175C9.06135 9.99632 8.90194 10.1874 8.75 10.2553C8.65454 10.2981 8.56715 10.3007 8.50858 10.2279L8.08544 9.72442L7.09147 10.169L7.18474 10.82C7.19995 10.9122 7.13978 10.9756 7.04426 11.0183C6.89229 11.0863 6.64562 11.0821 6.5835 10.9431ZM7.76586 9.33608L6.79221 8.17248L7.01062 9.67389L7.76586 9.33608Z" fill="white"/>
<path d="M10.001 9.6951C9.8751 9.75141 9.72648 9.74497 9.67402 9.62779L8.41214 6.80659C8.35775 6.68503 8.47336 6.57082 8.61654 6.50673C8.75546 6.44461 8.922 6.43266 8.97629 6.55418L10.0965 9.05859L11.1556 8.58488C11.2684 8.53438 11.3792 8.63067 11.4355 8.75654C11.4899 8.87807 11.4897 9.02921 11.3768 9.07968L10.001 9.6951Z" fill="white"/>
<path d="M11.9528 6.64623L12.6125 6.35115C12.7254 6.30065 12.839 6.38007 12.8915 6.49725C12.9361 6.59706 12.9321 6.73953 12.8106 6.79385L12.1508 7.08893L12.541 7.96137L13.7694 7.41193C13.8822 7.36143 13.9997 7.44951 14.0599 7.58409C14.1123 7.70126 14.1121 7.8524 13.9906 7.90675L12.4455 8.59791C12.3196 8.65422 12.171 8.64778 12.1185 8.53061L10.8585 5.71369C10.8061 5.59651 10.9005 5.48137 11.0263 5.42505L12.5715 4.7339C12.693 4.67954 12.8058 4.78018 12.8582 4.89736C12.9184 5.03193 12.9057 5.17822 12.7928 5.22869L11.5645 5.77813L11.9528 6.64623Z" fill="white"/>
</g>
<defs>
<clipPath id="clip0_860_46188">
<rect width="17" height="17" fill="white"/>
</clipPath>
</defs>
</svg>
