<svg width="24" height="24" viewBox="0 0 24 24" fill="none" xmlns="http://www.w3.org/2000/svg">
<path fill-rule="evenodd" clip-rule="evenodd" d="M21.4516 5.41575C21.6438 5.70687 21.6118 6.10248 21.3555 6.35876L12.1631 15.5511C12.0689 15.6454 11.9513 15.7128 11.8223 15.7465L7.99392 16.7465C7.86905 16.7791 7.74035 16.7784 7.61941 16.7476C7.49085 16.7149 7.37108 16.6482 7.27406 16.5511C7.08578 16.3629 7.01145 16.0889 7.07874 15.8313L8.07874 12.0028C8.1082 11.89 8.1635 11.7786 8.23998 11.6912L17.4664 2.46967C17.5472 2.38891 17.6445 2.32846 17.7504 2.29163C17.8289 2.26432 17.9121 2.25 17.9968 2.25C18.1957 2.25 18.3864 2.32902 18.5271 2.46967L21.3555 5.2981C21.3921 5.33471 21.4242 5.37416 21.4516 5.41575ZM19.7645 5.82843L17.9968 4.06066L9.4786 12.5788L8.85361 14.9716L11.2464 14.3466L19.7645 5.82843Z" fill="black"/>
<path d="M19.6381 17.1603C19.9115 14.8227 19.9985 12.4688 19.8991 10.1208C19.8943 10.0084 19.9366 9.89898 20.0162 9.81942L20.9995 8.83609C21.1204 8.71519 21.327 8.79194 21.3383 8.96254C21.5232 11.7522 21.4531 14.5545 21.128 17.3346C20.8914 19.3571 19.2671 20.9421 17.255 21.167C13.7884 21.5544 10.2051 21.5544 6.73853 21.167C4.72648 20.9421 3.10214 19.3571 2.86559 17.3346C2.45105 13.7903 2.45105 10.2097 2.86559 6.66543C3.10214 4.6429 4.72648 3.05789 6.73853 2.83301C9.36828 2.5391 12.0652 2.46815 14.7274 2.62016C14.899 2.62996 14.9772 2.83757 14.8557 2.95909L13.8631 3.95165C13.7844 4.03034 13.6765 4.07261 13.5653 4.06885C11.3389 3.99376 9.09732 4.07872 6.90514 4.32373C5.57504 4.47239 4.50955 5.522 4.35544 6.83968C3.95444 10.2682 3.95444 13.7318 4.35544 17.1603C4.50955 18.478 5.57504 19.5276 6.90514 19.6763C10.261 20.0513 13.7326 20.0513 17.0884 19.6763C18.4185 19.5276 19.484 18.478 19.6381 17.1603Z" fill="black"/>
</svg>
