<svg width="24" height="24" viewBox="0 0 24 24" fill="none" xmlns="http://www.w3.org/2000/svg">
<path fill-rule="evenodd" clip-rule="evenodd" d="M10.5 18H3.75C3.55125 18 3.36 17.9213 3.21975 17.7803C3.07875 17.64 3 17.4487 3 17.25V16.2217C3 15.9112 3.19125 15.6338 3.48 15.5228C4.94925 15.03 6 13.6373 6 12C6 10.3688 4.95601 8.979 3.50026 8.46375C3.21226 8.35875 3.02024 8.085 3.02024 7.77825C3.02024 7.7685 3.02025 7.75949 3.0195 7.74974C3 7.23599 3 6.75 3 6.75C3 6.55125 3.07875 6.36 3.21975 6.21975C3.36 6.07875 3.55125 6 3.75 6H10.5C10.914 6 11.25 5.664 11.25 5.25C11.25 4.836 10.914 4.5 10.5 4.5H3.75C3.153 4.5 2.58075 4.737 2.15925 5.15925C1.737 5.58075 1.5 6.153 1.5 6.75C1.5 6.75225 1.49999 7.25625 1.52024 7.794C1.52699 8.72475 2.11125 9.55499 2.988 9.87374C2.99025 9.87449 2.9925 9.87525 2.9955 9.87675C3.8715 10.1843 4.5 11.019 4.5 12C4.5 12.9757 3.87675 13.8083 3 14.1015C2.99325 14.103 2.98725 14.1052 2.98125 14.1075C2.0925 14.4307 1.5 15.276 1.5 16.2217V17.25C1.5 17.847 1.737 18.4193 2.15925 18.8408C2.58075 19.263 3.153 19.5 3.75 19.5H10.5C10.914 19.5 11.25 19.164 11.25 18.75C11.25 18.336 10.914 18 10.5 18ZM13.5 6L20.25 6C20.4487 6 20.64 6.07875 20.7803 6.21975C20.9213 6.36 21 6.55125 21 6.75C21 6.75 21 7.23599 20.9805 7.74974C20.9797 7.75949 20.9798 7.7685 20.9798 7.77825C20.9798 8.08275 20.7915 8.35425 20.5073 8.4615C19.044 8.979 18 10.3688 18 12C18 13.6335 19.0463 15.024 20.511 15.519C20.805 15.6285 21 15.9082 21 16.2217V17.25C21 17.4487 20.9213 17.64 20.7803 17.7803C20.64 17.9213 20.4487 18 20.25 18H13.5C13.086 18 12.75 18.336 12.75 18.75C12.75 19.164 13.086 19.5 13.5 19.5H20.25C20.847 19.5 21.4193 19.263 21.8408 18.8408C22.263 18.4193 22.5 17.847 22.5 17.25V16.2217C22.5 15.276 21.9075 14.4307 21.0187 14.1075C21.0127 14.1052 21.0067 14.103 21 14.1015C20.1232 13.8083 19.5 12.9757 19.5 12C19.5 11.019 20.1285 10.1843 21.0045 9.87675C21.0075 9.87525 21.0098 9.87449 21.012 9.87374C21.8895 9.55499 22.4745 8.72325 22.4798 7.791C22.5 7.25625 22.5 6.75225 22.5 6.75C22.5 6.153 22.263 5.58075 21.8408 5.15925C21.4193 4.737 20.847 4.5 20.25 4.5L13.5 4.5C13.086 4.5 12.75 4.836 12.75 5.25C12.75 5.664 13.086 6 13.5 6Z" fill="black"/>
<path fill-rule="evenodd" clip-rule="evenodd" d="M16.5 15.75V15C16.5 14.5861 16.164 14.25 15.75 14.25C15.336 14.25 15 14.5861 15 15V15.75C15 16.1639 15.336 16.5 15.75 16.5C16.164 16.5 16.5 16.1639 16.5 15.75Z" fill="black"/>
<path fill-rule="evenodd" clip-rule="evenodd" d="M9 15.75V15C9 14.5861 8.664 14.25 8.25 14.25C7.836 14.25 7.5 14.5861 7.5 15V15.75C7.5 16.1639 7.836 16.5 8.25 16.5C8.664 16.5 9 16.1639 9 15.75Z" fill="black"/>
<path fill-rule="evenodd" clip-rule="evenodd" d="M16.5 9.00001V8.25001C16.5 7.8361 16.164 7.50002 15.75 7.50002C15.336 7.50002 15 7.8361 15 8.25001V9.00001C15 9.41392 15.336 9.75 15.75 9.75C16.164 9.75 16.5 9.41392 16.5 9.00001Z" fill="black"/>
<path fill-rule="evenodd" clip-rule="evenodd" d="M9 9.00001V8.25001C9 7.8361 8.664 7.50002 8.25 7.50002C7.836 7.50002 7.5 7.8361 7.5 8.25001V9.00001C7.5 9.41392 7.836 9.75 8.25 9.75C8.664 9.75 9 9.41392 9 9.00001Z" fill="black"/>
<path d="M16.5 12C16.5 11.5858 16.1642 11.25 15.75 11.25C15.3358 11.25 15 11.5858 15 12C15 12.4142 15.3358 12.75 15.75 12.75C16.1642 12.75 16.5 12.4142 16.5 12Z" fill="black"/>
<path d="M9 12C9 11.5858 8.66421 11.25 8.25 11.25C7.83579 11.25 7.5 11.5858 7.5 12C7.5 12.4142 7.83579 12.75 8.25 12.75C8.66421 12.75 9 12.4142 9 12Z" fill="black"/>
</svg>
