<svg width="27" height="27" viewBox="0 0 27 27" fill="none" xmlns="http://www.w3.org/2000/svg">
<path d="M26.7645 9.14844H0V10.2638C0 10.8555 0.235027 11.4229 0.653377 11.8412C1.07173 12.2596 1.63913 12.4946 2.23077 12.4946H5.57692C6.16856 12.4946 6.73596 12.2596 7.15431 11.8412C7.57267 11.4229 7.80769 10.8555 7.80769 10.2638C7.80769 10.8555 8.04272 11.4229 8.46107 11.8412C8.87942 12.2596 9.44682 12.4946 10.0385 12.4946H16.7308C17.3224 12.4946 17.8898 12.2596 18.3082 11.8412C18.7265 11.4229 18.9615 10.8555 18.9615 10.2638C18.9615 10.8555 19.1966 11.4229 19.6149 11.8412C20.0333 12.2596 20.6007 12.4946 21.1923 12.4946H24.5385C25.1301 12.4946 25.6975 12.2596 26.1159 11.8412C26.5342 11.4229 26.7692 10.8555 26.7692 10.2638V9.14844H26.7645Z" fill="#EC303A"/>
<path d="M26.4933 8.03426L24.4937 1.03522C24.427 0.80222 24.2863 0.597268 24.0928 0.451365C23.8993 0.305463 23.6636 0.226549 23.4212 0.226563L18.3125 0.226563L19.874 8.03426H26.4933Z" fill="#EC303A"/>
<path d="M8.45423 0.226563H3.34549C3.10315 0.226549 2.86739 0.305463 2.6739 0.451365C2.4804 0.597268 2.33969 0.80222 2.27304 1.03522L0.273438 8.03426H6.89269L8.45423 0.226563Z" fill="#EC303A"/>
<path d="M16.0393 0.226562H10.7295L9.16797 8.03426H17.6008L16.0393 0.226562Z" fill="#EC303A"/>
<path d="M21.1941 13.6119C20.3705 13.6126 19.5759 13.3083 18.9633 12.7578C18.3508 13.3083 17.5561 13.6126 16.7326 13.6119H10.0403C9.21669 13.6126 8.42203 13.3083 7.80949 12.7578C7.19696 13.3083 6.4023 13.6126 5.57873 13.6119H2.23257C1.85235 13.6111 1.47508 13.5451 1.11719 13.4167V25.8811C1.11719 26.177 1.2347 26.4607 1.44388 26.6698C1.65305 26.879 1.93675 26.9965 2.23257 26.9965H4.46334V16.9581C4.46334 16.6623 4.58085 16.3786 4.79003 16.1694C4.99921 15.9602 5.28291 15.8427 5.57873 15.8427H11.1556C11.4515 15.8427 11.7352 15.9602 11.9443 16.1694C12.1535 16.3786 12.271 16.6623 12.271 16.9581V26.9965H24.5403C24.8361 26.9965 25.1198 26.879 25.329 26.6698C25.5381 26.4607 25.6556 26.177 25.6556 25.8811V13.4167C25.2978 13.5451 24.9205 13.6111 24.5403 13.6119H21.1941ZM22.3095 20.3042C22.3095 20.6 22.192 20.8837 21.9828 21.0929C21.7736 21.3021 21.4899 21.4196 21.1941 21.4196H15.6172C15.3214 21.4196 15.0377 21.3021 14.8285 21.0929C14.6193 20.8837 14.5018 20.6 14.5018 20.3042V16.9581C14.5018 16.6623 14.6193 16.3786 14.8285 16.1694C15.0377 15.9602 15.3214 15.8427 15.6172 15.8427H21.1941C21.4899 15.8427 21.7736 15.9602 21.9828 16.1694C22.192 16.3786 22.3095 16.6623 22.3095 16.9581V20.3042Z" fill="#EC303A"/>
</svg>
