<svg width="20" height="20" viewBox="0 0 20 20" fill="none" xmlns="http://www.w3.org/2000/svg">
<path fill-rule="evenodd" clip-rule="evenodd" d="M15.9538 4.37435H4.44335L3.45987 2.61151C3.34948 2.41364 3.14064 2.29102 2.91406 2.29102H1.66406C1.31888 2.29102 1.03906 2.57084 1.03906 2.91602C1.03906 3.26119 1.31888 3.54102 1.66406 3.54102H2.54706L3.51764 5.28073L5.75603 10.2334L5.75833 10.2385L5.95548 10.6747L3.70812 13.0719C3.54652 13.2443 3.49594 13.493 3.57738 13.7148C3.65883 13.9366 3.85837 14.0935 4.09311 14.1203L6.14156 14.3544C8.70379 14.6472 11.291 14.6472 13.8533 14.3544L15.9017 14.1203C16.2447 14.0811 16.4909 13.7713 16.4517 13.4284C16.4125 13.0854 16.1027 12.8392 15.7598 12.8784L13.7113 13.1125C11.2434 13.3945 8.7514 13.3945 6.28349 13.1125L5.47056 13.0196L7.12004 11.2601C7.13599 11.2431 7.15081 11.2255 7.1645 11.2072L7.79184 11.2888C8.67095 11.4032 9.55958 11.4257 10.4433 11.3558C12.5046 11.1927 14.4149 10.2119 15.7486 8.63191L16.2303 8.06123C16.2465 8.04206 16.2615 8.02194 16.2753 8.00097L17.1731 6.63276C17.8095 5.66295 17.1138 4.37435 15.9538 4.37435ZM7.21096 9.95272C7.07311 9.93479 6.95425 9.84723 6.89622 9.72105L6.8951 9.71861L5.04468 5.62435H15.9538C16.1195 5.62435 16.2189 5.80843 16.128 5.94698L15.2509 7.28371L14.7934 7.82562C13.6751 9.1505 12.0732 9.97295 10.3448 10.1097C9.54763 10.1727 8.74608 10.1525 7.95313 10.0493L7.21096 9.95272Z" fill="white"/>
<path d="M5.41406 15.416C4.72371 15.416 4.16406 15.9757 4.16406 16.666C4.16406 17.3564 4.72371 17.916 5.41406 17.916C6.10442 17.916 6.66406 17.3564 6.66406 16.666C6.66406 15.9757 6.10442 15.416 5.41406 15.416Z" fill="white"/>
<path d="M13.3307 16.666C13.3307 15.9757 13.8904 15.416 14.5807 15.416C15.2711 15.416 15.8307 15.9757 15.8307 16.666C15.8307 17.3564 15.2711 17.916 14.5807 17.916C13.8904 17.916 13.3307 17.3564 13.3307 16.666Z" fill="white"/>
</svg>
