<svg width="36" height="36" viewBox="0 0 36 36" fill="none" xmlns="http://www.w3.org/2000/svg">
<path d="M11.2286 7.62429C9.51191 7.81615 8.13783 9.17102 7.93921 10.8692C7.40568 15.4309 7.40568 20.0393 7.93921 24.601C8.13783 26.2992 9.51191 27.654 11.2286 27.8459C15.6938 28.3449 20.3132 28.3449 24.7785 27.8459C26.4951 27.654 27.8692 26.2992 28.0678 24.601C28.4512 21.3233 28.5591 18.0215 28.3915 14.7302C28.3872 14.6452 28.419 14.5623 28.4791 14.5021L30.0373 12.9439C30.2176 12.7636 30.5258 12.8764 30.545 13.1307C30.839 17.0381 30.7582 20.9666 30.3026 24.8624C29.9803 27.6178 27.768 29.7758 25.0284 30.082C20.3971 30.5996 15.61 30.5996 10.9786 30.082C8.23907 29.7758 6.02672 27.6178 5.70445 24.8624C5.1506 20.127 5.1506 15.3432 5.70445 10.6078C6.02672 7.85237 8.23907 5.6944 10.9786 5.38821C15.61 4.8706 20.3971 4.8706 25.0284 5.38821C25.9933 5.49605 26.8928 5.8336 27.6673 6.34605C27.8197 6.44689 27.8348 6.66114 27.7056 6.79037L26.5013 7.99469C26.4028 8.0932 26.25 8.10977 26.1272 8.04397C25.7171 7.82423 25.2613 7.67826 24.7785 7.62429C20.3132 7.12524 15.6938 7.12524 11.2286 7.62429Z" fill="white"/>
<path d="M31.549 8.78058C31.9883 8.34124 31.9883 7.62893 31.549 7.18959C31.1097 6.75025 30.3973 6.75025 29.958 7.18959L17.2535 19.8941L13.549 16.1896C13.1096 15.7503 12.3973 15.7503 11.958 16.1896C11.5187 16.6289 11.5187 17.3412 11.958 17.7806L16.458 22.2806C16.8973 22.7199 17.6096 22.7199 18.049 22.2806L31.549 8.78058Z" fill="white"/>
</svg>
