<svg width="30" height="31" viewBox="0 0 30 31" fill="none" xmlns="http://www.w3.org/2000/svg">
<circle cx="15" cy="15" r="15" fill="white"/>
<path d="M20.0799 12.243C20.446 11.8769 20.446 11.2833 20.0799 10.9172C19.7138 10.551 19.1202 10.551 18.754 10.9172L14.9975 14.6737L11.241 10.9172C10.8749 10.551 10.2813 10.551 9.91522 10.9172C9.54911 11.2833 9.54911 11.8769 9.91522 12.243L13.6717 15.9995L9.91521 19.756C9.5491 20.1221 9.5491 20.7157 9.91521 21.0818C10.2813 21.4479 10.8749 21.4479 11.241 21.0818L14.9975 17.3253L18.7541 21.0818C19.1202 21.4479 19.7138 21.4479 20.0799 21.0818C20.446 20.7157 20.446 20.1221 20.0799 19.756L16.3234 15.9995L20.0799 12.243Z" fill="black"/>
</svg>
