<svg width="20" height="20" viewBox="0 0 20 20" fill="none" xmlns="http://www.w3.org/2000/svg">
<circle cx="10" cy="10" r="10" fill="white"/>
<path fill-rule="evenodd" clip-rule="evenodd" d="M3.4375 8.52235C3.4375 6.49698 5.21436 4.9375 7.3 4.9375C8.3751 4.9375 9.32113 5.4416 10 6.09387C10.6789 5.4416 11.6249 4.9375 12.7 4.9375C14.7856 4.9375 16.5625 6.49698 16.5625 8.52235C16.5625 9.90975 15.9708 11.1298 15.1511 12.1612C14.3328 13.1907 13.2625 14.0645 12.2376 14.7745C11.8462 15.0457 11.4501 15.2958 11.0877 15.4804C10.7474 15.6537 10.3561 15.8125 10 15.8125C9.64394 15.8125 9.25262 15.6537 8.9123 15.4804C8.54986 15.2958 8.15385 15.0457 7.7624 14.7745C6.73754 14.0645 5.66715 13.1907 4.84887 12.1612C4.02916 11.1298 3.4375 9.90975 3.4375 8.52235ZM7.3 6.0625C5.74056 6.0625 4.5625 7.20932 4.5625 8.52235C4.5625 9.57497 5.00934 10.555 5.72957 11.4612C6.45121 12.3691 7.42219 13.1702 8.40306 13.8497C8.77421 14.1068 9.12381 14.3256 9.42284 14.4779C9.74399 14.6415 9.93 14.6875 10 14.6875C10.07 14.6875 10.256 14.6415 10.5772 14.4779C10.8762 14.3256 11.2258 14.1068 11.5969 13.8497C12.5778 13.1702 13.5488 12.3691 14.2704 11.4612C14.9907 10.555 15.4375 9.57497 15.4375 8.52235C15.4375 7.20932 14.2594 6.0625 12.7 6.0625C11.8044 6.0625 10.9681 6.59757 10.4459 7.27669C10.3394 7.41517 10.1747 7.49632 10 7.49632C9.82532 7.49632 9.66055 7.41517 9.55408 7.27669C9.0319 6.59757 8.19561 6.0625 7.3 6.0625Z" fill="#EC4850"/>
</svg>
