<svg width="20" height="20" viewBox="0 0 20 20" fill="none" xmlns="http://www.w3.org/2000/svg">
<path fill-rule="evenodd" clip-rule="evenodd" d="M8.10884 2.24814C9.35498 1.99281 10.64 1.99281 11.8861 2.24814C12.4251 2.35859 12.8402 2.79004 12.9296 3.33292L12.9748 3.60708C13.3541 5.90849 13.3541 8.25647 12.9748 10.5579L12.9296 10.832C12.8402 11.3749 12.4251 11.8064 11.8861 11.9168C10.64 12.1721 9.35498 12.1721 8.10884 11.9168C7.56984 11.8064 7.15479 11.3749 7.06533 10.832L7.02014 10.5579C6.64086 8.25647 6.64086 5.90849 7.02014 3.60708L7.06532 3.33292C7.15479 2.79004 7.56984 2.35859 8.10884 2.24814ZM11.6352 3.4727C10.5546 3.25129 9.44034 3.25129 8.35976 3.4727C8.32821 3.47916 8.30392 3.50441 8.29869 3.53619L8.2535 3.81035C7.8964 5.97715 7.8964 8.1878 8.2535 10.3546L8.29869 10.6288C8.30392 10.6605 8.32821 10.6858 8.35976 10.6923C9.44034 10.9137 10.5546 10.9137 11.6352 10.6923C11.6667 10.6858 11.691 10.6605 11.6963 10.6288L11.7414 10.3546C12.0985 8.1878 12.0985 5.97715 11.7414 3.81035L11.6963 3.53618C11.691 3.50441 11.6667 3.47916 11.6352 3.4727Z" fill="white"/>
<path d="M4.07645 9.38033C4.41822 9.3319 4.73453 9.5697 4.78296 9.91146L5.15838 12.5609C5.25982 13.2767 5.82725 13.8364 6.5444 13.928C8.83714 14.2209 11.1578 14.2209 13.4506 13.928C14.1677 13.8364 14.7351 13.2767 14.8366 12.5609L15.212 9.91146C15.2604 9.5697 15.5767 9.3319 15.9185 9.38033C16.2603 9.42876 16.4981 9.74507 16.4496 10.0868L16.0742 12.7363C15.8938 14.0095 14.8845 15.005 13.6089 15.1679C12.6171 15.2946 11.6202 15.3689 10.6225 15.3908V18.7491C10.6225 19.0943 10.3427 19.3741 9.9975 19.3741C9.65232 19.3741 9.3725 19.0943 9.3725 18.7491V15.3908C8.37476 15.3689 7.37789 15.2946 6.38602 15.1679C5.11044 15.005 4.10116 14.0095 3.92075 12.7362L3.54532 10.0868C3.49689 9.74507 3.73469 9.42876 4.07645 9.38033Z" fill="white"/>
</svg>
