<svg width="20" height="20" viewBox="0 0 20 20" fill="none" xmlns="http://www.w3.org/2000/svg">
<g clip-path="url(#clip0_934_31438)">
<path d="M14.2031 4.35281V8.62984C14.2031 9.70684 13.3296 10.5799 12.252 10.5799H5.65938C5.58621 10.5799 5.52289 10.6298 5.50437 10.7005C5.26793 11.6043 4.57754 12.1216 4.19066 12.3483C4.10496 12.3985 4.0027 12.3141 4.03609 12.2205C4.24855 11.625 4.1516 11.0565 4.03883 10.6946C4.0175 10.6262 3.95414 10.5799 3.88246 10.5799H2.24801C1.17043 10.5799 0.296875 9.7068 0.296875 8.6298V4.35281C0.296875 3.27539 1.17039 2.40234 2.24801 2.40234H12.2516C13.3292 2.40234 14.2031 3.27539 14.2031 4.35281Z" fill="#F1F4F6"/>
<path d="M12.25 2.40234H11.0781C12.1558 2.40234 13.0296 3.27539 13.0296 4.35281V8.62984C13.0296 9.70684 12.1561 10.5799 11.0785 10.5799H12.2504C13.328 10.5799 14.2015 9.70684 14.2015 8.62984V4.35281C14.2015 3.27539 13.3276 2.40234 12.25 2.40234Z" fill="#DFEAEF"/>
<path d="M8.61719 11.4195V13.8712C8.61719 14.9462 9.49086 15.8176 10.5686 15.8176H14.3478C14.421 15.8176 14.4843 15.8673 14.5028 15.938C14.7393 16.8401 15.4297 17.3565 15.8166 17.5827C15.9023 17.6328 16.0046 17.5485 15.9713 17.4552C15.7588 16.8608 15.8557 16.2933 15.9685 15.9321C15.9898 15.8638 16.0532 15.8176 16.1249 15.8176H17.7596C18.8373 15.8176 19.7109 14.9462 19.7109 13.8712V11.4195C19.7109 10.3441 18.8373 9.47266 17.7596 9.47266H10.5689C9.49117 9.47266 8.61719 10.3441 8.61719 11.4195Z" fill="#86F1A7"/>
<path d="M17.7578 9.47266H16.5859C17.6637 9.47266 18.5373 10.3441 18.5373 11.4195V13.8712C18.5373 14.9462 17.6636 15.8176 16.5859 15.8176H17.7578C18.8355 15.8176 19.7092 14.9462 19.7092 13.8712V11.4195C19.7092 10.3441 18.8355 9.47266 17.7578 9.47266Z" fill="#80E29D"/>
<path d="M4.71094 9.25391C6.22109 9.25391 7.44531 8.02969 7.44531 6.51953C7.44531 5.00938 6.22109 3.78516 4.71094 3.78516C3.20078 3.78516 1.97656 5.00938 1.97656 6.51953C1.97656 8.02969 3.20078 9.25391 4.71094 9.25391Z" fill="#FFE07D"/>
<path d="M4.71094 3.78516C4.50973 3.78516 4.31383 3.8075 4.125 3.84875C5.35348 4.11707 6.27344 5.21059 6.27344 6.51953C6.27344 7.82848 5.35348 8.92199 4.125 9.19031C4.31383 9.23156 4.50973 9.25391 4.71094 9.25391C6.22109 9.25391 7.44531 8.02969 7.44531 6.51953C7.44531 5.00938 6.22109 3.78516 4.71094 3.78516Z" fill="#FFD064"/>
<path d="M5.14844 2.40234H12.2529C13.3305 2.40234 14.2044 3.27539 14.2044 4.35281V8.62984C14.2044 8.8991 14.1498 9.15559 14.0511 9.38891" stroke="#1E383E" stroke-miterlimit="10" stroke-linecap="round" stroke-linejoin="round"/>
<path d="M8.7409 10.5799H5.65937C5.58621 10.5799 5.52289 10.6298 5.50437 10.7005C5.26793 11.6043 4.57754 12.1216 4.19066 12.3483C4.10496 12.3985 4.0027 12.3141 4.03609 12.2205C4.24855 11.625 4.1516 11.0565 4.03883 10.6946C4.0175 10.6262 3.95414 10.5799 3.88246 10.5799H2.24801C1.17043 10.5799 0.296875 9.7068 0.296875 8.6298V4.35281C0.296875 3.27539 1.17039 2.40234 2.24801 2.40234H3.75391" stroke="#1E383E" stroke-miterlimit="10" stroke-linecap="round" stroke-linejoin="round"/>
<path d="M19.7109 12.1745V11.4195C19.7109 10.3441 18.8373 9.47266 17.7596 9.47266H10.5689C9.49117 9.47266 8.61719 10.3441 8.61719 11.4195V13.8712C8.61719 14.9462 9.49086 15.8176 10.5686 15.8176H14.3478C14.421 15.8176 14.4843 15.8673 14.5028 15.938C14.7393 16.8401 15.4297 17.3565 15.8166 17.5827C15.9023 17.6328 16.0046 17.5485 15.9713 17.4552C15.7588 16.8608 15.8557 16.2933 15.9685 15.9321C15.9898 15.8638 16.0532 15.8176 16.1249 15.8176H17.7596C18.8373 15.8176 19.7109 14.9462 19.7109 13.8712V13.5351" stroke="#1E383E" stroke-miterlimit="10" stroke-linecap="round" stroke-linejoin="round"/>
<path d="M9.01562 5.4082H10.717" stroke="#1E383E" stroke-miterlimit="10" stroke-linecap="round" stroke-linejoin="round"/>
<path d="M9.01562 6.52734H11.3334" stroke="#1E383E" stroke-miterlimit="10" stroke-linecap="round" stroke-linejoin="round"/>
<path d="M9.01562 7.64844H10.717" stroke="#1E383E" stroke-miterlimit="10" stroke-linecap="round" stroke-linejoin="round"/>
<path d="M15.1094 11.416H16.8009" stroke="#1E383E" stroke-miterlimit="10" stroke-linecap="round" stroke-linejoin="round"/>
<path d="M15.1094 12.5293H17.4136" stroke="#1E383E" stroke-miterlimit="10" stroke-linecap="round" stroke-linejoin="round"/>
<path d="M15.1094 13.6426H16.8009" stroke="#1E383E" stroke-miterlimit="10" stroke-linecap="round" stroke-linejoin="round"/>
<path d="M10.9141 12.3053L12.0411 13.6426L13.8006 11.416" stroke="#1E383E" stroke-miterlimit="10" stroke-linecap="round" stroke-linejoin="round"/>
<path d="M4.71094 9.25391C6.22109 9.25391 7.44531 8.02969 7.44531 6.51953C7.44531 5.00938 6.22109 3.78516 4.71094 3.78516C3.20078 3.78516 1.97656 5.00938 1.97656 6.51953C1.97656 8.02969 3.20078 9.25391 4.71094 9.25391Z" stroke="#1E383E" stroke-miterlimit="10" stroke-linecap="round" stroke-linejoin="round"/>
<path d="M5.37523 5.63562C5.37523 5.63562 5.00902 5.43164 4.74219 5.43164C4.06012 5.43164 3.98805 6.12652 4.32789 6.32734C4.54273 6.4543 4.69332 6.47328 5.02684 6.57602C5.60395 6.75379 5.54438 7.62285 4.74219 7.62687C4.42914 7.62848 4.00781 7.41078 4.00781 7.39746" stroke="#1E383E" stroke-miterlimit="10" stroke-linecap="round" stroke-linejoin="round"/>
<path d="M4.74219 7.625V8.01832" stroke="#1E383E" stroke-miterlimit="10" stroke-linecap="round" stroke-linejoin="round"/>
<path d="M4.74219 5.02344V5.38906" stroke="#1E383E" stroke-miterlimit="10" stroke-linecap="round" stroke-linejoin="round"/>
</g>
<defs>
<clipPath id="clip0_934_31438">
<rect width="20" height="20" fill="white"/>
</clipPath>
</defs>
</svg>
