<svg width="18" height="18" viewBox="0 0 18 18" fill="none" xmlns="http://www.w3.org/2000/svg">
<path fill-rule="evenodd" clip-rule="evenodd" d="M7.86303 3.08541C8.36884 2.21371 9.62767 2.21372 10.1335 3.08542L11.6825 5.75494C11.8253 6.001 12.0721 6.16892 12.3534 6.2114L14.9256 6.59991C16.0468 6.76926 16.4401 8.18494 15.5669 8.90838L13.6928 10.4611C13.4297 10.6791 13.306 11.0228 13.3699 11.3584L13.8949 14.1154C14.1005 15.1954 12.9668 16.0345 11.9941 15.5223L9.43504 14.1748C9.16164 14.0309 8.83487 14.0309 8.56147 14.1748L6.00245 15.5223C5.02969 16.0345 3.89597 15.1954 4.10162 14.1154L4.6266 11.3584C4.6905 11.0228 4.56681 10.6791 4.30376 10.4611L2.42958 8.90838C1.55637 8.18493 1.94967 6.76926 3.07092 6.59991L5.64315 6.2114C5.92445 6.16892 6.17124 6.001 6.31402 5.75494L7.86303 3.08541ZM9.16043 3.65004C9.08817 3.52551 8.90834 3.52551 8.83608 3.65004L7.28707 6.31956C6.97295 6.8609 6.43002 7.23032 5.81116 7.32379L3.23893 7.71229C3.07875 7.73648 3.02256 7.93872 3.14731 8.04207L5.02148 9.59481C5.60021 10.0743 5.87233 10.8306 5.73174 11.5689L5.20676 14.3258C5.17738 14.4801 5.33934 14.6 5.47831 14.5268L8.03733 13.1794C8.63881 12.8627 9.35771 12.8627 9.95918 13.1794L12.5182 14.5268C12.6572 14.6 12.8191 14.4801 12.7898 14.3258L12.2648 11.5689C12.1242 10.8306 12.3963 10.0743 12.975 9.59481L14.8492 8.04207C14.9739 7.93872 14.9178 7.73648 14.7576 7.71229L12.1853 7.32379C11.5665 7.23032 11.0236 6.8609 10.7094 6.31956L9.16043 3.65004Z" fill="#2B2B2B"/>
</svg>
