<svg width="20" height="20" viewBox="0 0 20 20" fill="none" xmlns="http://www.w3.org/2000/svg">
<circle cx="10" cy="10" r="10" fill="white"/>
<g clip-path="url(#clip0_860_55989)">
<path d="M13.5 12.3793C13.0567 12.3793 12.66 12.5543 12.3567 12.8285L8.1975 10.4077C8.22667 10.2735 8.25 10.1393 8.25 9.99935C8.25 9.85935 8.22667 9.72518 8.1975 9.59102L12.31 7.19352C12.625 7.48518 13.0392 7.66602 13.5 7.66602C14.4683 7.66602 15.25 6.88435 15.25 5.91602C15.25 4.94768 14.4683 4.16602 13.5 4.16602C12.5317 4.16602 11.75 4.94768 11.75 5.91602C11.75 6.05602 11.7733 6.19018 11.8025 6.32435L7.69 8.72185C7.375 8.43018 6.96083 8.24935 6.5 8.24935C5.53167 8.24935 4.75 9.03102 4.75 9.99935C4.75 10.9677 5.53167 11.7493 6.5 11.7493C6.96083 11.7493 7.375 11.5685 7.69 11.2768L11.8433 13.7035C11.8142 13.826 11.7967 13.9543 11.7967 14.0827C11.7967 15.0218 12.5608 15.786 13.5 15.786C14.4392 15.786 15.2033 15.0218 15.2033 14.0827C15.2033 13.1435 14.4392 12.3793 13.5 12.3793Z" fill="#666666"/>
</g>
<defs>
<clipPath id="clip0_860_55989">
<rect width="14" height="14" fill="white" transform="translate(3 3)"/>
</clipPath>
</defs>
</svg>
