<svg width="18" height="18" viewBox="0 0 18 18" fill="none" xmlns="http://www.w3.org/2000/svg">
<path d="M9.64868 2.24663C9.35965 1.74852 8.64032 1.74852 8.35128 2.24663L6.31574 5.75461C6.17296 6.00068 5.92618 6.1686 5.64488 6.21108L1.83014 6.78725C1.18943 6.88402 0.964687 7.69298 1.46367 8.10638L4.30548 10.4608C4.56854 10.6787 4.69223 11.0225 4.62833 11.3581L3.88495 15.2619C3.76744 15.8791 4.41528 16.3585 4.97114 16.0659L8.5632 14.1745C8.8366 14.0305 9.16337 14.0305 9.43677 14.1745L13.0288 16.0659C13.5847 16.3585 14.2325 15.8791 14.115 15.2619L13.3716 11.3581C13.3077 11.0225 13.4314 10.6787 13.6945 10.4608L16.5363 8.10638C17.0353 7.69298 16.8105 6.88402 16.1698 6.78725L12.3551 6.21108C12.0738 6.1686 11.827 6.00068 11.6842 5.75461L9.64868 2.24663Z" fill="#FFB628"/>
</svg>
