<svg width="102" height="18" viewBox="0 0 102 18" fill="none" xmlns="http://www.w3.org/2000/svg">
<path d="M9.64868 2.24663C9.35965 1.74852 8.64032 1.74852 8.35128 2.24663L6.31574 5.75461C6.17296 6.00068 5.92618 6.1686 5.64488 6.21108L1.83014 6.78725C1.18943 6.88402 0.964687 7.69298 1.46367 8.10638L4.30548 10.4608C4.56854 10.6787 4.69223 11.0225 4.62833 11.3581L3.88495 15.2619C3.76744 15.8791 4.41528 16.3585 4.97114 16.0659L8.5632 14.1745C8.8366 14.0305 9.16337 14.0305 9.43677 14.1745L13.0288 16.0659C13.5847 16.3585 14.2325 15.8791 14.115 15.2619L13.3716 11.3581C13.3077 11.0225 13.4314 10.6787 13.6945 10.4608L16.5363 8.10638C17.0353 7.69298 16.8105 6.88402 16.1698 6.78725L12.3551 6.21108C12.0738 6.1686 11.827 6.00068 11.6842 5.75461L9.64868 2.24663Z" fill="#FFB628"/>
<path d="M30.6487 2.24663C30.3596 1.74852 29.6403 1.74852 29.3513 2.24663L27.3157 5.75461C27.173 6.00068 26.9262 6.1686 26.6449 6.21108L22.8301 6.78725C22.1894 6.88402 21.9647 7.69298 22.4637 8.10638L25.3055 10.4608C25.5685 10.6787 25.6922 11.0225 25.6283 11.3581L24.885 15.2619C24.7674 15.8791 25.4153 16.3585 25.9711 16.0659L29.5632 14.1745C29.8366 14.0305 30.1634 14.0305 30.4368 14.1745L34.0288 16.0659C34.5847 16.3585 35.2325 15.8791 35.115 15.2619L34.3716 11.3581C34.3077 11.0225 34.4314 10.6787 34.6945 10.4608L37.5363 8.10638C38.0353 7.69298 37.8105 6.88402 37.1698 6.78725L33.3551 6.21108C33.0738 6.1686 32.827 6.00068 32.6842 5.75461L30.6487 2.24663Z" fill="#FFB628"/>
<path d="M51.6487 2.24663C51.3596 1.74852 50.6403 1.74852 50.3513 2.24663L48.3157 5.75461C48.173 6.00068 47.9262 6.1686 47.6449 6.21108L43.8301 6.78725C43.1894 6.88402 42.9647 7.69298 43.4637 8.10638L46.3055 10.4608C46.5685 10.6787 46.6922 11.0225 46.6283 11.3581L45.885 15.2619C45.7674 15.8791 46.4153 16.3585 46.9711 16.0659L50.5632 14.1745C50.8366 14.0305 51.1634 14.0305 51.4368 14.1745L55.0288 16.0659C55.5847 16.3585 56.2325 15.8791 56.115 15.2619L55.3716 11.3581C55.3077 11.0225 55.4314 10.6787 55.6945 10.4608L58.5363 8.10638C59.0353 7.69298 58.8105 6.88402 58.1698 6.78725L54.3551 6.21108C54.0738 6.1686 53.827 6.00068 53.6842 5.75461L51.6487 2.24663Z" fill="#FFB628"/>
<path d="M72.6487 2.24663C72.3596 1.74852 71.6403 1.74852 71.3513 2.24663L69.3157 5.75461C69.173 6.00068 68.9262 6.1686 68.6449 6.21108L64.8301 6.78725C64.1894 6.88402 63.9647 7.69298 64.4637 8.10638L67.3055 10.4608C67.5685 10.6787 67.6922 11.0225 67.6283 11.3581L66.885 15.2619C66.7674 15.8791 67.4153 16.3585 67.9711 16.0659L71.5632 14.1745C71.8366 14.0305 72.1634 14.0305 72.4368 14.1745L76.0288 16.0659C76.5847 16.3585 77.2325 15.8791 77.115 15.2619L76.3716 11.3581C76.3077 11.0225 76.4314 10.6787 76.6945 10.4608L79.5363 8.10638C80.0353 7.69298 79.8105 6.88402 79.1698 6.78725L75.3551 6.21108C75.0738 6.1686 74.827 6.00068 74.6842 5.75461L72.6487 2.24663Z" fill="#FFB628"/>
<path fill-rule="evenodd" clip-rule="evenodd" d="M91.863 3.08541C92.3688 2.21371 93.6277 2.21372 94.1335 3.08542L95.6825 5.75494C95.8253 6.001 96.0721 6.16892 96.3534 6.2114L98.9256 6.59991C100.047 6.76926 100.44 8.18494 99.5669 8.90838L97.6928 10.4611C97.4297 10.6791 97.306 11.0228 97.3699 11.3584L97.8949 14.1154C98.1005 15.1954 96.9668 16.0345 95.9941 15.5223L93.435 14.1748C93.1616 14.0309 92.8349 14.0309 92.5615 14.1748L90.0024 15.5223C89.0297 16.0345 87.896 15.1954 88.1016 14.1154L88.6266 11.3584C88.6905 11.0228 88.5668 10.6791 88.3038 10.4611L86.4296 8.90838C85.5564 8.18493 85.9497 6.76926 87.0709 6.59991L89.6432 6.2114C89.9244 6.16892 90.1712 6.001 90.314 5.75494L91.863 3.08541ZM93.1604 3.65004C93.0882 3.52551 92.9083 3.52551 92.8361 3.65004L91.2871 6.31956C90.9729 6.8609 90.43 7.23032 89.8112 7.32379L87.2389 7.71229C87.0787 7.73648 87.0226 7.93872 87.1473 8.04207L89.0215 9.59481C89.6002 10.0743 89.8723 10.8306 89.7317 11.5689L89.2068 14.3258C89.1774 14.4801 89.3393 14.6 89.4783 14.5268L92.0373 13.1794C92.6388 12.8627 93.3577 12.8627 93.9592 13.1794L96.5182 14.5268C96.6572 14.6 96.8191 14.4801 96.7898 14.3258L96.2648 11.5689C96.1242 10.8306 96.3963 10.0743 96.975 9.59481L98.8492 8.04207C98.9739 7.93872 98.9178 7.73648 98.7576 7.71229L96.1853 7.32379C95.5665 7.23032 95.0236 6.8609 94.7094 6.31956L93.1604 3.65004Z" fill="#2B2B2B"/>
</svg>
