<svg width="29" height="30" viewBox="0 0 29 30" fill="none" xmlns="http://www.w3.org/2000/svg">
<path d="M26.7645 12.1484H0V13.2638C0 13.8555 0.235027 14.4229 0.653377 14.8412C1.07173 15.2596 1.63913 15.4946 2.23077 15.4946H5.57692C6.16856 15.4946 6.73596 15.2596 7.15431 14.8412C7.57267 14.4229 7.80769 13.8555 7.80769 13.2638C7.80769 13.8555 8.04272 14.4229 8.46107 14.8412C8.87942 15.2596 9.44682 15.4946 10.0385 15.4946H16.7308C17.3224 15.4946 17.8898 15.2596 18.3082 14.8412C18.7265 14.4229 18.9615 13.8555 18.9615 13.2638C18.9615 13.8555 19.1966 14.4229 19.6149 14.8412C20.0333 15.2596 20.6007 15.4946 21.1923 15.4946H24.5385C25.1301 15.4946 25.6975 15.2596 26.1159 14.8412C26.5342 14.4229 26.7692 13.8555 26.7692 13.2638V12.1484H26.7645Z" fill="#EC303A"/>
<path d="M26.4933 11.0343L24.4937 4.03522C24.427 3.80222 24.2863 3.59727 24.0928 3.45137C23.8993 3.30546 23.6636 3.22655 23.4212 3.22656H18.3125L19.874 11.0343H26.4933Z" fill="#EC303A"/>
<path d="M8.45423 3.22656H3.34549C3.10315 3.22655 2.86739 3.30546 2.6739 3.45137C2.4804 3.59727 2.33969 3.80222 2.27304 4.03522L0.273438 11.0343H6.89269L8.45423 3.22656Z" fill="#EC303A"/>
<path d="M16.0393 3.22656H10.7295L9.16797 11.0343H17.6008L16.0393 3.22656Z" fill="#EC303A"/>
<path d="M21.1941 16.6119C20.3705 16.6126 19.5759 16.3083 18.9633 15.7578C18.3508 16.3083 17.5561 16.6126 16.7326 16.6119H10.0403C9.21669 16.6126 8.42203 16.3083 7.80949 15.7578C7.19696 16.3083 6.4023 16.6126 5.57873 16.6119H2.23257C1.85235 16.6111 1.47508 16.5451 1.11719 16.4167V28.8811C1.11719 29.177 1.2347 29.4607 1.44388 29.6698C1.65305 29.879 1.93675 29.9965 2.23257 29.9965H4.46334V19.9581C4.46334 19.6623 4.58085 19.3786 4.79003 19.1694C4.99921 18.9602 5.28291 18.8427 5.57873 18.8427H11.1556C11.4515 18.8427 11.7352 18.9602 11.9443 19.1694C12.1535 19.3786 12.271 19.6623 12.271 19.9581V29.9965H24.5403C24.8361 29.9965 25.1198 29.879 25.329 29.6698C25.5381 29.4607 25.6556 29.177 25.6556 28.8811V16.4167C25.2978 16.5451 24.9205 16.6111 24.5403 16.6119H21.1941ZM22.3095 23.3042C22.3095 23.6 22.192 23.8837 21.9828 24.0929C21.7736 24.3021 21.4899 24.4196 21.1941 24.4196H15.6172C15.3214 24.4196 15.0377 24.3021 14.8285 24.0929C14.6193 23.8837 14.5018 23.6 14.5018 23.3042V19.9581C14.5018 19.6623 14.6193 19.3786 14.8285 19.1694C15.0377 18.9602 15.3214 18.8427 15.6172 18.8427H21.1941C21.4899 18.8427 21.7736 18.9602 21.9828 19.1694C22.192 19.3786 22.3095 19.6623 22.3095 19.9581V23.3042Z" fill="#EC303A"/>
<circle cx="25.5" cy="3.5" r="3.5" fill="#7FAA39"/>
</svg>
