<svg width="22" height="22" viewBox="0 0 22 22" fill="none" xmlns="http://www.w3.org/2000/svg">
<rect x="2.53906" y="3.38477" width="16.0769" height="16.0769" fill="white"/>
<path fill-rule="evenodd" clip-rule="evenodd" d="M4.77481 0.343431C8.87873 -0.114477 13.1213 -0.114477 17.2252 0.343431C19.5154 0.598968 21.363 2.40035 21.632 4.69577C22.1227 8.88432 22.1227 13.1157 21.632 17.3042C21.363 19.5996 19.5154 21.401 17.2252 21.6566C13.1213 22.1145 8.87873 22.1145 4.77481 21.6566C2.4846 21.401 0.636949 19.5996 0.368031 17.3042C-0.122677 13.1157 -0.122677 8.88432 0.368031 4.69577C0.636949 2.40035 2.4846 0.598968 4.77481 0.343431ZM11 4.3351C11.5539 4.3351 12.0029 4.78336 12.0029 5.33631V9.99879H16.6732C17.2271 9.99879 17.6761 10.447 17.6761 11C17.6761 11.5529 17.2271 12.0012 16.6732 12.0012H12.0029V16.6637C12.0029 17.2166 11.5539 17.6649 11 17.6649C10.4461 17.6649 9.99714 17.2166 9.99714 16.6637V12.0012H5.32691C4.77303 12.0012 4.32403 11.5529 4.32403 11C4.32403 10.447 4.77303 9.99879 5.32691 9.99879H9.99714V5.33631C9.99714 4.78336 10.4461 4.3351 11 4.3351Z" fill="#EC303A"/>
</svg>
