<svg width="22" height="24" viewBox="0 0 22 24" fill="none" xmlns="http://www.w3.org/2000/svg">
<path fill-rule="evenodd" clip-rule="evenodd" d="M15.2189 0.0968787C14.9273 0.148685 14.3201 0.389448 13.8695 0.632134C13.0834 1.05545 12.9429 1.1926 10.3937 4.02376C7.56822 7.16191 7.34374 7.4815 6.97093 8.89703C6.75021 9.7349 6.75098 11.2489 6.97247 12.1037C7.30345 13.3813 8.26093 14.8527 9.15364 15.4559C9.92471 15.9768 10.7852 15.5299 10.7852 14.6084C10.7852 14.1929 10.7352 14.108 10.073 13.3986C9.27797 12.5468 9.02545 12.076 8.85812 11.1331C8.72357 10.3755 8.83095 9.53408 9.15316 8.82141C9.38207 8.31488 13.8712 3.22584 14.4604 2.80488C15.0138 2.40955 15.8397 2.18695 16.5265 2.24805C18.6223 2.43455 20.093 4.75983 19.5132 6.97028C19.2863 7.83539 19.2005 7.96399 17.7547 9.60672C16.4808 11.0539 16.4719 11.0676 16.4719 11.5609C16.4719 12.1163 16.7372 12.5179 17.1865 12.6429C17.6899 12.7829 17.9492 12.5902 19.3234 11.0547C20.5157 9.72261 20.7302 9.42737 21.0859 8.62999C22.1382 6.27117 21.7423 3.664 20.0464 1.78457C18.7154 0.30955 17.1349 -0.24301 15.2189 0.0968787ZM11.1633 8.62177C10.9418 8.86734 10.8816 9.02938 10.8816 9.38102C10.8816 9.79653 10.9316 9.88145 11.5938 10.5908C12.3889 11.4426 12.6414 11.9134 12.8087 12.8563C12.9433 13.6139 12.8359 14.4553 12.5137 15.168C12.2848 15.6745 7.79559 20.7636 7.20639 21.1845C6.65305 21.5798 5.82714 21.8025 5.14031 21.7414C3.04453 21.5548 1.57381 19.2296 2.15366 17.0191C2.38054 16.154 2.46632 16.0254 3.91218 14.3827C5.16315 12.9614 5.19496 12.9136 5.19496 12.457C5.19496 11.9064 5.02426 11.5944 4.62205 11.4097C4.02312 11.1347 3.77994 11.2968 2.33071 12.9363C1.16235 14.2582 0.929289 14.5813 0.579416 15.3642C-0.471555 17.7163 -0.0742606 20.3267 1.62046 22.2048C3.31421 24.0819 5.66059 24.521 7.79732 23.3609C8.58092 22.9356 8.73225 22.7876 11.2731 19.9656C14.0986 16.8275 14.3231 16.5079 14.6959 15.0924C14.9166 14.2545 14.9159 12.7405 14.6944 11.8857C14.3634 10.6081 13.4059 9.13673 12.5132 8.53354C12.0248 8.20358 11.5103 8.23723 11.1633 8.62177Z" fill="#C4C4C4"/>
</svg>
