<svg width="29" height="29" viewBox="0 0 29 29" fill="none" xmlns="http://www.w3.org/2000/svg">
<path fill-rule="evenodd" clip-rule="evenodd" d="M15.1468 2.52151C15.2885 2.52308 15.4229 2.58475 15.5166 2.69117L17.8175 5.30584H23.9445C25.3253 5.30584 26.4445 6.42513 26.4445 7.80584V23.8532C26.4445 25.2339 25.3253 26.3532 23.9445 26.3532H6.22656C4.84585 26.3532 3.72656 25.2339 3.72656 23.8532V7.80584C3.72656 6.42513 4.84585 5.30584 6.22656 5.30584H12.3602L14.7733 2.68296C14.8693 2.57863 15.005 2.51995 15.1468 2.52151ZM15.133 3.76895L12.9476 6.14437C12.8529 6.24728 12.7195 6.30584 12.5796 6.30584H6.22656C5.39814 6.30584 4.72656 6.97741 4.72656 7.80584V23.8532C4.72656 24.6816 5.39814 25.3532 6.22656 25.3532H7.06836V25.2847C7.06836 22.2471 9.53079 19.7847 12.5684 19.7847H17.047C20.0846 19.7847 22.547 22.2471 22.547 25.2847V25.3532H23.9445C24.773 25.3532 25.4445 24.6816 25.4445 23.8532V7.80584C25.4445 6.97741 24.773 6.30584 23.9445 6.30584H17.5915C17.4478 6.30584 17.311 6.24402 17.2161 6.13615L15.133 3.76895ZM21.547 25.3532V25.2847C21.547 22.7994 19.5323 20.7847 17.047 20.7847H12.5684C10.0831 20.7847 8.06836 22.7994 8.06836 25.2847V25.3532H21.547ZM15.0292 17.0564C16.9373 17.0564 18.4842 15.5096 18.4842 13.6015C18.4842 11.6933 16.9373 10.1465 15.0292 10.1465C13.1211 10.1465 11.5742 11.6933 11.5742 13.6015C11.5742 15.5096 13.1211 17.0564 15.0292 17.0564ZM15.0292 18.0564C17.4896 18.0564 19.4842 16.0619 19.4842 13.6015C19.4842 11.141 17.4896 9.14648 15.0292 9.14648C12.5688 9.14648 10.5742 11.141 10.5742 13.6015C10.5742 16.0619 12.5688 18.0564 15.0292 18.0564Z" fill="#C4C4C4"/>
<path d="M15.5166 2.69117L15.3289 2.85633V2.85633L15.5166 2.69117ZM15.1468 2.52151L15.1495 2.27153L15.1468 2.52151ZM17.8175 5.30584L17.6298 5.471L17.7045 5.55584H17.8175V5.30584ZM12.3602 5.30584V5.55584H12.4699L12.5442 5.4751L12.3602 5.30584ZM14.7733 2.68296L14.5893 2.51369L14.5893 2.51369L14.7733 2.68296ZM12.9476 6.14437L13.1316 6.31363V6.31363L12.9476 6.14437ZM15.133 3.76895L15.3207 3.6038L15.1371 3.39522L14.949 3.59969L15.133 3.76895ZM7.06836 25.3532V25.6032H7.31836V25.3532H7.06836ZM22.547 25.3532H22.297V25.6032H22.547V25.3532ZM17.2161 6.13615L17.0284 6.30131V6.30131L17.2161 6.13615ZM21.547 25.3532V25.6032H21.797V25.3532H21.547ZM8.06836 25.3532H7.81836V25.6032H8.06836V25.3532ZM15.7043 2.52601C15.5638 2.36638 15.3622 2.27388 15.1495 2.27153L15.144 2.7715C15.2149 2.77228 15.2821 2.80312 15.3289 2.85633L15.7043 2.52601ZM18.0052 5.14068L15.7043 2.52601L15.3289 2.85633L17.6298 5.471L18.0052 5.14068ZM23.9445 5.05584H17.8175V5.55584H23.9445V5.05584ZM26.6945 7.80584C26.6945 6.28706 25.4633 5.05584 23.9445 5.05584V5.55584C25.1872 5.55584 26.1945 6.5632 26.1945 7.80584H26.6945ZM26.6945 23.8532V7.80584H26.1945V23.8532H26.6945ZM23.9445 26.6032C25.4633 26.6032 26.6945 25.372 26.6945 23.8532H26.1945C26.1945 25.0958 25.1872 26.1032 23.9445 26.1032V26.6032ZM6.22656 26.6032H23.9445V26.1032H6.22656V26.6032ZM3.47656 23.8532C3.47656 25.372 4.70778 26.6032 6.22656 26.6032V26.1032C4.98392 26.1032 3.97656 25.0958 3.97656 23.8532H3.47656ZM3.47656 7.80584V23.8532H3.97656V7.80584H3.47656ZM6.22656 5.05584C4.70778 5.05584 3.47656 6.28706 3.47656 7.80584H3.97656C3.97656 6.5632 4.98392 5.55584 6.22656 5.55584V5.05584ZM12.3602 5.05584H6.22656V5.55584H12.3602V5.05584ZM14.5893 2.51369L12.1762 5.13658L12.5442 5.4751L14.9573 2.85222L14.5893 2.51369ZM15.1495 2.27153C14.9369 2.26918 14.7333 2.3572 14.5893 2.51369L14.9573 2.85222C15.0052 2.80006 15.0731 2.77072 15.144 2.7715L15.1495 2.27153ZM13.1316 6.31363L15.317 3.93822L14.949 3.59969L12.7636 5.9751L13.1316 6.31363ZM12.5796 6.55584C12.7894 6.55584 12.9896 6.468 13.1316 6.31363L12.7636 5.9751C12.7163 6.02656 12.6496 6.05584 12.5796 6.05584V6.55584ZM6.22656 6.55584H12.5796V6.05584H6.22656V6.55584ZM4.97656 7.80584C4.97656 7.11548 5.53621 6.55584 6.22656 6.55584V6.05584C5.26006 6.05584 4.47656 6.83934 4.47656 7.80584H4.97656ZM4.97656 23.8532V7.80584H4.47656V23.8532H4.97656ZM6.22656 25.1032C5.53621 25.1032 4.97656 24.5436 4.97656 23.8532H4.47656C4.47656 24.8197 5.26006 25.6032 6.22656 25.6032V25.1032ZM7.06836 25.1032H6.22656V25.6032H7.06836V25.1032ZM7.31836 25.3532V25.2847H6.81836V25.3532H7.31836ZM7.31836 25.2847C7.31836 22.3852 9.66887 20.0347 12.5684 20.0347V19.5347C9.39272 19.5347 6.81836 22.109 6.81836 25.2847H7.31836ZM12.5684 20.0347H17.047V19.5347H12.5684V20.0347ZM17.047 20.0347C19.9465 20.0347 22.297 22.3852 22.297 25.2847H22.797C22.797 22.109 20.2227 19.5347 17.047 19.5347V20.0347ZM22.297 25.2847V25.3532H22.797V25.2847H22.297ZM23.9445 25.1032H22.547V25.6032H23.9445V25.1032ZM25.1945 23.8532C25.1945 24.5436 24.6349 25.1032 23.9445 25.1032V25.6032C24.911 25.6032 25.6945 24.8197 25.6945 23.8532H25.1945ZM25.1945 7.80584V23.8532H25.6945V7.80584H25.1945ZM23.9445 6.55584C24.6349 6.55584 25.1945 7.11548 25.1945 7.80584H25.6945C25.6945 6.83934 24.911 6.05584 23.9445 6.05584V6.55584ZM17.5915 6.55584H23.9445V6.05584H17.5915V6.55584ZM17.0284 6.30131C17.1708 6.46311 17.3759 6.55584 17.5915 6.55584V6.05584C17.5196 6.05584 17.4513 6.02493 17.4038 5.971L17.0284 6.30131ZM14.9453 3.93411L17.0284 6.30131L17.4038 5.971L15.3207 3.6038L14.9453 3.93411ZM21.797 25.3532V25.2847H21.297V25.3532H21.797ZM21.797 25.2847C21.797 22.6613 19.6704 20.5347 17.047 20.5347V21.0347C19.3942 21.0347 21.297 22.9375 21.297 25.2847H21.797ZM17.047 20.5347H12.5684V21.0347H17.047V20.5347ZM12.5684 20.5347C9.94501 20.5347 7.81836 22.6613 7.81836 25.2847H8.31836C8.31836 22.9375 10.2212 21.0347 12.5684 21.0347V20.5347ZM7.81836 25.2847V25.3532H8.31836V25.2847H7.81836ZM21.547 25.1032H8.06836V25.6032H21.547V25.1032ZM18.2342 13.6015C18.2342 15.3715 16.7992 16.8064 15.0292 16.8064V17.3064C17.0754 17.3064 18.7342 15.6477 18.7342 13.6015H18.2342ZM15.0292 10.3965C16.7992 10.3965 18.2342 11.8314 18.2342 13.6015H18.7342C18.7342 11.5553 17.0754 9.89648 15.0292 9.89648V10.3965ZM11.8242 13.6015C11.8242 11.8314 13.2591 10.3965 15.0292 10.3965V9.89648C12.983 9.89648 11.3242 11.5553 11.3242 13.6015H11.8242ZM15.0292 16.8064C13.2591 16.8064 11.8242 15.3715 11.8242 13.6015H11.3242C11.3242 15.6477 12.983 17.3064 15.0292 17.3064V16.8064ZM19.2342 13.6015C19.2342 15.9238 17.3515 17.8064 15.0292 17.8064V18.3064C17.6277 18.3064 19.7342 16.1999 19.7342 13.6015H19.2342ZM15.0292 9.39648C17.3515 9.39648 19.2342 11.2791 19.2342 13.6015H19.7342C19.7342 11.003 17.6277 8.89648 15.0292 8.89648V9.39648ZM10.8242 13.6015C10.8242 11.2791 12.7068 9.39648 15.0292 9.39648V8.89648C12.4307 8.89648 10.3242 11.003 10.3242 13.6015H10.8242ZM15.0292 17.8064C12.7068 17.8064 10.8242 15.9238 10.8242 13.6015H10.3242C10.3242 16.1999 12.4307 18.3064 15.0292 18.3064V17.8064Z" fill="#C4C4C4"/>
</svg>
