<svg width="24" height="25" viewBox="0 0 24 25" fill="none" xmlns="http://www.w3.org/2000/svg">
<path fill-rule="evenodd" clip-rule="evenodd" d="M11.786 9.47363C13.4694 9.47363 14.8338 10.8284 14.8338 12.4999C14.8338 14.1715 13.4694 15.5263 11.786 15.5263C10.1026 15.5263 8.73828 14.1715 8.73828 12.4999C8.73828 10.8284 10.1026 9.47363 11.786 9.47363Z" stroke="#2B2B2B" stroke-width="2" stroke-linecap="round" stroke-linejoin="round"/>
<path fill-rule="evenodd" clip-rule="evenodd" d="M21.7418 6.7503C20.9085 5.30704 19.0637 4.81321 17.6219 5.64663C16.3677 6.37005 14.8003 5.46488 14.8003 4.01684C14.8003 2.35118 13.4493 1 11.7839 1C10.1185 1 8.76749 2.35118 8.76749 4.01684C8.76749 5.46488 7.20011 6.37005 5.94715 5.64663C4.50411 4.81321 2.65935 5.30704 1.82604 6.7503C0.993924 8.19355 1.48769 10.0386 2.93074 10.8708C4.18369 11.5954 4.18369 13.4046 2.93074 14.1292C1.48769 14.9626 0.993924 16.8076 1.82604 18.2497C2.65935 19.693 4.50411 20.1868 5.94596 19.3546H5.94715C7.20011 18.6299 8.76749 19.5351 8.76749 20.9832C8.76749 22.6488 10.1185 24 11.7839 24C13.4493 24 14.8003 22.6488 14.8003 20.9832C14.8003 19.5351 16.3677 18.6299 17.6219 19.3546C19.0637 20.1868 20.9085 19.693 21.7418 18.2497C22.5751 16.8076 22.0801 14.9626 20.6383 14.1292H20.6371C19.3841 13.4046 19.3841 11.5954 20.6383 10.8708C22.0801 10.0386 22.5751 8.19355 21.7418 6.7503Z" stroke="#2B2B2B" stroke-width="2" stroke-linecap="round" stroke-linejoin="round"/>
</svg>
