<svg width="21" height="22" viewBox="0 0 21 22" fill="none" xmlns="http://www.w3.org/2000/svg">
<path fill-rule="evenodd" clip-rule="evenodd" d="M6.78332 1.87519L9.39427 5.33972L9.2624 5.41748H13.6032L10.9337 1.87519H6.78332ZM18.8425 5.41748H15.6433L15.7751 5.33972L13.1642 1.87519H15.7021C17.4365 1.87519 18.8425 3.36772 18.8425 5.20886V5.41748ZM7.22238 5.41748L4.56735 1.89445C2.99264 2.07416 1.76648 3.48951 1.76648 5.20886V5.41748H7.22238ZM1.76648 16.6683V7.29267H18.8425V16.6683C18.8425 18.5095 17.4365 20.002 15.7021 20.002H4.90689C3.17249 20.002 1.76648 18.5095 1.76648 16.6683ZM4.90689 0C2.19689 0 0 2.33208 0 5.20886V16.6683C0 19.5451 2.19689 21.8772 4.90689 21.8772H15.7021C18.4121 21.8772 20.609 19.5451 20.609 16.6683V5.20886C20.609 2.33208 18.4121 0 15.7021 0H4.90689ZM13.4949 13.4732C13.822 13.2727 13.822 12.7715 13.4949 12.571L8.34265 9.41334C8.01553 9.21285 7.60662 9.46346 7.60662 9.86444L7.60662 16.1798C7.60662 16.5808 8.01553 16.8314 8.34265 16.6309L13.4949 13.4732Z" fill="#C4C4C4"/>
</svg>
