<svg width="28" height="28" viewBox="0 0 28 28" fill="none" xmlns="http://www.w3.org/2000/svg">
<path d="M8.5346 4.39765C12.1367 3.99505 15.86 3.99505 19.4622 4.39765C20.8146 4.5488 22.0018 5.28016 22.7528 6.34228L13.4151 15.68L10.5338 12.7987C10.1921 12.457 9.63807 12.457 9.29636 12.7987C8.95465 13.1404 8.95465 13.6944 9.29636 14.0362L12.7964 17.5362C13.1381 17.8779 13.6921 17.8779 14.0338 17.5362L23.5018 8.06815C23.528 8.19598 23.5489 8.32578 23.5643 8.45733C23.9951 12.1404 23.9951 15.8611 23.5643 19.5442C23.3137 21.6873 21.593 23.3657 19.4622 23.6039C15.86 24.0065 12.1367 24.0065 8.5346 23.6039C6.40382 23.3657 4.68311 21.6873 4.43245 19.5442C4.00168 15.8611 4.00168 12.1404 4.43245 8.45733C4.68311 6.31421 6.40382 4.63579 8.5346 4.39765Z" fill="#04C52E"/>
</svg>
