<svg width="20" height="20" viewBox="0 0 20 20" fill="none" xmlns="http://www.w3.org/2000/svg">
<path fill-rule="evenodd" clip-rule="evenodd" d="M11.1305 7.29167H3.33594C2.99076 7.29167 2.71094 7.01184 2.71094 6.66667C2.71094 6.32149 2.99076 6.04167 3.33594 6.04167H11.1305C11.4026 5.07979 12.287 4.375 13.3359 4.375C14.3849 4.375 15.2693 5.07979 15.5413 6.04167H16.6693C17.0144 6.04167 17.2943 6.32149 17.2943 6.66667C17.2943 7.01184 17.0144 7.29167 16.6693 7.29167H15.5413C15.2693 8.25354 14.3849 8.95833 13.3359 8.95833C12.287 8.95833 11.4026 8.25354 11.1305 7.29167ZM12.2943 6.66667C12.2943 6.09137 12.7606 5.625 13.3359 5.625C13.9112 5.625 14.3776 6.09137 14.3776 6.66667C14.3776 7.24196 13.9112 7.70833 13.3359 7.70833C12.7606 7.70833 12.2943 7.24196 12.2943 6.66667Z" fill="black"/>
<path fill-rule="evenodd" clip-rule="evenodd" d="M8.87467 13.9583H16.6693C17.0144 13.9583 17.2943 13.6785 17.2943 13.3333C17.2943 12.9882 17.0144 12.7083 16.6693 12.7083H8.87467C8.60262 11.7465 7.71825 11.0417 6.66927 11.0417C5.62029 11.0417 4.73592 11.7465 4.46387 12.7083H3.33594C2.99076 12.7083 2.71094 12.9882 2.71094 13.3333C2.71094 13.6785 2.99076 13.9583 3.33594 13.9583H4.46387C4.73592 14.9202 5.62029 15.625 6.66927 15.625C7.71825 15.625 8.60262 14.9202 8.87467 13.9583ZM5.6276 13.3333C5.6276 12.758 6.09397 12.2917 6.66927 12.2917C7.24457 12.2917 7.71094 12.758 7.71094 13.3333C7.71094 13.9086 7.24457 14.375 6.66927 14.375C6.09397 14.375 5.6276 13.9086 5.6276 13.3333Z" fill="black"/>
</svg>
