<svg width="175" height="38" viewBox="0 0 175 38" fill="none" xmlns="http://www.w3.org/2000/svg">
<rect width="6" height="38" rx="3" fill="white"/>
<rect x="26" width="6" height="38" rx="3" fill="white"/>
<rect x="52" width="6" height="38" rx="3" fill="white"/>
<rect x="78" width="6" height="38" rx="3" fill="white"/>
<rect x="104" width="6" height="38" rx="3" fill="white"/>
<rect x="130" width="6" height="38" rx="3" fill="white"/>
<rect x="156" width="6" height="38" rx="3" fill="white"/>
<rect x="13" y="9" width="6" height="20" rx="3" fill="white"/>
<rect x="39" y="9" width="6" height="20" rx="3" fill="white"/>
<rect x="65" y="9" width="6" height="20" rx="3" fill="white"/>
<rect x="91" y="9" width="6" height="20" rx="3" fill="white"/>
<rect x="117" y="9" width="6" height="20" rx="3" fill="white"/>
<rect x="143" y="9" width="6" height="20" rx="3" fill="white"/>
<rect x="169" y="9" width="6" height="20" rx="3" fill="white"/>
</svg>
