<svg width="26" height="26" viewBox="0 0 26 26" fill="none" xmlns="http://www.w3.org/2000/svg">
<g clip-path="url(#clip0_704_28515)">
<path d="M20.4073 17.7769H11.0845C10.2361 17.7708 9.41434 17.4797 8.75143 16.9501C8.08852 16.4206 7.62296 15.6835 7.42963 14.8574L5.94392 8.81799C5.80723 8.25722 5.80022 7.67265 5.92343 7.10876C6.04664 6.54486 6.29681 6.01649 6.65494 5.56382C7.01306 5.11116 7.46969 4.74612 7.99011 4.49647C8.51052 4.24683 9.08102 4.11914 9.6582 4.12314H21.9153C22.4925 4.11914 23.063 4.24683 23.5834 4.49647C24.1039 4.74612 24.5605 5.11116 24.9186 5.56382C25.2767 6.01649 25.5269 6.54486 25.6501 7.10876C25.7733 7.67265 25.7663 8.25722 25.6296 8.81799L24.1439 14.8723C23.9433 15.7087 23.4641 16.4519 22.785 16.9798C22.1059 17.5077 21.2674 17.7888 20.4073 17.7769ZM9.61363 5.98028C9.32 5.98118 9.03038 6.0485 8.76646 6.1772C8.50255 6.30591 8.27117 6.49266 8.08966 6.72347C7.90816 6.95428 7.78123 7.22317 7.71838 7.51C7.65554 7.79682 7.65841 8.09415 7.72677 8.37971L9.21249 14.434C9.31311 14.8583 9.55434 15.236 9.89693 15.5058C10.2395 15.7755 10.6633 15.9214 11.0993 15.9197H20.4073C20.8434 15.9214 21.2672 15.7755 21.6098 15.5058C21.9524 15.236 22.1936 14.8583 22.2942 14.434L23.7799 8.37971C23.8498 8.09403 23.8537 7.7962 23.7915 7.50876C23.7292 7.22133 23.6024 6.95182 23.4206 6.72064C23.2388 6.48946 23.0068 6.30267 22.7422 6.1744C22.4775 6.04613 22.1872 5.97975 21.8931 5.98028H9.61363Z" fill="white"/>
<path d="M7.0287 10.3999C6.81655 10.3974 6.61166 10.3223 6.44812 10.1871C6.28458 10.052 6.17226 9.86488 6.12984 9.657L4.80013 3.885C4.67734 3.35919 4.37973 2.89063 3.956 2.55596C3.53227 2.22129 3.0075 2.04034 2.46755 2.04272H1.2567C1.01042 2.04272 0.774238 1.94488 0.600097 1.77074C0.425956 1.5966 0.328125 1.36042 0.328125 1.11414C0.328125 0.867872 0.425956 0.631686 0.600097 0.457545C0.774238 0.283404 1.01042 0.185573 1.2567 0.185573H2.46755C3.42718 0.18222 4.35958 0.504365 5.11247 1.09939C5.86535 1.69441 6.39422 2.52714 6.6127 3.46157L7.93498 9.23357C7.9636 9.35213 7.96839 9.4752 7.94907 9.59563C7.92975 9.71605 7.88671 9.83144 7.82244 9.9351C7.75817 10.0388 7.67395 10.1286 7.57468 10.1995C7.4754 10.2703 7.36305 10.3208 7.24413 10.3479C7.17433 10.3727 7.10212 10.3901 7.0287 10.3999ZM11.2258 25.8141C10.6381 25.8141 10.0637 25.6399 9.575 25.3134C9.08635 24.9869 8.7055 24.5228 8.4806 23.9798C8.2557 23.4369 8.19685 22.8394 8.31151 22.263C8.42616 21.6866 8.70916 21.1572 9.12472 20.7416C9.54028 20.326 10.0697 20.043 10.6461 19.9284C11.2225 19.8137 11.82 19.8726 12.363 20.0975C12.9059 20.3224 13.37 20.7032 13.6965 21.1919C14.023 21.6805 14.1973 22.255 14.1973 22.8427C14.1973 23.6308 13.8842 24.3866 13.327 24.9438C12.7697 25.5011 12.0139 25.8141 11.2258 25.8141ZM11.2258 21.6987C11.0025 21.6987 10.7842 21.7649 10.5985 21.889C10.4128 22.0131 10.2681 22.1894 10.1826 22.3958C10.0972 22.6021 10.0748 22.8291 10.1184 23.0481C10.162 23.2672 10.2695 23.4684 10.4274 23.6263C10.5853 23.7842 10.7865 23.8917 11.0056 23.9353C11.2246 23.9789 11.4516 23.9565 11.6579 23.871C11.8643 23.7856 12.0406 23.6409 12.1647 23.4552C12.2888 23.2695 12.355 23.0512 12.355 22.8279C12.355 22.5284 12.236 22.2412 12.0243 22.0294C11.8125 21.8177 11.5253 21.6987 11.2258 21.6987ZM21.4921 25.8141C20.9044 25.8141 20.3299 25.6399 19.8413 25.3134C19.3526 24.9869 18.9718 24.5228 18.7469 23.9798C18.522 23.4369 18.4631 22.8394 18.5778 22.263C18.6924 21.6866 18.9754 21.1572 19.391 20.7416C19.8066 20.326 20.336 20.043 20.9124 19.9284C21.4888 19.8137 22.0863 19.8726 22.6292 20.0975C23.1722 20.3224 23.6363 20.7032 23.9628 21.1919C24.2893 21.6805 24.4636 22.255 24.4636 22.8427C24.4636 23.6308 24.1505 24.3866 23.5932 24.9438C23.036 25.5011 22.2802 25.8141 21.4921 25.8141ZM21.4921 21.6987C21.2691 21.7002 21.0516 21.7677 20.8668 21.8926C20.6821 22.0176 20.5386 22.1944 20.4542 22.4009C20.3699 22.6073 20.3486 22.8341 20.393 23.0527C20.4374 23.2712 20.5455 23.4717 20.7038 23.6289C20.862 23.786 21.0632 23.8928 21.282 23.9358C21.5008 23.9788 21.7275 23.956 21.9334 23.8703C22.1392 23.7846 22.3152 23.6399 22.4389 23.4544C22.5627 23.2689 22.6287 23.0509 22.6287 22.8279C22.6287 22.6789 22.5992 22.5315 22.542 22.394C22.4848 22.2565 22.401 22.1317 22.2954 22.0268C22.1897 21.9218 22.0644 21.8388 21.9265 21.7825C21.7887 21.7262 21.641 21.6977 21.4921 21.6987Z" fill="white"/>
<path d="M21.4923 21.6993H9.11628C8.34988 21.6993 7.61487 21.3949 7.07294 20.853C6.53101 20.311 6.22656 19.576 6.22656 18.8096C6.22656 18.0432 6.53101 17.3082 7.07294 16.7663C7.61487 16.2244 8.34988 15.9199 9.11628 15.9199H11.0848C11.3311 15.9199 11.5673 16.0178 11.7414 16.1919C11.9156 16.366 12.0134 16.6022 12.0134 16.8485C12.0134 17.0948 11.9156 17.331 11.7414 17.5051C11.5673 17.6792 11.3311 17.7771 11.0848 17.7771H9.11628C8.84242 17.7771 8.57978 17.8859 8.38614 18.0795C8.19249 18.2731 8.08371 18.5358 8.08371 18.8096C8.08371 19.0835 8.19249 19.3461 8.38614 19.5398C8.57978 19.7334 8.84242 19.8422 9.11628 19.8422H21.4923C21.7386 19.8422 21.9747 19.94 22.1489 20.1142C22.323 20.2883 22.4208 20.5245 22.4208 20.7708C22.4208 21.0171 22.323 21.2532 22.1489 21.4274C21.9747 21.6015 21.7386 21.6993 21.4923 21.6993Z" fill="white"/>
</g>
<defs>
<clipPath id="clip0_704_28515">
<rect width="26" height="26" fill="white"/>
</clipPath>
</defs>
</svg>
