<svg width="34" height="34" viewBox="0 0 34 34" fill="none" xmlns="http://www.w3.org/2000/svg">
<path d="M26.459 27.7775L18.3627 19.6798C14.7611 22.2404 9.79818 21.614 6.94563 18.239C4.09308 14.8639 4.30253 9.86598 7.42747 6.74139C10.5516 3.61544 15.55 3.40508 18.9257 6.25748C22.3014 9.10988 22.9281 14.0733 20.3673 17.6752L28.4636 25.7729L26.4604 27.7761L26.459 27.7775ZM13.437 7.08421C10.7506 7.0836 8.43287 8.96935 7.88715 11.5998C7.34142 14.2302 8.71765 16.8823 11.1826 17.9504C13.6476 19.0185 16.5237 18.2091 18.0698 16.0121C19.6159 13.8152 19.4069 10.8346 17.5694 8.87489L18.4265 9.72489L17.4603 8.76156L17.4433 8.74456C16.3833 7.67806 14.9406 7.08015 13.437 7.08421Z" fill="white" fill-opacity="0.87"/>
</svg>
