<svg width="26" height="22" viewBox="0 0 26 22" fill="none" xmlns="http://www.w3.org/2000/svg">
<path fill-rule="evenodd" clip-rule="evenodd" d="M0 7.08012C0 3.07999 3.51987 0 7.65143 0C9.78116 0 11.6552 0.995612 13 2.28385C14.3448 0.995612 16.2188 0 18.3486 0C22.4801 0 26 3.07998 26 7.08012C26 9.82026 24.8279 12.2299 23.2042 14.2668C21.5832 16.3002 19.4628 18.0259 17.4326 19.4282C16.6571 19.9638 15.8727 20.4578 15.1547 20.8224C14.4805 21.1647 13.7053 21.4783 13 21.4783C12.2947 21.4783 11.5195 21.1647 10.8453 20.8224C10.1273 20.4578 9.34286 19.9638 8.56742 19.4282C6.53722 18.0259 4.41684 16.3002 2.79585 14.2668C1.17205 12.2299 0 9.82026 0 7.08012ZM7.65143 2.22189C4.56226 2.22189 2.22857 4.48688 2.22857 7.08012C2.22857 9.15906 3.11374 11.0946 4.54048 12.8843C5.97002 14.6775 7.89349 16.2597 9.83653 17.6017C10.5718 18.1096 11.2643 18.5417 11.8567 18.8425C12.4928 19.1655 12.8613 19.2564 13 19.2564C13.1387 19.2564 13.5072 19.1655 14.1433 18.8425C14.7357 18.5417 15.4282 18.1096 16.1635 17.6017C18.1065 16.2597 20.03 14.6775 21.4595 12.8843C22.8863 11.0946 23.7714 9.15906 23.7714 7.08012C23.7714 4.48688 21.4377 2.22189 18.3486 2.22189C16.5744 2.22189 14.9178 3.27865 13.8834 4.61993C13.6724 4.89343 13.346 5.05371 13 5.05371C12.654 5.05371 12.3276 4.89343 12.1166 4.61993C11.0822 3.27865 9.4256 2.22189 7.65143 2.22189Z" fill="white"/>
</svg>
