<svg width="30" height="30" viewBox="0 0 30 30" fill="none" xmlns="http://www.w3.org/2000/svg">
<path fill-rule="evenodd" clip-rule="evenodd" d="M11.1602 5.58828C9.5712 5.41068 7.92632 5.41068 6.33729 5.58828C5.95118 5.63143 5.64669 5.93717 5.60326 6.30849C5.4135 7.93091 5.4135 9.56993 5.60326 11.1924C5.64669 11.5637 5.95118 11.8694 6.3373 11.9126C7.92632 12.0902 9.5712 12.0902 11.1602 11.9126C11.5463 11.8694 11.8508 11.5637 11.8943 11.1924C12.084 9.56993 12.084 7.93091 11.8943 6.30849C11.8508 5.93717 11.5463 5.63143 11.1602 5.58828ZM6.12903 3.72488C7.85647 3.53181 9.64105 3.53181 11.3685 3.72488C12.607 3.8633 13.6101 4.83829 13.7566 6.09067C13.9633 7.85782 13.9633 9.64303 13.7566 11.4102C13.6101 12.6626 12.607 13.6375 11.3685 13.776C9.64105 13.969 7.85647 13.969 6.12903 13.776C4.89048 13.6375 3.88743 12.6626 3.74095 11.4102C3.53427 9.64303 3.53427 7.85782 3.74095 6.09068C3.88743 4.83829 4.89048 3.8633 6.12903 3.72488Z" fill="white"/>
<path fill-rule="evenodd" clip-rule="evenodd" d="M11.1602 18.0883C9.5712 17.9107 7.92632 17.9107 6.33729 18.0883C5.95118 18.1314 5.64669 18.4372 5.60326 18.8085C5.4135 20.4309 5.4135 22.0699 5.60326 23.6924C5.64669 24.0637 5.95118 24.3694 6.3373 24.4126C7.92632 24.5902 9.5712 24.5902 11.1602 24.4126C11.5463 24.3694 11.8508 24.0637 11.8943 23.6924C12.084 22.0699 12.084 20.4309 11.8943 18.8085C11.8508 18.4372 11.5463 18.1314 11.1602 18.0883ZM6.12903 16.2249C7.85647 16.0318 9.64105 16.0318 11.3685 16.2249C12.607 16.3633 13.6101 17.3383 13.7566 18.5907C13.9633 20.3578 13.9633 22.143 13.7566 23.9102C13.6101 25.1626 12.607 26.1375 11.3685 26.276C9.64105 26.469 7.85647 26.469 6.12903 26.276C4.89048 26.1375 3.88743 25.1626 3.74095 23.9102C3.53427 22.143 3.53427 20.3578 3.74095 18.5907C3.88743 17.3383 4.89048 16.3633 6.12903 16.2249Z" fill="white"/>
<path fill-rule="evenodd" clip-rule="evenodd" d="M23.6602 5.58828C22.0712 5.41068 20.4263 5.41068 18.8373 5.58828C18.4512 5.63143 18.1467 5.93717 18.1033 6.30849C17.9135 7.93091 17.9135 9.56993 18.1033 11.1924C18.1467 11.5637 18.4512 11.8694 18.8373 11.9126C20.4263 12.0902 22.0712 12.0902 23.6602 11.9126C24.0463 11.8694 24.3508 11.5637 24.3943 11.1924C24.584 9.56993 24.584 7.93091 24.3943 6.30849C24.3508 5.93717 24.0463 5.63143 23.6602 5.58828ZM18.629 3.72488C20.3565 3.53181 22.1411 3.53181 23.8685 3.72488C25.107 3.8633 26.1101 4.83829 26.2566 6.09067C26.4633 7.85782 26.4633 9.64303 26.2566 11.4102C26.1101 12.6626 25.107 13.6375 23.8685 13.776C22.1411 13.969 20.3565 13.969 18.629 13.776C17.3905 13.6375 16.3874 12.6626 16.2409 11.4102C16.0343 9.64303 16.0343 7.85782 16.2409 6.09068C16.3874 4.83829 17.3905 3.8633 18.629 3.72488Z" fill="white"/>
<path fill-rule="evenodd" clip-rule="evenodd" d="M23.6602 18.0883C22.0712 17.9107 20.4263 17.9107 18.8373 18.0883C18.4512 18.1314 18.1467 18.4372 18.1033 18.8085C17.9135 20.4309 17.9135 22.0699 18.1033 23.6924C18.1467 24.0637 18.4512 24.3694 18.8373 24.4126C20.4263 24.5902 22.0712 24.5902 23.6602 24.4126C24.0463 24.3694 24.3508 24.0637 24.3943 23.6924C24.584 22.0699 24.584 20.4309 24.3943 18.8085C24.3508 18.4372 24.0463 18.1314 23.6602 18.0883ZM18.629 16.2249C20.3565 16.0318 22.1411 16.0318 23.8685 16.2249C25.107 16.3633 26.1101 17.3383 26.2566 18.5907C26.4633 20.3578 26.4633 22.143 26.2566 23.9102C26.1101 25.1626 25.107 26.1375 23.8685 26.276C22.1411 26.469 20.3565 26.469 18.629 26.276C17.3905 26.1375 16.3874 25.1626 16.2409 23.9102C16.0343 22.143 16.0343 20.3578 16.2409 18.5907C16.3874 17.3383 17.3905 16.3633 18.629 16.2249Z" fill="white"/>
</svg>
