<svg width="68" height="68" viewBox="0 0 68 68" fill="none" xmlns="http://www.w3.org/2000/svg">
<g filter="url(#filter0_d_674_32647)">
<g clip-path="url(#clip0_674_32647)">
<circle cx="33.6522" cy="32.6522" r="25.6522" fill="white"/>
<path fill-rule="evenodd" clip-rule="evenodd" d="M43.2119 26.9993H24.3033L22.6877 24.1788C22.5063 23.8622 22.1633 23.666 21.7911 23.666H19.7376C19.1706 23.666 18.7109 24.1137 18.7109 24.666C18.7109 25.2183 19.1706 25.666 19.7376 25.666H21.1882L22.7826 28.4496L26.4596 36.3739L26.4634 36.3819L26.7873 37.0799L23.0955 40.9154C22.83 41.1912 22.7469 41.5892 22.8807 41.9441C23.0145 42.2989 23.3423 42.55 23.7279 42.5929L27.093 42.9675C31.302 43.436 35.5522 43.436 39.7612 42.9675L43.1263 42.5929C43.6896 42.5302 44.0941 42.0345 44.0297 41.4858C43.9654 40.9371 43.4565 40.5431 42.8931 40.6058L39.5281 40.9804C35.4739 41.4317 31.3802 41.4317 27.3261 40.9804L25.9907 40.8317L28.7003 38.0166C28.7265 37.9894 28.7509 37.9611 28.7734 37.9319L29.8039 38.0625C31.2481 38.2456 32.7078 38.2814 34.1596 38.1696C37.5456 37.9088 40.6838 36.3395 42.8748 33.8114L43.6661 32.8984C43.6927 32.8677 43.7173 32.8355 43.74 32.8019L45.2148 30.6128C46.2602 29.0611 45.1174 26.9993 43.2119 26.9993ZM28.8497 35.9247C28.6233 35.896 28.428 35.756 28.3327 35.5541L28.3308 35.5502L25.2911 28.9993H43.2119C43.4841 28.9993 43.6474 29.2939 43.498 29.5156L42.0571 31.6543L41.3057 32.5214C39.4685 34.6412 36.837 35.9571 33.9977 36.1758C32.6882 36.2767 31.3715 36.2443 30.0689 36.0793L28.8497 35.9247Z" fill="#2B2B2B"/>
<path d="M25.8979 44.666C24.7638 44.666 23.8445 45.5614 23.8445 46.666C23.8445 47.7706 24.7638 48.666 25.8979 48.666C27.032 48.666 27.9513 47.7706 27.9513 46.666C27.9513 45.5614 27.032 44.666 25.8979 44.666Z" fill="#2B2B2B"/>
<path d="M38.9028 46.666C38.9028 45.5614 39.8222 44.666 40.9562 44.666C42.0903 44.666 43.0097 45.5614 43.0097 46.666C43.0097 47.7706 42.0903 48.666 40.9562 48.666C39.8222 48.666 38.9028 47.7706 38.9028 46.666Z" fill="#2B2B2B"/>
<path d="M37.0709 18C37.0709 17.0827 37.2469 16.36 37.5989 15.832C37.9563 15.304 38.5296 15.04 39.3189 15.04C40.1083 15.04 40.6789 15.304 41.0309 15.832C41.3883 16.36 41.5669 17.0827 41.5669 18C41.5669 18.928 41.3883 19.656 41.0309 20.184C40.6789 20.712 40.1083 20.976 39.3189 20.976C38.5296 20.976 37.9563 20.712 37.5989 20.184C37.2469 19.656 37.0709 18.928 37.0709 18ZM40.2229 18C40.2229 17.4613 40.1643 17.048 40.0469 16.76C39.9296 16.4667 39.6869 16.32 39.3189 16.32C38.9509 16.32 38.7083 16.4667 38.5909 16.76C38.4736 17.048 38.4149 17.4613 38.4149 18C38.4149 18.3627 38.4363 18.664 38.4789 18.904C38.5216 19.1387 38.6069 19.3307 38.7349 19.48C38.8683 19.624 39.0629 19.696 39.3189 19.696C39.5749 19.696 39.7669 19.624 39.8949 19.48C40.0283 19.3307 40.1163 19.1387 40.1589 18.904C40.2016 18.664 40.2229 18.3627 40.2229 18ZM43.7617 19.288C43.8417 19.7093 44.087 19.92 44.4977 19.92C44.7804 19.92 44.9804 19.7947 45.0977 19.544C45.215 19.2933 45.2737 18.8853 45.2737 18.32C45.1564 18.4853 44.9964 18.6133 44.7937 18.704C44.591 18.7947 44.3644 18.84 44.1137 18.84C43.7724 18.84 43.4684 18.7707 43.2017 18.632C42.935 18.488 42.7244 18.2773 42.5697 18C42.4204 17.7173 42.3457 17.376 42.3457 16.976C42.3457 16.5813 42.4257 16.2373 42.5857 15.944C42.751 15.6507 42.983 15.424 43.2817 15.264C43.5857 15.104 43.943 15.024 44.3537 15.024C45.143 15.024 45.695 15.2693 46.0097 15.76C46.3244 16.2507 46.4817 16.9733 46.4817 17.928C46.4817 18.6213 46.4177 19.1947 46.2897 19.648C46.167 20.096 45.9564 20.4373 45.6577 20.672C45.3644 20.9067 44.9617 21.024 44.4497 21.024C44.0444 21.024 43.6977 20.944 43.4097 20.784C43.127 20.624 42.9084 20.4133 42.7537 20.152C42.6044 19.8907 42.519 19.6027 42.4977 19.288H43.7617ZM44.4257 17.76C44.6497 17.76 44.8284 17.6933 44.9617 17.56C45.095 17.4213 45.1617 17.2347 45.1617 17C45.1617 16.744 45.0924 16.5467 44.9537 16.408C44.815 16.2693 44.6284 16.2 44.3937 16.2C44.159 16.2 43.9724 16.272 43.8337 16.416C43.7004 16.5547 43.6337 16.7467 43.6337 16.992C43.6337 17.2213 43.7004 17.408 43.8337 17.552C43.9724 17.6907 44.1697 17.76 44.4257 17.76Z" fill="#EC303A"/>
</g>
</g>
<defs>
<filter id="filter0_d_674_32647" x="0" y="0" width="67.3047" height="72.0684" filterUnits="userSpaceOnUse" color-interpolation-filters="sRGB">
<feFlood flood-opacity="0" result="BackgroundImageFix"/>
<feColorMatrix in="SourceAlpha" type="matrix" values="0 0 0 0 0 0 0 0 0 0 0 0 0 0 0 0 0 0 127 0" result="hardAlpha"/>
<feOffset dy="1"/>
<feGaussianBlur stdDeviation="4"/>
<feComposite in2="hardAlpha" operator="out"/>
<feColorMatrix type="matrix" values="0 0 0 0 0 0 0 0 0 0 0 0 0 0 0 0 0 0 0.15 0"/>
<feBlend mode="normal" in2="BackgroundImageFix" result="effect1_dropShadow_674_32647"/>
<feBlend mode="normal" in="SourceGraphic" in2="effect1_dropShadow_674_32647" result="shape"/>
</filter>
<clipPath id="clip0_674_32647">
<path d="M8 32.6522C8 18.4849 19.4849 7 33.6522 7C47.8195 7 59.3043 18.4849 59.3043 32.6522V35.0345C59.3043 50.5176 46.7528 63.0691 31.2698 63.0691H8V32.6522Z" fill="white"/>
</clipPath>
</defs>
</svg>
