<svg width="35" height="36" viewBox="0 0 35 36" fill="none" xmlns="http://www.w3.org/2000/svg">
<circle cx="17.6868" cy="17.8499" r="17.1556" fill="#FEFEFE"/>
<g clip-path="url(#clip0_860_52639)">
<path d="M20.3668 25.8919H22.1538V24.1048H20.3668V25.8919ZM23.9408 15.1696H25.7279V13.3826H23.9408V15.1696ZM9.64453 11.5956V24.1048C9.64453 25.0877 10.4487 25.8919 11.4316 25.8919H15.0056V24.1048H11.4316V11.5956H15.0056V9.80852H11.4316C10.4487 9.80852 9.64453 10.6127 9.64453 11.5956ZM23.9408 9.80852V11.5956H25.7279C25.7279 10.6127 24.9237 9.80852 23.9408 9.80852ZM16.7927 27.6789H18.5797V8.02148H16.7927V27.6789ZM23.9408 22.3178H25.7279V20.5307H23.9408V22.3178ZM20.3668 11.5956H22.1538V9.80852H20.3668V11.5956ZM23.9408 18.7437H25.7279V16.9567H23.9408V18.7437ZM23.9408 25.8919C24.9237 25.8919 25.7279 25.0877 25.7279 24.1048H23.9408V25.8919Z" fill="black"/>
</g>
<defs>
<clipPath id="clip0_860_52639">
<rect width="21.4444" height="21.4444" fill="white" transform="translate(6.96484 7.12793)"/>
</clipPath>
</defs>
</svg>
