<svg width="37" height="36" viewBox="0 0 37 36" fill="none" xmlns="http://www.w3.org/2000/svg">
<circle cx="18.3535" cy="17.8222" r="17.8222" fill="white"/>
<path fill-rule="evenodd" clip-rule="evenodd" d="M14.8722 18.346C14.8722 16.3104 16.4306 14.6603 18.3531 14.6603C20.2755 14.6603 21.834 16.3104 21.834 18.346C21.834 20.3815 20.2755 22.0316 18.3531 22.0316C16.4306 22.0316 14.8722 20.3815 14.8722 18.346ZM18.3531 16.1346C17.1996 16.1346 16.2645 17.1247 16.2645 18.346C16.2645 19.5673 17.1996 20.5574 18.3531 20.5574C19.5066 20.5574 20.4416 19.5673 20.4416 18.346C20.4416 17.1247 19.5066 16.1346 18.3531 16.1346Z" fill="#6F6F6F"/>
<path fill-rule="evenodd" clip-rule="evenodd" d="M17.0685 11.2204C16.0984 11.2204 15.3119 12.0531 15.3119 13.0803C15.3119 13.7349 14.8373 14.2798 14.2212 14.3328L12.1516 14.5107C11.7452 14.5457 11.411 14.8638 11.3352 15.288C10.9186 17.6173 10.8876 20.0056 11.2434 22.3462L11.3337 22.94C11.4189 23.5009 11.8549 23.9275 12.3896 23.9735L14.1925 24.1285C16.9617 24.3667 19.7445 24.3667 22.5136 24.1285L24.3166 23.9735C24.8513 23.9275 25.2872 23.5009 25.3725 22.94L25.4628 22.3462C25.8186 20.0056 25.7875 17.6173 25.371 15.288C25.2951 14.8638 24.9609 14.5457 24.5546 14.5107L22.485 14.3328C21.8688 14.2798 21.3943 13.7349 21.3943 13.0803C21.3943 12.0531 20.6078 11.2204 19.6376 11.2204H17.0685ZM13.9252 12.8791C14.0234 11.1314 15.3932 9.74609 17.0685 9.74609H19.6376C21.313 9.74609 22.6828 11.1313 22.781 12.8791L24.6673 13.0413C25.6985 13.13 26.5466 13.9374 26.739 15.0137C27.1856 17.5109 27.2189 20.0712 26.8374 22.5805L26.7472 23.1743C26.56 24.4054 25.6031 25.342 24.4293 25.4429L22.6263 25.598C19.7822 25.8425 16.924 25.8425 14.0798 25.598L12.2769 25.4429C11.1031 25.342 10.1461 24.4054 9.959 23.1743L9.86873 22.5805C9.48728 20.0712 9.52058 17.5109 9.96713 15.0137C10.1596 13.9374 11.0077 13.13 12.0389 13.0413L13.9252 12.8791Z" fill="#6F6F6F"/>
</svg>
