<svg width="22" height="22" viewBox="0 0 22 22" fill="none" xmlns="http://www.w3.org/2000/svg">
<path fill-rule="evenodd" clip-rule="evenodd" d="M6.64602 9.16634C6.64602 6.7616 8.59545 4.81217 11.0002 4.81217C13.4049 4.81217 15.3544 6.7616 15.3544 9.16634C15.3544 11.5711 13.4049 13.5205 11.0002 13.5205C8.59545 13.5205 6.64602 11.5711 6.64602 9.16634ZM11.0002 6.18717C9.35484 6.18717 8.02102 7.52099 8.02102 9.16634C8.02102 10.8117 9.35484 12.1455 11.0002 12.1455C12.6455 12.1455 13.9794 10.8117 13.9794 9.16634C13.9794 7.52099 12.6455 6.18717 11.0002 6.18717Z" fill="black"/>
<path fill-rule="evenodd" clip-rule="evenodd" d="M3.23085 8.11846C3.55565 4.17806 6.84846 1.14551 10.8022 1.14551H11.1982C15.1519 1.14551 18.4447 4.17806 18.7695 8.11846C18.944 10.2352 18.2902 12.337 16.9457 13.9812L12.5521 19.3545C11.75 20.3354 10.2504 20.3354 9.44829 19.3545L5.05465 13.9812C3.71022 12.337 3.05637 10.2352 3.23085 8.11846ZM10.8022 2.52051C7.56405 2.52051 4.86722 5.0042 4.6012 8.23141C4.45599 9.9931 5.00017 11.7424 6.11911 13.1108L10.5127 18.4841C10.7647 18.7922 11.2357 18.7922 11.4876 18.4841L15.8813 13.1108C17.0002 11.7424 17.5444 9.9931 17.3992 8.23141C17.1332 5.00419 14.4363 2.52051 11.1982 2.52051H10.8022Z" fill="black"/>
</svg>
