<svg width="18" height="18" viewBox="0 0 18 18" fill="none" xmlns="http://www.w3.org/2000/svg">
<g clip-path="url(#clip0_860_68773)">
<path d="M10.5 13.915H1.5V4.75H6.75V3.25H1.5C0.675 3.25 0 3.925 0 4.75V13.75C0 14.575 0.675 15.25 1.5 15.25H10.5C11.325 15.25 12 14.575 12 13.75V8.5H10.5V13.915Z" fill="white"/>
<path d="M12 1H10.5V3.25H8.25C8.2575 3.2575 8.25 4.75 8.25 4.75H10.5V6.9925C10.5075 7 12 6.9925 12 6.9925V4.75H14.25V3.25H12V1Z" fill="white"/>
<path d="M9 6.25H3V7.75H9V6.25Z" fill="white"/>
<path d="M3 8.5V10H9V8.5H6.75H3Z" fill="white"/>
<path d="M9 10.75H3V12.25H9V10.75Z" fill="white"/>
</g>
<defs>
<clipPath id="clip0_860_68773">
<rect width="18" height="18" fill="white"/>
</clipPath>
</defs>
</svg>
