<svg width="35" height="36" viewBox="0 0 35 36" fill="none" xmlns="http://www.w3.org/2000/svg">
<circle cx="17.2376" cy="17.8499" r="17.1556" fill="#FEFEFE"/>
<path d="M12.3625 14.4215C12.1702 14.3707 12.0104 14.2372 11.9263 14.057C11.8421 13.8768 11.8424 13.6685 11.927 13.4885L13.4109 10.3305C13.5215 10.0951 13.7582 9.94499 14.0182 9.94531C14.2783 9.94564 14.5146 10.0963 14.6246 10.332L15.2792 11.7341C15.3026 11.7249 15.3268 11.7169 15.3517 11.7103C19.2361 10.6694 23.2288 12.9746 24.2697 16.8591C25.3105 20.7435 23.0053 24.7362 19.1209 25.7771C15.2364 26.8179 11.2437 24.5127 10.2029 20.6283C9.8719 19.393 9.87934 18.1449 10.1692 16.9844C10.2589 16.6254 10.6227 16.407 10.9818 16.4967C11.3409 16.5864 11.5592 16.9502 11.4695 17.3093C11.2334 18.2546 11.2269 19.2715 11.4975 20.2814C12.3467 23.4508 15.6045 25.3317 18.774 24.4824C21.9434 23.6332 23.8243 20.3754 22.9751 17.206C22.1397 14.0883 18.9739 12.2175 15.8541 12.9654L16.5146 14.3801C16.6246 14.6157 16.5883 14.8937 16.4216 15.0932C16.2549 15.2928 15.9878 15.3779 15.7364 15.3116L12.3625 14.4215Z" fill="black"/>
</svg>
