<svg width="17" height="17" viewBox="0 0 17 17" fill="none" xmlns="http://www.w3.org/2000/svg">
<path d="M12.2188 15.4061H4.78125C4.07703 15.4053 3.40189 15.1252 2.90393 14.6272C2.40597 14.1293 2.12584 13.4541 2.125 12.7499V6.3749C2.12584 5.67067 2.40597 4.99554 2.90393 4.49758C3.40189 3.99962 4.07703 3.71949 4.78125 3.71865H6.64062L8.075 1.80615C8.12663 1.7434 8.19152 1.69286 8.265 1.65816C8.33848 1.62346 8.41874 1.60547 8.5 1.60547C8.58126 1.60547 8.66152 1.62346 8.735 1.65816C8.80848 1.69286 8.87337 1.7434 8.925 1.80615L10.3594 3.71865H12.2188C12.923 3.71949 13.5981 3.99962 14.0961 4.49758C14.594 4.99554 14.8742 5.67067 14.875 6.3749V12.7499C14.8742 13.4541 14.594 14.1293 14.0961 14.6272C13.5981 15.1252 12.923 15.4053 12.2188 15.4061ZM4.78125 4.78115C4.35856 4.78115 3.95318 4.94906 3.6543 5.24795C3.35541 5.54683 3.1875 5.95221 3.1875 6.3749V12.7499C3.1875 13.1726 3.35541 13.578 3.6543 13.8768C3.95318 14.1757 4.35856 14.3436 4.78125 14.3436H12.2188C12.6414 14.3436 13.0468 14.1757 13.3457 13.8768C13.6446 13.578 13.8125 13.1726 13.8125 12.7499V6.3749C13.8125 5.95221 13.6446 5.54683 13.3457 5.24795C13.0468 4.94906 12.6414 4.78115 12.2188 4.78115H10.0938C10.0113 4.78115 9.92993 4.76195 9.85617 4.72506C9.7824 4.68818 9.71824 4.63463 9.66875 4.56865L8.5 3.01049L7.33125 4.56865C7.28177 4.63463 7.2176 4.68818 7.14383 4.72506C7.07007 4.76195 6.98872 4.78115 6.90625 4.78115H4.78125Z" fill="white"/>
<path d="M13.6908 14.8113C13.5694 14.8112 13.4516 14.7695 13.3572 14.6931C13.2627 14.6168 13.1973 14.5103 13.1718 14.3916C12.9387 13.3263 12.3484 12.3726 11.4989 11.6889C10.6493 11.0051 9.59156 10.6323 8.50103 10.6323C7.41051 10.6323 6.35275 11.0051 5.5032 11.6889C4.65366 12.3726 4.06338 13.3263 3.83028 14.3916C3.79904 14.5277 3.71546 14.646 3.59762 14.721C3.47979 14.7959 3.33718 14.8215 3.20066 14.7921C3.06414 14.7627 2.94469 14.6807 2.86815 14.5639C2.79161 14.4471 2.76414 14.3049 2.79169 14.1679C3.07602 12.8652 3.79731 11.6989 4.83583 10.8626C5.87435 10.0263 7.16764 9.57031 8.50103 9.57031C9.83442 9.57031 11.1277 10.0263 12.1662 10.8626C13.2048 11.6989 13.926 12.8652 14.2104 14.1679C14.24 14.3057 14.2138 14.4495 14.1373 14.5679C14.0609 14.6862 13.9406 14.7694 13.8029 14.7991C13.7661 14.8073 13.7285 14.8114 13.6908 14.8113Z" fill="white"/>
<path d="M8.5 10.625C7.97465 10.625 7.46109 10.4692 7.02427 10.1773C6.58745 9.88547 6.24699 9.47062 6.04595 8.98526C5.8449 8.49989 5.7923 7.96581 5.89479 7.45054C5.99728 6.93528 6.25027 6.46198 6.62175 6.0905C6.99323 5.71902 7.46653 5.46603 7.98179 5.36354C8.49706 5.26105 9.03114 5.31365 9.51651 5.5147C10.0019 5.71574 10.4167 6.0562 10.7086 6.49302C11.0005 6.92984 11.1563 7.4434 11.1563 7.96875C11.1554 8.67297 10.8753 9.34811 10.3773 9.84607C9.87936 10.344 9.20422 10.6242 8.5 10.625ZM8.5 6.375C8.18479 6.375 7.87665 6.46847 7.61456 6.6436C7.35247 6.81872 7.1482 7.06763 7.02757 7.35885C6.90694 7.65007 6.87538 7.97052 6.93687 8.27968C6.99837 8.58883 7.15016 8.87281 7.37305 9.0957C7.59594 9.31859 7.87992 9.47038 8.18908 9.53188C8.49823 9.59337 8.81868 9.56181 9.1099 9.44118C9.40112 9.32056 9.65003 9.11628 9.82516 8.85419C10.0003 8.5921 10.0938 8.28397 10.0938 7.96875C10.0938 7.54606 9.92584 7.14069 9.62695 6.8418C9.32807 6.54291 8.92269 6.375 8.5 6.375Z" fill="white"/>
</svg>
