<svg width="22" height="22" viewBox="0 0 22 22" fill="none" xmlns="http://www.w3.org/2000/svg">
<circle cx="11" cy="11" r="11" fill="#D9D9D9"/>
<path d="M15.2812 11.0527C15.2656 11.4121 15.2109 11.7734 15.1172 12.1367C15.0234 12.4961 14.8828 12.8262 14.6953 13.127C14.5078 13.4277 14.2637 13.6699 13.9629 13.8535C13.666 14.0332 13.3066 14.123 12.8848 14.123C12.6152 14.123 12.3789 14.0762 12.1758 13.9824C11.9766 13.8848 11.8125 13.7461 11.6836 13.5664C11.5586 13.3867 11.4707 13.1699 11.4199 12.916C11.373 12.6621 11.3652 12.3789 11.3965 12.0664L11.6953 8.82031H12.5566L12.2578 12.0664C12.2344 12.3516 12.2402 12.584 12.2754 12.7637C12.3145 12.9434 12.373 13.082 12.4512 13.1797C12.5293 13.2734 12.6172 13.3379 12.7148 13.373C12.8164 13.4082 12.9141 13.4258 13.0078 13.4258C13.2422 13.4258 13.4512 13.3652 13.6348 13.2441C13.8184 13.1191 13.9727 12.9492 14.0977 12.7344C14.2266 12.5156 14.3262 12.2637 14.3965 11.9785C14.4668 11.6895 14.5098 11.3809 14.5254 11.0527C14.5527 10.4707 14.5254 9.93555 14.4434 9.44727C14.3652 8.95898 14.2305 8.52539 14.0391 8.14648C13.8516 7.76758 13.6055 7.44727 13.3008 7.18555C12.9961 6.92383 12.6328 6.72461 12.2109 6.58789C11.7891 6.45117 11.3066 6.38281 10.7637 6.38281C10.2715 6.38281 9.81641 6.45898 9.39844 6.61133C8.98438 6.75977 8.61133 6.97461 8.2793 7.25586C7.95117 7.53711 7.66797 7.875 7.42969 8.26953C7.19531 8.66406 7.00977 9.10938 6.87305 9.60547C6.74023 10.0977 6.66211 10.6289 6.63867 11.1992C6.61133 11.7852 6.64258 12.3242 6.73242 12.8164C6.82227 13.3047 6.9668 13.7402 7.16602 14.123C7.36914 14.5098 7.625 14.8359 7.93359 15.1016C8.24219 15.3711 8.59961 15.5742 9.00586 15.7109C9.41211 15.8516 9.86523 15.9219 10.3652 15.9219C10.709 15.9219 11.0566 15.8809 11.4082 15.7988C11.7637 15.7168 12.0605 15.6055 12.2988 15.4648L12.5215 16.1328C12.248 16.3086 11.9062 16.4395 11.4961 16.5254C11.0898 16.6113 10.7051 16.6543 10.3418 16.6543C9.74805 16.6543 9.20508 16.5723 8.71289 16.4082C8.22461 16.248 7.79102 16.0117 7.41211 15.6992C7.03711 15.3906 6.72461 15.0137 6.47461 14.5684C6.22461 14.127 6.04102 13.623 5.92383 13.0566C5.80664 12.4902 5.76172 11.8711 5.78906 11.1992C5.81641 10.5586 5.91211 9.95508 6.07617 9.38867C6.24414 8.82227 6.47266 8.30859 6.76172 7.84766C7.05078 7.38672 7.39453 6.99023 7.79297 6.6582C8.19531 6.32227 8.64648 6.06445 9.14648 5.88477C9.65039 5.70508 10.1973 5.61523 10.7871 5.61523C11.3887 5.61523 11.9336 5.69727 12.4219 5.86133C12.9102 6.02539 13.3379 6.26172 13.7051 6.57031C14.0762 6.87891 14.3828 7.25586 14.625 7.70117C14.8672 8.14648 15.043 8.65039 15.1523 9.21289C15.2656 9.77539 15.3086 10.3887 15.2812 11.0527ZM9.26367 11.5508C9.23633 11.8242 9.23633 12.0684 9.26367 12.2832C9.29102 12.498 9.34375 12.6797 9.42188 12.8281C9.5 12.9766 9.60156 13.0898 9.72656 13.168C9.85547 13.2422 10.0059 13.2793 10.1777 13.2793C10.291 13.2793 10.4102 13.252 10.5352 13.1973C10.6602 13.1387 10.7832 13.0488 10.9043 12.9277C11.0254 12.8066 11.1387 12.6484 11.2441 12.4531C11.3496 12.2578 11.4375 12.0234 11.5078 11.75L11.8945 12.1719C11.8047 12.4922 11.6875 12.7734 11.543 13.0156C11.4023 13.2578 11.2441 13.4609 11.0684 13.625C10.8926 13.7891 10.7051 13.9141 10.5059 14C10.3105 14.082 10.1113 14.123 9.9082 14.123C9.62305 14.123 9.37305 14.0625 9.1582 13.9414C8.94336 13.8164 8.76953 13.6406 8.63672 13.4141C8.50391 13.1875 8.41016 12.918 8.35547 12.6055C8.30469 12.2891 8.29688 11.9375 8.33203 11.5508C8.36719 11.1406 8.43945 10.7617 8.54883 10.4141C8.6582 10.0664 8.79297 9.75586 8.95312 9.48242C9.11719 9.20898 9.30078 8.97656 9.50391 8.78516C9.71094 8.59375 9.92969 8.44922 10.1602 8.35156C10.3906 8.25 10.627 8.19922 10.8691 8.19922C11.291 8.19922 11.623 8.26172 11.8652 8.38672C12.1074 8.50781 12.3379 8.65234 12.5566 8.82031L12.0586 9.40039C11.9453 9.29102 11.7969 9.18945 11.6133 9.0957C11.4297 9.00195 11.2129 8.95508 10.9629 8.95508C10.748 8.95508 10.5469 9.00977 10.3594 9.11914C10.1719 9.22852 10.002 9.39258 9.84961 9.61133C9.70117 9.83008 9.57617 10.1016 9.47461 10.4258C9.37305 10.7461 9.30273 11.1211 9.26367 11.5508Z" fill="black"/>
</svg>
