<svg width="31" height="31" viewBox="0 0 31 31" fill="none" xmlns="http://www.w3.org/2000/svg">
<mask id="path-1-inside-1_860_44637" fill="white">
<path d="M7.91356 13.3505H6.41697C6.2743 13.3505 6.15863 13.2338 6.15863 13.09V11.3804C6.15863 11.2365 6.2743 11.1198 6.41697 11.1198H7.88424C8.50283 11.1198 9.02957 11.6303 9.01924 12.2541C9.00922 12.8604 8.5171 13.3505 7.91356 13.3505ZM19.1676 21.7406C19.2668 22.0749 19.0186 22.4111 18.6726 22.4111H3.61668C1.61924 22.4111 0 20.7781 0 18.7636V8.97961C0 6.96511 1.61924 5.33203 3.61668 5.33203H24.5418C26.5392 5.33203 28.1585 6.96511 28.1585 8.97961V18.7636C28.1585 19.3594 28.016 19.9223 27.7637 20.4196C27.6508 20.6421 27.3944 20.7495 27.157 20.6778L20.7884 18.755C19.6092 18.3987 18.5055 19.5102 18.8589 20.701L19.1676 21.7406ZM9.48792 14.0496C9.39563 13.9484 9.39563 13.7948 9.48792 13.6936C10.7597 12.299 9.74102 10.0777 7.87307 10.0777H5.64196C5.35663 10.0777 5.12529 10.311 5.12529 10.5987C5.12529 10.7553 5.12529 17.2541 5.12529 17.1444C5.12529 17.4321 5.35663 17.6655 5.64196 17.6655H7.87307C9.73773 17.6655 10.7625 15.4473 9.48792 14.0496ZM16.5429 10.5987C16.5429 10.311 16.3116 10.0777 16.0262 10.0777C15.7409 10.0777 15.5096 10.311 15.5096 10.5987V15.1807C15.5096 15.9761 14.8679 16.6233 14.0792 16.6233C13.2906 16.6233 12.6489 15.9761 12.6489 15.1807V10.5987C12.6489 10.311 12.4176 10.0777 12.1322 10.0777C11.8469 10.0777 11.6156 10.311 11.6156 10.5987V15.1807C11.6156 16.5508 12.7208 17.6655 14.0792 17.6655C15.4377 17.6655 16.5429 16.5508 16.5429 15.1807V10.5987ZM18.1793 10.8668L20.0159 13.9541C20.0685 14.0424 20.0527 13.8181 20.0527 17.1435C20.0527 17.4428 20.3029 17.6831 20.6038 17.6634C20.8784 17.6455 21.086 17.4032 21.086 17.1256C21.086 13.8264 21.0704 14.0424 21.1229 13.9541L22.9596 10.8669C23.1063 10.6201 23.027 10.3 22.7823 10.152C22.5374 10.0038 22.2203 10.084 22.0734 10.3307L20.7909 12.4865C20.6905 12.6551 20.4482 12.6551 20.3479 12.4865L19.0654 10.3308C18.9187 10.084 18.6013 10.004 18.3565 10.152C18.1118 10.3 18.0325 10.6201 18.1793 10.8668ZM6.41697 16.6233H7.88424C8.50283 16.6233 9.02957 16.1128 9.01924 15.489C9.00916 14.8827 8.51703 14.3927 7.9135 14.3927H6.41697C6.2743 14.3927 6.15863 14.5093 6.15863 14.6532V16.3628C6.15863 16.5066 6.2743 16.6233 6.41697 16.6233ZM14.5959 27.222V26.3101C14.5959 26.0224 14.3646 25.7891 14.0792 25.7891C13.7939 25.7891 13.5626 26.0224 13.5626 26.3101V27.222C13.5626 27.5098 13.7939 27.7431 14.0792 27.7431C14.3646 27.7431 14.5959 27.5099 14.5959 27.222ZM9.31077 26.1704L9.95008 25.5256C10.1518 25.3222 10.1518 24.9923 9.95008 24.7888C9.74826 24.5853 9.42121 24.5853 9.21938 24.7888L8.58007 25.4335C8.25347 25.7629 8.48939 26.3231 8.94542 26.3231C9.07768 26.3231 9.20989 26.2722 9.31077 26.1704ZM14.5959 1.43297V0.521082C14.5959 0.233314 14.3646 0 14.0792 0C13.7939 0 13.5626 0.233314 13.5626 0.521082V1.43297C13.5626 1.72074 13.7939 1.95406 14.0792 1.95406C14.3646 1.95406 14.5959 1.72081 14.5959 1.43297ZM9.95008 2.21753L9.31077 1.57276C9.10894 1.36927 8.78189 1.36927 8.58007 1.57276C8.37831 1.77624 8.37831 2.10615 8.58007 2.30963L9.21938 2.9544C9.32033 3.05614 9.45246 3.10702 9.58473 3.10702C10.0409 3.10702 10.2766 2.54672 9.95008 2.21753ZM18.9391 2.9544L19.5784 2.30963C19.7802 2.10615 19.7802 1.77624 19.5784 1.57276C19.3766 1.36927 19.0495 1.36927 18.8477 1.57276L18.2084 2.21753C17.8818 2.54692 18.1177 3.10708 18.5737 3.10708C18.706 3.10702 18.8382 3.05614 18.9391 2.9544ZM30.8161 27.4448L27.3518 24.5091L28.7888 23.0605C29.064 22.783 28.9475 22.307 28.5718 22.1929L20.4917 19.7536C20.0991 19.6338 19.7303 20.0056 19.8491 20.4017L22.2678 28.5508C22.3789 28.9277 22.8518 29.0483 23.128 28.7696L24.5644 27.3204L27.4752 30.8142C27.6674 31.0444 28.0187 31.0666 28.236 30.8475L30.849 28.2121C31.0619 27.9975 31.0485 27.6423 30.8161 27.4448Z"/>
</mask>
<path d="M7.91356 13.3505H6.41697C6.2743 13.3505 6.15863 13.2338 6.15863 13.09V11.3804C6.15863 11.2365 6.2743 11.1198 6.41697 11.1198H7.88424C8.50283 11.1198 9.02957 11.6303 9.01924 12.2541C9.00922 12.8604 8.5171 13.3505 7.91356 13.3505ZM19.1676 21.7406C19.2668 22.0749 19.0186 22.4111 18.6726 22.4111H3.61668C1.61924 22.4111 0 20.7781 0 18.7636V8.97961C0 6.96511 1.61924 5.33203 3.61668 5.33203H24.5418C26.5392 5.33203 28.1585 6.96511 28.1585 8.97961V18.7636C28.1585 19.3594 28.016 19.9223 27.7637 20.4196C27.6508 20.6421 27.3944 20.7495 27.157 20.6778L20.7884 18.755C19.6092 18.3987 18.5055 19.5102 18.8589 20.701L19.1676 21.7406ZM9.48792 14.0496C9.39563 13.9484 9.39563 13.7948 9.48792 13.6936C10.7597 12.299 9.74102 10.0777 7.87307 10.0777H5.64196C5.35663 10.0777 5.12529 10.311 5.12529 10.5987C5.12529 10.7553 5.12529 17.2541 5.12529 17.1444C5.12529 17.4321 5.35663 17.6655 5.64196 17.6655H7.87307C9.73773 17.6655 10.7625 15.4473 9.48792 14.0496ZM16.5429 10.5987C16.5429 10.311 16.3116 10.0777 16.0262 10.0777C15.7409 10.0777 15.5096 10.311 15.5096 10.5987V15.1807C15.5096 15.9761 14.8679 16.6233 14.0792 16.6233C13.2906 16.6233 12.6489 15.9761 12.6489 15.1807V10.5987C12.6489 10.311 12.4176 10.0777 12.1322 10.0777C11.8469 10.0777 11.6156 10.311 11.6156 10.5987V15.1807C11.6156 16.5508 12.7208 17.6655 14.0792 17.6655C15.4377 17.6655 16.5429 16.5508 16.5429 15.1807V10.5987ZM18.1793 10.8668L20.0159 13.9541C20.0685 14.0424 20.0527 13.8181 20.0527 17.1435C20.0527 17.4428 20.3029 17.6831 20.6038 17.6634C20.8784 17.6455 21.086 17.4032 21.086 17.1256C21.086 13.8264 21.0704 14.0424 21.1229 13.9541L22.9596 10.8669C23.1063 10.6201 23.027 10.3 22.7823 10.152C22.5374 10.0038 22.2203 10.084 22.0734 10.3307L20.7909 12.4865C20.6905 12.6551 20.4482 12.6551 20.3479 12.4865L19.0654 10.3308C18.9187 10.084 18.6013 10.004 18.3565 10.152C18.1118 10.3 18.0325 10.6201 18.1793 10.8668ZM6.41697 16.6233H7.88424C8.50283 16.6233 9.02957 16.1128 9.01924 15.489C9.00916 14.8827 8.51703 14.3927 7.9135 14.3927H6.41697C6.2743 14.3927 6.15863 14.5093 6.15863 14.6532V16.3628C6.15863 16.5066 6.2743 16.6233 6.41697 16.6233ZM14.5959 27.222V26.3101C14.5959 26.0224 14.3646 25.7891 14.0792 25.7891C13.7939 25.7891 13.5626 26.0224 13.5626 26.3101V27.222C13.5626 27.5098 13.7939 27.7431 14.0792 27.7431C14.3646 27.7431 14.5959 27.5099 14.5959 27.222ZM9.31077 26.1704L9.95008 25.5256C10.1518 25.3222 10.1518 24.9923 9.95008 24.7888C9.74826 24.5853 9.42121 24.5853 9.21938 24.7888L8.58007 25.4335C8.25347 25.7629 8.48939 26.3231 8.94542 26.3231C9.07768 26.3231 9.20989 26.2722 9.31077 26.1704ZM14.5959 1.43297V0.521082C14.5959 0.233314 14.3646 0 14.0792 0C13.7939 0 13.5626 0.233314 13.5626 0.521082V1.43297C13.5626 1.72074 13.7939 1.95406 14.0792 1.95406C14.3646 1.95406 14.5959 1.72081 14.5959 1.43297ZM9.95008 2.21753L9.31077 1.57276C9.10894 1.36927 8.78189 1.36927 8.58007 1.57276C8.37831 1.77624 8.37831 2.10615 8.58007 2.30963L9.21938 2.9544C9.32033 3.05614 9.45246 3.10702 9.58473 3.10702C10.0409 3.10702 10.2766 2.54672 9.95008 2.21753ZM18.9391 2.9544L19.5784 2.30963C19.7802 2.10615 19.7802 1.77624 19.5784 1.57276C19.3766 1.36927 19.0495 1.36927 18.8477 1.57276L18.2084 2.21753C17.8818 2.54692 18.1177 3.10708 18.5737 3.10708C18.706 3.10702 18.8382 3.05614 18.9391 2.9544ZM30.8161 27.4448L27.3518 24.5091L28.7888 23.0605C29.064 22.783 28.9475 22.307 28.5718 22.1929L20.4917 19.7536C20.0991 19.6338 19.7303 20.0056 19.8491 20.4017L22.2678 28.5508C22.3789 28.9277 22.8518 29.0483 23.128 28.7696L24.5644 27.3204L27.4752 30.8142C27.6674 31.0444 28.0187 31.0666 28.236 30.8475L30.849 28.2121C31.0619 27.9975 31.0485 27.6423 30.8161 27.4448Z" fill="white" stroke="white" mask="url(#path-1-inside-1_860_44637)"/>
</svg>
