<svg width="34" height="34" viewBox="0 0 34 34" fill="none" xmlns="http://www.w3.org/2000/svg">
<g clip-path="url(#clip0_860_45005)">
<path d="M13.5662 15.7703C13.3032 15.5073 12.9464 15.3595 12.5744 15.3595C12.2024 15.3595 11.8457 15.5073 11.5827 15.7703C11.3196 16.0334 11.1719 16.3901 11.1719 16.7621C11.1719 17.1341 11.3196 17.4908 11.5827 17.7538L15.7732 21.9443C15.9037 22.0738 16.0585 22.1762 16.2287 22.2457C16.3989 22.3153 16.5811 22.3505 16.7649 22.3494C16.9562 22.3434 17.1441 22.2981 17.3171 22.2164C17.4901 22.1347 17.6445 22.0183 17.7707 21.8745L27.5485 10.6998C27.7743 10.4195 27.8832 10.0629 27.8524 9.70425C27.8217 9.34564 27.6537 9.01275 27.3835 8.77497C27.1133 8.5372 26.7617 8.4129 26.4021 8.42799C26.0425 8.44308 25.7026 8.5964 25.4533 8.85598L16.7649 18.9132L13.5662 15.7703Z" fill="#04C52E"/>
<path d="M29.3345 15.3655C28.9641 15.3655 28.6088 15.5127 28.3468 15.7746C28.0849 16.0366 27.9377 16.3919 27.9377 16.7623C27.9377 19.726 26.7604 22.5684 24.6647 24.664C22.5691 26.7597 19.7267 27.937 16.763 27.937C14.5561 27.936 12.399 27.2816 10.5635 26.0562C8.72806 24.8309 7.29653 23.0895 6.44943 21.0517C5.60233 19.0139 5.37758 16.7708 5.80354 14.6055C6.2295 12.4401 7.28709 10.4493 8.84294 8.88416C9.87758 7.83567 11.111 7.00407 12.4709 6.43803C13.8308 5.872 15.29 5.58289 16.763 5.58762C17.6562 5.59321 18.5461 5.69626 19.417 5.89492C19.5992 5.95129 19.7911 5.96974 19.9807 5.94912C20.1704 5.9285 20.3538 5.86926 20.5197 5.77505C20.6855 5.68083 20.8303 5.55364 20.9452 5.40131C21.06 5.24899 21.1424 5.07476 21.1873 4.88936C21.2322 4.70396 21.2387 4.51133 21.2063 4.32334C21.1739 4.13535 21.1034 3.95599 20.999 3.7963C20.8947 3.63662 20.7587 3.50001 20.5995 3.39488C20.4404 3.28976 20.2613 3.21835 20.0735 3.18506C18.9884 2.92978 17.8778 2.79857 16.763 2.79395C14.0033 2.80828 11.3097 3.63976 9.02215 5.18345C6.73456 6.72714 4.9555 8.91386 3.90947 11.4677C2.86345 14.0214 2.59734 16.8279 3.14473 19.5328C3.69211 22.2376 5.02847 24.7198 6.98514 26.6659C9.57864 29.2606 13.0944 30.7221 16.763 30.7307C20.4676 30.7307 24.0206 29.259 26.6401 26.6395C29.2597 24.0199 30.7314 20.467 30.7314 16.7623C30.7314 16.3919 30.5842 16.0366 30.3223 15.7746C30.0603 15.5127 29.705 15.3655 29.3345 15.3655Z" fill="#04C52E"/>
</g>
<defs>
<clipPath id="clip0_860_45005">
<rect width="33.5241" height="33.5241" fill="white"/>
</clipPath>
</defs>
</svg>
