<svg width="24" height="24" viewBox="0 0 24 24" fill="none" xmlns="http://www.w3.org/2000/svg">
<circle cx="12" cy="12" r="12" fill="#DFDFDF" style="mix-blend-mode:multiply"/>
<path fill-rule="evenodd" clip-rule="evenodd" d="M7.37564 14.1778C7.40117 14.1864 7.42694 14.1925 7.45269 14.1962C7.48077 14.2622 7.51705 14.3476 7.55938 14.4474C7.66267 14.691 7.80185 15.0205 7.94551 15.3642C8.23848 16.0652 8.53401 16.7878 8.59928 16.9946C8.68007 17.2503 8.76548 17.4242 8.85872 17.5428C8.90693 17.6042 8.96268 17.6578 9.02792 17.6984C9.06077 17.7188 9.09546 17.7355 9.13167 17.748C9.13327 17.7486 9.13486 17.7491 9.13645 17.7496C9.32313 17.8201 9.49332 17.7908 9.59988 17.7549C9.6569 17.7357 9.70303 17.7125 9.73572 17.6937C9.75239 17.6841 9.76648 17.6751 9.77771 17.6676L9.78036 17.6658L11.429 16.6377L13.3333 18.0977C13.3614 18.1192 13.392 18.1373 13.4245 18.1514C13.6533 18.2513 13.8748 18.2861 14.0832 18.2576C14.2912 18.2292 14.4564 18.1418 14.5794 18.0434C14.6998 17.9471 14.7814 17.8392 14.8323 17.759C14.8582 17.7181 14.8777 17.6819 14.8914 17.6541C14.8984 17.6402 14.9039 17.6282 14.9082 17.6185L14.9137 17.6058L14.9158 17.6008L14.9166 17.5987L14.917 17.5977L14.9174 17.5968C14.9274 17.5718 14.9351 17.5459 14.9403 17.5195L16.6788 8.75461C16.6843 8.72657 16.6871 8.69807 16.6871 8.66949C16.6871 8.41281 16.5904 8.16875 16.363 8.02064C16.1687 7.89406 15.9522 7.88861 15.8153 7.899C15.6677 7.9102 15.5314 7.94664 15.4399 7.97576C15.3923 7.99091 15.3524 8.00553 15.3236 8.01669C15.3091 8.02229 15.2973 8.0271 15.2884 8.03077L15.2818 8.03356L5.53214 11.8582L5.53087 11.8587C5.52466 11.8609 5.51668 11.8639 5.5072 11.8676C5.48832 11.8749 5.46303 11.8853 5.43348 11.8987C5.37586 11.9248 5.29502 11.9656 5.21207 12.0224C5.07954 12.1132 4.77475 12.3617 4.82608 12.772C4.86702 13.0993 5.09124 13.3003 5.22785 13.397C5.30286 13.45 5.37413 13.488 5.42603 13.5127C5.4501 13.5242 5.50009 13.5445 5.52178 13.5533L5.52726 13.5555L7.37564 14.1778ZM15.623 8.83926L15.6217 8.83985C15.6168 8.84196 15.6119 8.84399 15.607 8.84592L5.84547 12.6752C5.84038 12.6772 5.83524 12.6791 5.83007 12.6809L5.82464 12.683C5.8184 12.6854 5.80788 12.6897 5.79469 12.6957C5.7872 12.6991 5.77939 12.7028 5.77143 12.7067C5.78237 12.7129 5.79284 12.7182 5.80214 12.7227C5.81107 12.7269 5.81789 12.7298 5.82161 12.7314L7.65481 13.3485C7.68837 13.3598 7.71965 13.3748 7.74836 13.3928L13.8015 9.84937L13.8071 9.84602C13.8116 9.84342 13.8173 9.84007 13.8243 9.83614C13.8381 9.82835 13.857 9.81799 13.8795 9.80653C13.9215 9.78515 13.9887 9.75341 14.0644 9.73C14.1172 9.71371 14.2726 9.66781 14.4407 9.72171C14.5444 9.75498 14.6518 9.8265 14.7216 9.94766C14.7563 10.0079 14.7748 10.0683 14.7838 10.1237C14.8076 10.2109 14.8038 10.297 14.7852 10.3713C14.7451 10.5314 14.6326 10.6563 14.5302 10.7519C14.4425 10.8338 13.3077 11.928 12.1882 13.0082C11.6299 13.5469 11.0773 14.0803 10.6643 14.479L10.393 14.7409L13.8183 17.3669C13.8969 17.3951 13.9433 17.3936 13.9648 17.3907C13.9904 17.3872 14.0113 17.3773 14.0327 17.3602C14.0567 17.3411 14.0776 17.3152 14.0932 17.2905L14.0939 17.2895L15.78 8.7886C15.755 8.79462 15.7297 8.80178 15.7053 8.80954C15.6777 8.81833 15.6549 8.8267 15.6398 8.83256C15.6323 8.83546 15.6269 8.83765 15.624 8.83887L15.623 8.83926ZM10.6873 16.069L10.0039 15.5451L9.83832 16.5985L10.6873 16.069ZM9.37701 14.5055L10.0566 13.8494C10.4696 13.4507 11.0223 12.9173 11.5806 12.3786L12.1479 11.8313L8.34455 14.0577L8.36496 14.1058C8.46861 14.3503 8.60841 14.6813 8.75283 15.0268C8.86083 15.2852 8.97375 15.5573 9.07661 15.8092L9.24171 14.7589C9.25763 14.6577 9.3071 14.57 9.37701 14.5055Z" fill="white"/>
</svg>
