<svg width="104" height="50" viewBox="0 0 104 50" fill="none" xmlns="http://www.w3.org/2000/svg">
<rect width="104" height="50" rx="10" fill="#F5F6FA"/>
<path d="M42 33H62V35H42V33ZM44 25H46V32H44V25ZM49 25H51V32H49V25ZM53 25H55V32H53V25ZM58 25H60V32H58V25ZM42 20L52 15L62 20V24H42V20ZM52 21C52.2652 21 52.5196 20.8946 52.7071 20.7071C52.8946 20.5196 53 20.2652 53 20C53 19.7348 52.8946 19.4804 52.7071 19.2929C52.5196 19.1054 52.2652 19 52 19C51.7348 19 51.4804 19.1054 51.2929 19.2929C51.1054 19.4804 51 19.7348 51 20C51 20.2652 51.1054 20.5196 51.2929 20.7071C51.4804 20.8946 51.7348 21 52 21Z" fill="#1D1E20"/>
</svg>
