<svg width="27" height="25" viewBox="0 0 27 25" fill="none" xmlns="http://www.w3.org/2000/svg">
<path d="M26.1646 12.5C26.1646 19.1123 20.6236 24.5 13.7542 24.5C6.88475 24.5 1.34375 19.1123 1.34375 12.5C1.34375 5.88769 6.88475 0.5 13.7542 0.5C20.6236 0.5 26.1646 5.88769 26.1646 12.5Z" stroke="#DEDEDE"/>
<path d="M18.4913 10.9172C18.4913 10.9172 18.1408 15.1266 17.9375 16.8997C17.8406 17.7466 17.3003 18.2428 16.4153 18.2584C14.7312 18.2878 13.045 18.2897 11.3615 18.2553C10.5101 18.2384 9.97881 17.7359 9.88392 16.9041C9.67929 15.1153 9.33071 10.9172 9.33071 10.9172M19.3843 8.89939H8.4375M17.275 8.89938C16.7682 8.89938 16.3319 8.5525 16.2324 8.07188L16.0756 7.31188C15.9788 6.96125 15.6508 6.71875 15.2771 6.71875H12.5446C12.1708 6.71875 11.8429 6.96125 11.7461 7.31188L11.5892 8.07188C11.4898 8.5525 11.0534 8.89938 10.5467 8.89938" stroke="#8F959E" stroke-width="1.3" stroke-linecap="round" stroke-linejoin="round"/>
</svg>
