<svg width="390" height="566" viewBox="0 0 390 566" fill="none" xmlns="http://www.w3.org/2000/svg">
<mask id="mask0_860_50603" style="mask-type:alpha" maskUnits="userSpaceOnUse" x="-88" y="0" width="566" height="566">
<path fill-rule="evenodd" clip-rule="evenodd" d="M477 283C477 438.744 350.744 565 195 565C39.2557 565 -87 438.744 -87 283C-87 127.256 39.2557 1 195 1C350.744 1 477 127.256 477 283ZM478 283C478 439.297 351.297 566 195 566C38.7034 566 -88 439.297 -88 283C-88 126.703 38.7034 0 195 0C351.297 0 478 126.703 478 283ZM386.747 283C386.747 388.899 300.899 474.747 195 474.747C89.101 474.747 3.25288 388.899 3.25288 283C3.25288 177.101 89.101 91.2527 195 91.2527C300.899 91.2527 386.747 177.101 386.747 283ZM387.747 283C387.747 389.451 301.451 475.747 195 475.747C88.5488 475.747 2.25288 389.451 2.25288 283C2.25288 176.549 88.5488 90.2527 195 90.2527C301.451 90.2527 387.747 176.549 387.747 283ZM195.24 391.215C254.873 391.215 303.215 342.873 303.215 283.24C303.215 223.607 254.873 175.265 195.24 175.265C135.607 175.265 87.2645 223.607 87.2645 283.24C87.2645 342.873 135.607 391.215 195.24 391.215ZM195.24 392.215C255.425 392.215 304.215 343.425 304.215 283.24C304.215 223.055 255.425 174.265 195.24 174.265C135.054 174.265 86.2645 223.055 86.2645 283.24C86.2645 343.425 135.054 392.215 195.24 392.215ZM233.125 283C233.125 304.056 216.056 321.126 195 321.126C173.943 321.126 156.874 304.056 156.874 283C156.874 261.944 173.943 244.874 195 244.874C216.056 244.874 233.125 261.944 233.125 283ZM234.125 283C234.125 304.608 216.608 322.126 195 322.126C173.391 322.126 155.874 304.608 155.874 283C155.874 261.392 173.391 243.874 195 243.874C216.608 243.874 234.125 261.392 234.125 283Z" fill="black"/>
</mask>
<g mask="url(#mask0_860_50603)">
<rect x="-88" y="-52.7637" width="566" height="335.763" fill="#EBE4FF"/>
</g>
</svg>
