<svg width="17" height="17" viewBox="0 0 17 17" fill="none" xmlns="http://www.w3.org/2000/svg">
<path d="M4.07552 8.50065C4.07552 8.20725 3.83767 7.9694 3.54427 7.9694C3.25087 7.9694 3.01302 8.20725 3.01302 8.50065V12.7507C3.01302 13.4353 3.568 13.9902 4.2526 13.9902H12.7526C13.4372 13.9902 13.9922 13.4353 13.9922 12.7507V8.50065C13.9922 8.20725 13.7543 7.9694 13.4609 7.9694C13.1675 7.9694 12.9297 8.20725 12.9297 8.50065L12.9297 12.7507C12.9297 12.8485 12.8504 12.9277 12.7526 12.9277L4.2526 12.9277C4.1548 12.9277 4.07552 12.8485 4.07552 12.7507V8.50065Z" fill="#8B8B8B"/>
<path fill-rule="evenodd" clip-rule="evenodd" d="M6.82724 10.2737C6.82724 10.7627 7.22366 11.1591 7.71266 11.1591H9.29969C9.78869 11.1591 10.1851 10.7627 10.1851 10.2737L10.1851 7.00641C10.2371 7.00179 10.2891 6.99695 10.3411 6.9919L10.7348 6.95363C11.3356 6.89524 11.6954 6.25731 11.4345 5.71301C10.8797 4.55544 10.1206 3.5075 9.19356 2.61961L9.12019 2.54934C8.77688 2.22053 8.23548 2.22053 7.89216 2.54934L7.8188 2.61961C6.89176 3.5075 6.13261 4.55544 5.57785 5.71301C5.317 6.25731 5.67677 6.89524 6.27751 6.95363L6.67126 6.9919C6.72324 6.99695 6.77523 7.00179 6.82724 7.00641V10.2737ZM7.88974 6.51385C7.88974 6.32518 7.79108 6.15837 7.64129 6.06404C7.56834 6.0181 7.48327 5.98935 7.39156 5.98363C7.18552 5.97078 6.97965 5.95436 6.77404 5.93438L6.65976 5.92327C7.03796 5.18941 7.50893 4.50789 8.06067 3.89533C8.20381 3.73642 8.35238 3.58214 8.50618 3.43279C9.2528 4.1578 9.87628 4.99901 10.3526 5.92327L10.2383 5.93438C10.0327 5.95436 9.82683 5.97078 9.62079 5.98363C9.34077 6.0011 9.12261 6.23329 9.12261 6.51385V10.0966H7.88974V6.51385Z" fill="#8B8B8B"/>
</svg>
