<svg width="21" height="20" viewBox="0 0 21 20" fill="none" xmlns="http://www.w3.org/2000/svg">
<rect x="0.765625" width="20" height="20" rx="5" fill="#EC303A"/>
<rect width="12.8" height="12.8" transform="matrix(0 1 -1 0 17.5625 3.19922)" fill="#EC303A"/>
<path fill-rule="evenodd" clip-rule="evenodd" d="M15.575 6.00084C16.2104 5.94791 16.5617 6.65985 16.2353 7.14855L16.1297 7.30664C14.5194 9.71709 12.7022 11.973 10.6999 14.047C10.2011 14.5637 9.41393 14.1081 9.48297 13.4634L9.78377 10.6547C9.81439 10.3687 9.66067 10.1052 9.42119 9.99663L6.91612 8.86137C6.31111 8.58719 6.36734 7.68405 7.0201 7.50435C9.76097 6.7498 12.5621 6.25176 15.3896 6.01627L15.575 6.00084ZM15.4994 6.8099L15.456 6.81351C12.7486 7.03899 10.0657 7.5095 7.43803 8.21957L9.75141 9.26797C10.3168 9.52421 10.6452 10.1234 10.5792 10.7398L10.3047 13.3036C12.2025 11.3159 13.929 9.16066 15.4644 6.86225L15.4994 6.8099Z" fill="white"/>
</svg>
