<svg width="17" height="17" viewBox="0 0 17 17" fill="none" xmlns="http://www.w3.org/2000/svg">
<g clip-path="url(#clip0_860_44440)">
<path d="M11.2631 10.0936C10.9831 10.578 10.5805 10.9802 10.0959 11.2598C9.61127 11.5394 9.06161 11.6866 8.5021 11.6866C7.94259 11.6866 7.39293 11.5394 6.90829 11.2598C6.42365 10.9802 6.0211 10.5781 5.74104 10.0937M10.3759 14.5953C9.017 15.012 7.55776 14.9621 6.2305 14.4536C4.90323 13.9451 3.78423 13.0072 3.05165 11.7892C2.31907 10.5711 2.01503 9.14306 2.18792 7.73226C2.36082 6.32147 3.00072 5.00907 4.00574 4.004C5.01076 2.99893 6.32313 2.35897 7.73392 2.18601C9.1447 2.01305 10.5728 2.31702 11.7909 3.04954C13.0089 3.78206 13.9469 4.90102 14.4555 6.22826C14.964 7.55551 15.014 9.01474 14.5973 10.3737L10.3759 14.5953Z" stroke="#8B8B8B" stroke-width="2" stroke-linecap="round" stroke-linejoin="round"/>
<path d="M6.10938 7.96875C6.54948 7.96875 6.90625 7.61198 6.90625 7.17188C6.90625 6.73177 6.54948 6.375 6.10938 6.375C5.66927 6.375 5.3125 6.73177 5.3125 7.17188C5.3125 7.61198 5.66927 7.96875 6.10938 7.96875Z" fill="#8B8B8B"/>
<path d="M10.8906 7.96875C11.3307 7.96875 11.6875 7.61198 11.6875 7.17188C11.6875 6.73177 11.3307 6.375 10.8906 6.375C10.4505 6.375 10.0938 6.73177 10.0938 7.17188C10.0938 7.61198 10.4505 7.96875 10.8906 7.96875Z" fill="#8B8B8B"/>
</g>
<defs>
<clipPath id="clip0_860_44440">
<rect width="17" height="17" fill="white"/>
</clipPath>
</defs>
</svg>
